<mxfile host="app.diagrams.net" agent="Mozilla/5.0 (Windows NT 10.0; Win64; x64) AppleWebKit/537.36 (KHTML, like Gecko) Chrome/131.0.0.0 Safari/537.36 Edg/131.0.0.0" version="25.0.1">
  <diagram name="Page-1" id="13e1069c-82ec-6db2-03f1-153e76fe0fe0">
    <mxGraphModel dx="6340" dy="3033" grid="1" gridSize="10" guides="1" tooltips="1" connect="1" arrows="1" fold="1" page="1" pageScale="1" pageWidth="1100" pageHeight="850" background="none" math="0" shadow="0">
      <root>
        <mxCell id="0" />
        <mxCell id="1" parent="0" />
        <mxCell id="C7uovflBLvXJzVc5lwu3-11" value="" style="edgeStyle=none;curved=1;rounded=0;orthogonalLoop=1;jettySize=auto;html=1;endArrow=open;startSize=14;endSize=14;sourcePerimeterSpacing=8;targetPerimeterSpacing=8;exitX=0.5;exitY=1;exitDx=0;exitDy=0;" parent="1" edge="1">
          <mxGeometry relative="1" as="geometry">
            <mxPoint x="445.01" y="450" as="sourcePoint" />
            <mxPoint x="446.01" y="510" as="targetPoint" />
          </mxGeometry>
        </mxCell>
        <mxCell id="IsnAvOgHkMtuy9CUKKlC-131" value="" style="endArrow=none;dashed=1;html=1;dashPattern=1 3;strokeWidth=2;rounded=0;startArrow=none;" parent="1" edge="1">
          <mxGeometry width="50" height="50" relative="1" as="geometry">
            <mxPoint x="-920.8299999999999" y="913" as="sourcePoint" />
            <mxPoint x="-920.8299999999999" y="1663" as="targetPoint" />
          </mxGeometry>
        </mxCell>
        <mxCell id="IsnAvOgHkMtuy9CUKKlC-123" value="" style="endArrow=none;dashed=1;html=1;dashPattern=1 3;strokeWidth=2;rounded=0;" parent="1" edge="1">
          <mxGeometry width="50" height="50" relative="1" as="geometry">
            <mxPoint x="-730.5" y="1665.5" as="sourcePoint" />
            <mxPoint x="-730.1399217221133" y="1573.5" as="targetPoint" />
          </mxGeometry>
        </mxCell>
        <mxCell id="IsnAvOgHkMtuy9CUKKlC-3" value="" style="shape=image;verticalLabelPosition=bottom;labelBackgroundColor=default;verticalAlign=top;aspect=fixed;imageAspect=0;image=data:image/png,iVBORw0KGgoAAAANSUhEUgAAAzAAAAKfCAYAAACxNS2UAAAAAXNSR0IArs4c6QAAAARnQU1BAACxjwv8YQUAAAAJcEhZcwAAFiUAABYlAUlSJPAAAP+lSURBVHhe7P0PaFvX3jf4fn2nz2C3OYMzdEDiTYcqJMORnwTi0GdqmacMVSYvRKadqYXLRCYHUqeFVG7hRE7h1G5gErmF1M6B1O6BNu6BFinT5pUDTS3DKVZ5b4rke3OQMrSP3TspViAZpDvJHel9mycSbzKz7lp7L0lbsvwvsR07+X6CYu2191577bW3ttZP2msJYrPLxEXotF90tjkEAONh2+UWnUeHRCiR0QstQK17ske4X3YKm14XsAnnyz0i8MWUyNzTy63UvYyYOusXnl02M88dLtFzMiJmftPza+Qujwh/l0s4LNsfis6JnJ6/YjdCorO0P10hUbcWEkG9v8t7dIbn55JJhMTQ0U7h2lFZztHmFj3Hz4mJa8so/XLKuaCMCHVVtjvvYXMKd5dfDI0nRa7ucYyLYL31FnosWb4l8pPngPtwQJyLZURBr7Egef7Ew0PynHALp62Uh0O49qvzckLMLVC1mXBneXv1jpcQc9V1djJuJqeGRGspbRnHYe4LTyWPA+dkrrVyYi56TgQOr6D8yzkX1rteiIiIaENqUP/JN20iIiIiIqIN7/+h/xIREREREW14DGCIiIiIiGjTYABDRERERESbBgMYIiIiIiLaNBjAEBERERHRpsEAhoiIiIiINg0GMEREREREtGkwgCEiIiIiok2DAQwREREREW0aDGCIiIiIiGjTYABDRERERESbBgMYIiIiIiLaNBjAEBERERHRpsEAhoiIiIiINg0GMEREREREtGk0CEk/X1X/+X/+n+P555/H//V//V86hYiI1ou6tDc0NKCpqQmFQkGnEhERPXr/2X/2n+H69ev4T//pP+mUlVmzAOa/+W/+G/yX/+V/ibfeekunEBHRevnXf/1XfP3119i5cydeeuklnUpERPTonTt3Drdv38b/9r/9bzplZdYsgNmyZYvx5tnR0aFTiIhovahvXZ5++mlMT0/jxRdf1KlERESP3uTkJLxeL+7evatTVoZ9YIiIiIiIaNNgAENERERERJsGAxgiIiIiIto0GMAQEREREdGmsfYBzM0wvA0NxnCe1Y9BJJBF+PV68yyPUwmdERERrYbsD6Pofb0d243r7Ha0vzGI8Z/zyH/fh8FpucD04Lxrsfd81lzZkMBgzXxjvSXlkfi4Gy32Bth3d2P4x7xOt7idwLCvBXaZp313B/rOz6KoZxERESlrH8Bs8yEiBDLhTp0ABBMCQvTDBRt838jnN0Iozz0ZN36/QD3iJ+X0ifYVvDkSEdGC7qcRfmM77G/F4Dgawsw9da2dQ+y0B8UvvHD+22HkfpPhQlu/TM8gclius3/EWC5y0GbmYXChX12nY/1o/WAKOfm8v03PWlARiVMeBHLdiN2Q7wmXe1E87pHXdkt4ckcGRq8EkDsUQ0bmmb7YjcwxN3rOp/UCREREG/wWMtcHOoiRBlxehG+az4mIaKVkAHHSi+5JF0LfRxB42YHGp8w5jc+2wndmAuMnXUjfLn0rYoPdIf80b8VWvdw8TU1wOFvQrCcX9WsIwRMt6DvmgU3l1+xC4EM3Rv44ipS5BNIXghh4ST4OmMFS4w4fRj/tQPjYMKJ1vqwhIqIn04bvA+M6XPp2Zhzdf+XtZERED+TqKAKnUmg91gff8zqtSiNcR/vQrqdWW+rSKKJdbrQ/qxOkxtZ2eKdDiF1VU1kkJqPA75pkSSqaX+6EPzuK2BXeSEZERKaN34l/mwN79VOciKESwpTuweY3M0RES0n9EDKunx5Xq5lQz7OdCFTdKrZaskinUsBuB6pyb94KO1KIz1r719QwloHlmyEiInrSbfwABg44uvRTJJHWwUr2/BAGjGfjiFxe5M2PiOiJpwMIdKKl7rcva6+45BcojWhW385cTmLWTCgr6L9ERETKJghg6rMd7EPQeNYJ70tr8YkhEdHjY+kA4lFrhvu1AGzfB9H35xSM71uKeaS+CiEKG/bu5HWeiIhMmyCASSN9QT/FXji26aelUXBEBL5yGhERzWeD4/fqbxzptfzCus7wy8sZQbI8mMD+IcTHu4FP92KrvQUdJ6LIFXNI7emD5wVzGSIioo0fwNxMI6mf4qRbhi1ERLRSrS/3yzAmi1hq+UMSNz5lA65lkNHTtYq/5crBx+JscKq+NzKvqvgpm8EMWqu+XXG8NoSJawIiM4OJ0y6kL8bgP9kjlyIiIjJt+AAmezmCceNZJ0KHreELO/ETES1X48s9CB4AYicGEL6uE2vdjmH0QiXAcezxwnY1huSvOqFKEfHvZ+FutdzaZfx+jPk7XqVH6fdhWl/uhuurKOK3zWml+FMc4bZuuPfohCp5JE51Y8w1jqFXljVQMxERPSE2dACTPe+F3WeGL8FE9a1i7MRPRLQSDvR8OYX+58Po3u/F8OQs8qV+McU8ZieH0Xu6CE+X+vEXU/OBAIYPJTHw1gDGf6mMAla8nsDYu24M/G4A3Tt04lL2+DF8cgZDf0mY/VuyUQRPxBH8s7/62xVZlvT0GPrcezFwL4joB66qYZWJiIjWPoC5GYa3oaEciCgDLvXNySASyCL8unz+XLf+lkXSv7yvHsY6+pf5a3/lmZ34iYhW6Fk3gpczmHrfgdmTHdjapK61drS8PoCYvJYOnfbIMMfKAd8XKYReyyN0eK++Ntux940xZF8eW2Fw0QjXByEM/BbEXnV93x/C1o+j8tpeySFxSubvaMeRz7JoP5vE1En38n4kk4iInigNMjgQ+vmq2rJlC77++mt0dHToFCIiWi+FQgFPP/00pqen8eKLL+pUIiKiR29ychJerxd3797VKSuzCUYhIyIiIiIiMjGAISIiIiKiTYMBDBERERERbRoMYIiIiIiIaNNgAENERERERJsGAxgiIiIiIto0GMAQEREREdGmwQCGiIiIiIg2DQYwRERERES0aTCAISIiIiKiTYMBDBERERERbRoMYIiIiIiIaNNgAENERERERJsGAxgiIiIiIto0GMAQEREREdGmwQCGiIiIiIg2jQYh6eer6r/77/47FAoF/Lf/7X+rU4iIaL0Ui0Vcu3YNTz31FJxOp04lIiJ69K5cuYLGxkb8+3//73XKyqxZANPe3o7/8B/+A/7xH/9RpxAR0Xr5T//pP+H/+D/+D9y/fx/PP/+8TiUiInr0Zmdn8bvf/Q7xeFynrMyaBTBbtmzB119/jY6ODp1CRETrRX0D/vTTT2N6ehovvviiTiUiInr0Jicn4fV6cffuXZ2yMuwDQ0REREREmwYDGCIiIiIi2jQYwBARERER0abBAIaIiIiIiDYNBjBERPToFbNInB+Ed+cgEjppVdzPY3ZyFEfc3Qjf1GkbzOxf9mG7exSzepqIiBa39gHM9CAaGhqqHoPTep4hi/Dr1vnedXqTSWDQUibv+axOJyJ63NReZxd4vB6WSz4aqb90oufYAMZ/1QmrJHtpAN53ezH2Q1GnbC6JU3Y0uGRQd0cnEBHROgQwbf1QIzVnwp06ARhwWYMUG3zfCIgbIQTDGblsBL5tetaacqFfbrNSKiKix1ijD6FrBeN6LEQGoS6ZdjKupwVyP52Dr9FcdDXkLw6v6MOo1j/GETuz+ldk22sjmPkqqKc2JufRKczF/Jj/c6MpxKNuhM73w7VFJxER0XreQrYXneoN0zCO7udW+TYBIiJaQAGFl3rh27FwhNK8qwe9L8nl9PTDySJ6/sF+nIwsriaBP4/Bx98hJSKqsq59YLxn9Kd+hgG0P8LbFYiInhwO9Lzp0s8X5nqzRy758NLnAwhc0BP04Pb0INC2il+LERE9Jta5E7+6XSyO8pf5F7phP7X49zCJU9X3aFf1n6nqX6NuS7P2a9G3qVUts9i3PrH562pVZVDlvRmGd6nl5gVnpbJVr0NEtDHlkfj4CNp3quuWHS2+YSRu61lS8eoounfb0bDzCMLX0wifMK956a+82OdTz9U37Utc824nMOxrgV1eG7e/MY70fZ1upZZ5ox3b1fXT3oLujxOyZEu4M4vwex3GOna3vO7ndLpV3lymxa7KuB3tb1TvH7IJhE91o+Ujec0vl1PWw1uynHoRg7V8Rj6jSNX0Vyn+Mo5BvZ8NOzvQd8mSQz6N6Ce96Hij5j1jtcpHRPQ4EmvkmWeeEd99952eEiITDorQDT1xIyQ65abV5tWjM5wx0oLqr0X8pGV+nWklE+4s5wMERVxkRKirNC0fJ+NyqbiQQZMxbV23uhxqXWt+5rTJkmdXp+jsComQLkswYS5RKps5rbcnlyttzVrOqjIQEa2Bu3fvGteb6elpnWKlr2nG9bGenJg43i8mbhTMyUJOTH3QKtAWFEkjKSmG9vhF5JYxU8x96RM2y/VOJIJy252Va349tyaE3+YS/VFzrcKNCRE8ILdhvfbKZQJ/mhCZUjFuTYn+PRCuD5NyqwuRZWuzCd9nM3IvpFtJETqq8rWU5zd5jW5rFYFvM2Y+cplzh2wCNr+YMPYpKUYOOIVNXbMPBUTob3q52RHhkWn+b42cpRkx0gbhPjtjTqZDwmeDaD2TNKeV1Ihwt8m6umaWeO4L9V7gEkMpNaXq2SkcajvW+lu18hERbUzRaFQ0NTXpqZV7NAGMYrzBmQ169QiGawKYcnBhedMpr1N5g6sEBpXlSsFE5Q2hEsBUvWFbAphyUGFJKwUnVQFMadvGcnqb5XVK5Sotb30DL5XBmkZEtDYeKoBJDYlW43pV+7CJ4BU5PxMRPnktG/mp1FCeE+eOrySAKcjrdKuw/WnKbHhrc5+55XqV63vyjAo86pTDJgMpvUwt4z3hwDlZoorC3wJyvUp55r7wCOyvXqZ0HW89Xcq5Xh2Z1/HOL0trqgDGJvpjpb2oXScnIodrPrT6TQZYBxyi/3Jlz433LEsAs3rlIyLamB42gFnnW8gs2vqrRybzdSOpnyvZyxGM6+fzJZFeq9uwtjmwVz9Npuv00OlymPeIb/MhokdMq5R1AO3GbQR2dBv3f49byulCvxEwrtcoa0REDyZ7LYlUVwiyQV0epcx8ZND/glzA1g7voTh6dzvR8movRicB72kfbObqyzCL2KcptO9ugbWHR9OWZv1MySKdSkE2/mvKIB+ZfsgAq44s4pPyauxqqerL0/i7rfqZkkViMgo0N6FJpxi2ueB9DUhdma2+lauO8eulJZzwJzIIvlTE7OQY+nzumr4/s5j9K+B41rJfW1oRiM4h+M8L9W1ZzfIRET2eHl0AI9kORhA/qSc2i92ORd6kOxG6Uf1G29+mZxERbRb3i8CFOJIL/vaIDZ1fzmJmvBet6Qh6Pdvh/EN4BX0vZP7LaGMX5WLjiaRaetnUOstyX43NZiXDhafkn8aVdZrP/zgMb6sXw7/a0XN2AsPlgWoqYtOpFe2DYZXKR0T0OHqkAYzi+sA6MlmF7SXvvN9oyaZL39HshWOtvsW4mdbfBHXC+9LyPk+0OUrf2Vi/canFTvxEtDnYnO1oxSh6fIOI3aw0vYvfD2L0qnqWwPDHaThf60fopwwysSD2ftWNcNWPFC/GBtt+ecX8Pl6nQ36p2W6D09UKfNID70cxZMvFKCJ2ahQpPVWtGTY15PB4vP58Y5AAne/FEGJVP5pZQEEWxvNy6yIfUtX4eRSel6JwX5jCuXc8cD5b9Z2J5IBDvr+lTgQQnMxWgpiifD/480JDyqxi+YiIHlPrFsCkf7XeIGZVMzJZyTYf+oxvZypBQfpX80atznAPlh4QdGXGfzU/OyzfDnayr/6tXj+l539w2NZTDsIG1C8mm0+RPT9YDlay54cwYDwbR+Qyv94nokfofg45FTncytUf0WtPNwYO2Yxfsd/3XBNKoys2nWhE+x5zkeJ7fgzoRrltt1M21T2wPWvOU98StCINdRdu8cexOr+u74D3HT9sf/XD/3kKeRVY5BOIXFTX4UF07z6CcXntbO0agM+WRfT9fbA3mWVoaGjCwBYVYNXTCLdvCK6rffC/HzWDnvtpRL+JySfjCLzSgmEZZLW+OYT+HVEMnBxDSo/slb00itHfghjoKt18VqmjcuBxX/9OTkEHWcW83MscMhmzFvNXY4jfkE9+KyD/9xRm5ftb57GgfL+SAYvHjiaj/NvR8k8BQAUphiJyt+SfazIQNBNWr3xERI8rsUbKnfgtneKNh3WkFSu5XO0oZEq5Q75+VDrWSzUDAajOn6GqUcnk42RId6ivPKo67BvlKXW614+ajq21Zai/DzV5yEf1aGPsxE9E62ehTvzWERFLj6rrasm9OTFx0iecNrWMQ7gOD4m4MQKWEhehL2fETDggPDsgbLt8YuiydeSrORE57BCwuUXg24U7lM+Ny/V32Yz8PafjMj+5vYNDYmLWkld6QgQP6hG3drhEj1xuqTG2cldGRE+b3D5swvlmRMxdDgrHgYA4l9CjdSm34mLosMscAczmFJ7jITFTztgy8It6qGt+3fcyWUd/dBtlU/lH0gWRPOOS5ewUI6lKJ/3c5SHhM/ZTLtfWI4LjM7octe8b1hHYVqN8REQb08N24m9Q/8mL3arbsmULvv76a3R0dOgUIiJaL4VCAU8//TRkAIMXX3xRpxIRET16k5OT8Hq9uHv3rk5ZmUfeB4aIiIiIiGi5GMAQEREREdGmwQCGiIiIiIg2DQYwRERERES0aTCAISIiIiKiTYMBDBERERERbRoMYIiIiIiIaNNgAENERERERJsGAxgiIiIiIto0GMAQEREREdGmwQCGiIiIiIg2DQYwRERERES0aTCAISIiIiKiTYMBDBERERERbRoMYIiIiIiIaNNgAENERERERJsGAxgiIiIiIto0GMAQEREREdGmwQCGiIiIiIg2DQYwRERERES0aTQIST9fVe3t7di2bRu6urp0ChERrZc7d+7g888/x549e/Dyyy/rVCIiokfv3/27f4cbN24gHo/rlJVZswDm2WefxX/9X//XuHnzpk4hIqL18n//3/+38Vddi//P//P/NJ4TERFtBP/m3/wbI4C5ffu2TlmZNQtgtmzZgq+//hodHR06hYiI1kuhUMDTTz+N6elpvPjiizqViIjo0ZucnITX68Xdu3d1ysqwDwwREREREW0aDGCIiIiIiGjTYABDRERERESbBgMYIiIiIiLaNBjAEBHRxnM/j9nJURxxdyPMwSyJiMjikQUwiVMNaDiV0FMbXRbh1xswOK0nH0gCgw1evhET0fqbHkRDg7zm1nvsbMe+13sxfDGF/H29/AaQvTQA77u9GPuhqFOIiIhMjyiASSB2Qv45MbQ6DXr55vxwwcUibobhbbCje3cc/W067YG40H/Di8hzDfCez+o0IqJ10NYPNWJ+8sNWOdGPid+EMa0ehe+H4ds2i6HOvXD+2wHEHmxI/lVne20EM18F9RQREVHFIwlgsueHMGA8G0fk8sM25hMYdJm5rT6Z93PdGD8Zh/jApdMewjYfIokgxn32tQu4iIgWYH/eIf9vwtYt5rTS+LwLPWemEB/3w/7DIPa9HUZazyMiItqIHkEAk0Xs4rh+LkOYizGZ8qDUrV3tOhhafYlTKu9OhA6vQvBS0taDUBcw4BqU4RER0cbgeG0IQ8dtwIUAb9siIqINbf0DmJsxRHbHET+ppy90Y2yRbyOMvjLl+7UtfUhKt3ZdMCcHXDXzjT4n1nWtAYPZp6U0z7ilq3yPuF5O5j+kbnPDXji2qb/Vqsr1ergqCMue91bmzZtvg2O3+juAoapbyUrlZT8ZInoUGuF+tUf+zcpr8qyZZMhj9nwfOnbbjevZdtcRDP+Y1/OkfBrRT3rR8Ya8zt2ZRfi9DmxXy3mGkbijl1FuJzD8Rrsxr6FhO9rfGEXKOl+xrG93y2txTqdb5c1lWuylfOR2rLe9ZRMIn+pGy0cJFK+OwruzAe0fpcCQjIjo8bHuAUzir93Yu98F1/7Kvc0D39f/LkIFCe0yiOgMZyBuhNCJcXQ/pwMMdTuWkWYKJtT93BH4jGBDBQP625MbKj2OoJxqLwcHNvi+UWnaRT8avncY34wASaTlMtnLEbk1qcsBddOFValc5jZlPjIIs5eCFBn4+H3jZpnVPeaWMpY4dpgp1m+fVve2OiKiB/B8i3G9yqZm9bWpKK93HnSn3Bi7Iq9p93KIvFHA0EtO9F5SQUwe0Q870PvuKKI3Ywh9X4TnwwnM5SbQmeqD//OUkQswi9FX2hFtHcOcui6mg3BM9qKnPF9JYXi/GxM7h5CUy2S+8SB9KaLnaXfktf1AN5IvjSGZkfnciqDn/hDad/ciagQxMo/XehA4EcZsLimnujF00odsJsMAhojoMbLOAUwCsZ9C6FGd4fWtVIYTMTMosSp/A9IJ70s2GbC44S0tv4RyMNDlhdsIaFxwG9/4yADor/ODpXF4kfnAB98xFdKY37ikf9W3ue12yHDHolyuINxGp34Z4KhyXYggZvnmZNznN4MlFWh946vKw+bYaz65kC7fa2472KcDKr2/RESP2q8hBE80wf+WB7ZGOf1UM1rfHMZwVxajJ8ZkgNAMz+kZhNT1tdmN7tda0fyUer4Xe1+S4UTOGjbY4NqlPw563o0ONf9OZX72fBB9W4MIvumUuUrPtqLzNbcxryR9IYiB3/nhf8UGVRy1TM+Hw+jMjmLgryoYakUgEZPlk09v2+Hc0wzHwRDmznrMPImI6LGwrgGMCiyS8g3JbJ7b4H6t9N1E7e1UctnSNyBl6lsT9Y1HvwxHFlPdx2aen9Llbz3KSkGKMVLP4vlXyqW+0VG3MJRuYxs3vrlRAUtfKVh6rvb2scW40G+MClT6FomIaJ1dnzGub7ZWp3FNzF6JIiqb/k1GtFAiA5FX5LX7ahyzlg9t6vqldL11wp/IIPhSEbOTY+jzuRHQt/+asohPyi27Wqq+8W783Vb9TMkiMRmVwVETmnSKYZsL3tdkMHSl9K2R5rAzaCEiekytYwBjBhZqBK5S3xC7rxJoPFxn/ofTuaP2JrHlKN2eVnmUhll2fSCnE/oGNXV7WVX/GyKijaiI2Ldj8m8r+g6o4ZYtan4fpkl9y4JGNBp/lyf/4zC8rV4M/2pHz9kJ81sSi+Jy7/GSZSnopyYZzqhyNFZFWURE9BhbvwBGd963NvjVY6HO/OXbrLDSPiHWb3ZKskj/pJ/W3hK2QtZyGd+4LET/7oK5fwOILTlsMjvxE9Gjkz7fg+6Ps7AdGkD3HjPN5myX4cw4Qj9UD6xcuJMHDrjRutyL6c+j8LwUhfvCFM6944Hz2arvUKRm2J6Xf8bjsPaKKTMCKBucLhlYXQwh9quRqhVQkMXxvNz6UNd2IiLaPNYpgJGN8+ci8NYZjth1uNLJvWpoYUsfmXJ/Eil7fnDBBn7ivHm7Vrk/SbmPifxr3K5Qf0jk8V/n/+pBqaP9vFvOLOWylrdcLjU6muW2MXOwgs6qkcyy6aT5xDJAADvxE9Fay1xX17oCcpbRv4rXExg7tg/tvjCaukYQ/bSzEgjs8WPoTw5E3x/A2FU98lg2itFPCwie6NbXryJyt+SffA6VQcNkUKGCjvvyr5os5uVVOIdMxswjfzWG+A355LcC8n9PYVaNgOYbgutqH/zvR5FV38bcTyP6TUw+GUfglRYMTwOtbw6hf0cUAyfHkNIjj2UvjWL0tyAG5PXUpLd9z5wiIqLHkFgjzzzzjPjuu++ESASF2kz50RUSGb1MJtxZPU8/ggm9gFxSBgtV8zrDpbVN8ZP11lPiQoYOlnWDMqVkfr44WZlruBESMoSpWa9kkXLJ9YIng3pd81FdrkqZq/elVN5OEbqhk4iIHtDdu3eN68z09PT867D1scMl3IeDIpSovrZW5ET8dI9w7VDL24TzlYAI/ZTT82qvhep6We/aOycm/ugWMjASjgMBEUkXRPKMS267U4ykCjovuaUrI6KnzSHXkdt5MyLmLgeN5c/JspWXuhUXQ4ddQoYrAjan8BwPiZlScazblvOchyvvN0REtHFEo1HR1NSkp1auQf0nL/arbsuWLfj666/R0dGhUzYfc7hk1ddlNTvWq9+gUR3/g4gvOSABEdGDKRQKePrppyEDGLz44os6lYiI6NGbnJyE1+vF3bt3dcrKrPMwypuL6wP1WzH1h15+YNNjxqhlwQSDFyIiIiKilWIAsygX+tUPUZ5oN3+t/2GpX/t3DRg/clkasYyIiIiIiJaPAcxS1A9Rigy8F+0YXHIkscUkMOhKGkMvRw5yrBwiIiIiogfBAGZZzB/RfLhvTdQPVfJHKomIiIiIHgYDGCIiIiIi2jQYwBARERER0abBAIaIiIiIiDYNBjBERERERLRpMIAhIiIiIqJNgwEMERERERFtGgxgiIiIiIho02AAQ0REREREmwYDGCIiIiIi2jQYwBARERER0abBAIaIiIiIiDYNBjBERERERLRpMIAhIiIiIqJNgwEMERERERFtGgxgiIiIiIho02AAQ0REREREm0aDkPTzVfXss88iGAzC6/XqFCIiWi/5fB4ulwuffvopXn75ZZ1KRET06F28eBHvv/8+bt++rVNWZs0CmC1btqClpQVXrlzRKUREtF6eeeYZ/Ou//iv+8R//Ef/yL/+iU4mIiB69F154wXhvunv3rk5ZmTULYLZv347u7m78T//T/6RTiIhovfzH//gfjWvw0aNH4fF4dCoREdGj98033+Crr77C3NycTlmZNf0G5uuvv0ZHR4dOISKi9VIoFPD0009jenoaL774ok4lIiJ69CYnJ41uJg/6DQw78RMRERER0abBAIaIiIiIiDYNBjBERERERLRpMIDZsLIIv96Ahgb5OJXQaURE6yGP9OQoej1HEL6pk5ajmEXi/CC8OwexEa5axZsJhE95sf0xuYbmf4li9K196D6f1Sm0YW2w1wLlET22HduPReWzBfCYbSprH8DcDMOrGuGLPAan9bIbTOKUKp93ZW/gy1YKUBZ4odyMIXIB6AxnID5w6UQiogcwPVh1za3/qFyLit8PYd+7vRidzOmU5Un9pRM9xwYw/qtOeKRSGO3qQeDEONI6ZVPLjmOgqxe9n8dQ1EnLIo+9vaFdvs+uaC16SBvrtfCYWONzmcdsc1n7AGabDxEhkAl36gQgmBBQg58JEUdQTg+4qt88N4YEYifU33FELq/Bp106QJF7j1idAC57OQLI4CVy0KZTiIgeUFu/cc1NftgqJ4KIG9dfy+PWFIJt5qJK4/4g5r5SV+eVaf1jHLEzlWv9o9WKQCKG4S49uYbyF4fX6IMuC1snRn4KGe+ZK5G6PAF3OIT+tkadQuthY70WVm61z+nVyO/hzuVmeM7MYe6MRz6rb7MfsyfNI76FzIV+HcSohnz762FsnC/GXXCfVH874X1pDYKIbW54jTfWINyWhkOJ7WCEwQsRrSr78w79rMazbvS8C6TXuhH+WMoiej6un280KSSfGsbYwQWOO1Fdq31Or0Z+PJep2gboA+NCT+nbmQvdGNtAt5O5PlCfTkbg26YTVpUNvm9U/v2yBoiIHpUswqfCwMH+NbrWPd7S5wMIGN+mb0St6PmjC/zuhVZitc/p1cmP5zJV2xCd+G2OvfoZMPB99Y1kZj8U/aj9hmZe/5qa/iq188sdOS0d5OXDqzpElu8RV7ey1ZkvUwf1tHoMnrfmXf/2t+x5b3l5Y51ycFaTlzVoqy2zdZ+r7mOX27RO1/n2qlR3ZvmJiOq4GUf8mn7+IG4nMOxrgV1ea7a/MY70fZ1ulZ9F+L0OtNjVNWk72t8YRuK2nqdkVWf7brR8JK+k5fzsaHmruv9K8Zcw+l41t9Vgb0HHe9F5/VvyPw6je7fd2M6RCwv0fsnGMPxGO7aX8wlj9o6eJ2WnwxiUZVD32qc+8crl2jH49/n33ae/8mKfT117x9H9nNq3yntQVVl3dqDv/Gy570olf0t5ZTnml7eI2fN96NipyrlPLl/dJ2mxci6nrupJTw7iiGu73BdV/2GkpocxcKHmPbD0Xmp9v7IOlKCOoaV+uz9OLNxx2jpgxPU0osf2wW7vxnjpvXyJvNKXzPqxu+V74u0YBkrlsJxTxauj5XOi9lgr2R+G9T7LfHZXH6uq8t20HA95TIdr+2Is+VrQ6xtlkct4+hD+pZLHcs+7Stuicr5V2kqltBWU22LhczqPxMdH0K7yUOeGr/o1XK7jneZxDJ8w2ySLvUasHvhczstz5pNedLwRRvp6FH0efe7WlK/qGmO1nOvXEteLeZZbpqo6ldt3HcHo1eWcD9XnkXHOXlrOq/sxI9bIM888I7777js9JUQm3Kl+8d94BBM6seRGSHTqeegKiYxOjp+0Lh8Xwar5GRHqqp3uFKEbxoQlz6Bcs5JXZ7icu5mfSpPr4WTIzA86D0uZyuvUKWd5vyzlVsrpJ42t621ZypcImvPlo1wfNWWeNy1Z67E6b+u+SXXKSkRPjrt37xqv/+npaZ1Sc/2wPupdI4xrlOWaVc+tCeG3uUR/1Fy7cGNCBA+0yvUq1yzxm7xGtbWKwLcZUVDTt5Li3CGbgM0vJm6phKQYOeAUNlWOQwER+ptebnZEeGSa/9ucmhIip7ZVmc5dDgqXdb6U+9YvbG39YsIoTkFkvg0Kzx6Zr3Gt1NIh4bN1ipGUuZ4qc3+bXKZtSJZEujIkXLtk+WTegbNxkczNidAhh/BHK9upUq+eUkPC/2lS5O6Zk4XZc/J6bBO+b2TBUnK/dP6+4yExdcPYWzHzqUemyTqxbCZ5xiVsh86JGZV2LyeSX/pFq1zPuNYvVs5l1NV8BZE87RYOub2kcVzk+fJtoLI9w4wY2V9Tn/emRL9cppwmz4nAnyZExtwtUbgl58tj4PowaR7XGplxv3DukOvLOgx+ExdzOXW+uMTIT3LmUnndioie/SMiqSZk/UyddOlyWM+poJi4Yu534Zo69hC241PlssyFfcLWJfMw9lmeM9F+o65cZ4yzQeSiAV0+t+g5E9HL5cTEcVn3e/Q5oyzjtZA84y+fd+JeQcx8IV+PNp+IqHNnheddIeo36sx63s2p/HTasstdz7xzWq0nX1f6XBUFWdcfyH1rC5p1L3Mb2uMXEV2Hc1+qOrVcU5a6ljzwuazK5RQOdZz3B8RIbE6fF1PyHJJpB86JOTVtPR+s5+5yrl9LXS/mWW6Z5KvprDxf5fk7o64T99Q+W47NInWSk8feVr5W5GT7VuZTc+3YDKLRqGhqatJTK7dxA5h5jXcdsJRfBKXpmoa7VgpYyierDhgqy1Ya/uVtGsuUtlcnMLCUc37QYd2vyrqlNLM8lhdwnfXmlbnOPlbqcZFyavODNiJ6UiwcwFjenJW0bFw/UABTkNeYVmH7U6UxqMx95q7axtwXsmG+v/KmbdDXv9bTpSaAvtZZGxf62tb5pV7TaMh4xLlr5mR5fun6VpDTe2yiP1ZVGnGuqsFdEFN/ko0CSwNWKch9VQ31nnHdAtDlK08vZl49yQbMUfPaO+9xKGLWs86/6r2wlE9aTxvLWPdXKkyJgFyv9j1pXjmXqqt6rp2TAWPN9uatt/BxKqUlz6gGoGWfSw+bbOwaS9Rh7HurGErpaW3JvK4EhW1PQAeskqqfctlkg+81uWxVWfX5WGrsyeX7ZeM48Leqs8E4r4Ee3SCX6rwWzNdSv9x7ZRmvBXVM6u2LfBiBrfJQ512pTJa0Jcu9gNr1ZECuXh/zy24TwStyfiYifHL5kZ9K5ZavOxmcl8+2OuWY5yHO5fgHsiw117BCrF828q3nVO25u5zr1zKvF3Usp0wqgLFuf971eYE6MQIYSyC0rPrdgB42gNkQt5DhZhrj+il2O6C6rqtRuMy0AbSrr+0a7Og27qEc1x1NbfAdk6exSvGpr9GsX0uWRhCz0KPw1O0Yr7dpLrPCPinbHCjdAJdM61u1pmOy1NWW7k9Tp8wW47+u/OtBc5sL7DMRkfJ8B7y79fMVmUXs0xTad7dU3ZfetMU6xk8Wicko0NyEJp1i2OaC9zUgdWXWuM1kMePX9RLNHoxkJtCzTf1WwzB6Pd3V19mfYxi52o6WnVWlQVPVkEMpJD6S+f2uqarMjW1ueOTfsZ9nzQTNYV9ovKLFpJG6KJsh5dE2LY8vO833mgXJ9ze9u9nEhJyS+7PDnDY0NmGrfmo1r5xL1VUd2VQM0drtrVgW6VTKHP6/dt8z/ZCNvkU4YH9WPzUsI69dHvQ2DqPDrm5LHET4aguGyj87IM+4p/RTC0erW64bQUoNlXs1gUFZ31t/V3U2wPWycTZgdsnhdGd1e2QZr4VfU3KrdUYAlI9QV/VZ8WDn3UqUyr082WtJpLpCkI3xmrJn0P+CXMDWDu+hOHp3O9Hyqhp+HfCe9i1xrtf3QOfyP+i/Fo2tskyq4/+1ha4wy7l+rex6UWUZZXK+E0fmQzeKv0Qx9l433MfKLeEqtXXSfGAEmWgP7Op3rj7uRcehpV7dj6cNEcBk00n9TF7099eGD52QUWXVi6a/NGqXEXCURjEz7698kN+U6dzBUS2I6Ellg++DB2lsFFUbc3nuAwX91KQbl43WZsFSzPu+9/2THzHZ0A58c656SGG5jeUWB/f0XwsVYNmeWkl5FmLWSyy1SONmOe5X7oVfuSXqqp6H2l5FUWYznkiqWnhoS+bV2Ir+yxlMnfVg6+UBdLvsaD+VWHzbsoG6VdaJwxIsFWr7PTxlnA11A6D65BaXOvmM8zOG5C96ejNR58aFOJIL9vuwofPLWcyM96I1HZFBxnY4/xBeVp+rpT3AuazIa4t6NTvsC13ZlnHMSlbrelFbJtX/5vUWeM+kYX9jFBOnO830pdyZRfjYPuw9FgNeCiDy2bJq5LGzAQIY+ZK+qKNOGeH36OCk0rG/9I3LQtRQzDKwSZgH0BwEwAFHaez/E7G6HexXzc00SuHXXoc+Kbc5ZNhlqh2UYGGlYZut0kjrkTseJMhiJ34iWr48oh+tpNFhg22/vEJ/H5dr1iqFKzY4Xa3AxRBiVZ9mF1CQK3lebl124JSf7IPbV0QgEUH/QRccW1QTwuJZG9zy/SJ2pU538XIDxInWo/LP5xOIWVu5xQJysiQ9bU6d8DDMbcTe7kHv+RTy5cZxGmMfLfIr4DWan1XX/AjiV83pKverw8FaS9ZVHeb24phZzo/41WnQmfTx/qQH3o9iyJbruIjYqVGk9NTyLCOvm2EMX2qE+50RTFzLYeZLP4onhioDACi/FVRTtSz/UwKxPe1wPi8nft8Kv/wzFq3+cdDibzm5+R64dumEJS3jtWBsK4bew70IX7Us9esYBi8t96yoozb4WgM2ZztaMYoe3yBiNys1Vfx+EKPG+Skb4h+n4XytH6GfMsjEgtj7VTfCqzCq7LLP5by8puinhl9SsrZ7sPf3enqe5Vy/HvJ6sWiZZjH6SjuiL0cw9Zkfnt83o2lZAbO8Tr/vRvf9AJLf9MPX5lBfzD6RHnEAo0b7Kt0aFkT8G8ungG09COkgZMBVGeUre35Q3yqm1rXcNtbmNqJys6Ffub3MuAWtPDpKAoPWkVK0urdnWQKTegbOmCNslG91swRf6sc7+0rByIn2yrdC04OV59bb5jTX4ZAZ+PyUNj8YKJchiL55t4El5wV2VfshL+xD+pa08Yvy4m8+JaInWOa6ukbUafwWs/JN0YNRm2wglJJyGfl/HrkF21YOeN/xw/ZXP/yf64Z6PoHIRbWNQXTvPmI0JFvfHEL/jigGTo4hpUfgyV4axehvQQx0lbaWM7dzK1dpSMpGulHSglne4p2cvI7JxpGRRxHZH2OyuS03KdPTf5fb3+FF4KgNY2/7MaYbiPnpCCJqhDU1+tBb43L9ZniOnZPX2UFZnqhuFOcx+9dRhA4No+dl/YmqDhDmfTJfT2OjbNyljVu/ij+OyetwM9xvBOGS7zejvr3Y+g/mB0kNDe1I7Wo3f0RPllmVMJOztIr0fuo/aNzfjaG2FPqODiCqG43pSxHZAJLXdDWi28fyvWyBci5ZVyq5RuNL3Qi2yeN0rDJSUjEr8zCfajKoaJXvRZdkg05lcj+LxOcyOFWzPu1BuyxTa9cAfDZ1Pu2Dvam0700Y2KIawQso7XTNfiwnr3j5eDfDsduJrTYnbNZb0S6GEfpZ73E2iqHTE/C9322u3+xB4Av5rvvRAIKTWfPcy89iTO6T70wP3Pp0KL8WLN9AFPShM+t+Ga+FO270fOiS7YBRdLdu1fsiHy+l0OrStwit5Lx73gmfbEVEfjDf9/M/j2PMGIlqXL6u5PauL6fcC6g9p7d0Y+CQTb5uB7DvuaZy2ZtONKJ9j7lK8T0/BnQd2uRxcMBTOQ7zXiM63ephz+WfwhiT2zeoY3hmCI0fysCgfC7oa0w6o9dZzvVrmdeLhSxapiLy8hjlMro8t2Vwk1DHK4eCfJ5S39TVrZMiinmZp3ptqnR57U78YNQICnfSSP29XCOPP7FGyp34dScktamFHlUdGatUOrGXHlWdCU8GRdA6v6azntmxyTK/3Dlqfr7V686fb5TRsi/BsHW/LJ2uLMqd8kuP8jZ0p8fyw9L5qra+rJ3Aavenq2b/5cNal+zET/TkqurEP+9aWO9RuQ6ZnUkr8xa+RgsxNx7Qo2o5hOd0XMyEfcJ5cEhMzFo6nt6Ki6HDLnNkHptTeI6HzJG1DDXXQ3XNq3cd/C0pRrocctom8x8RyVxGTBy1CdvLATFR6vh+b05EjnuE0ybX2eERQ4kZETrkFL7TE2Km1CFbKsyGROAVPSrRDpfoOT0lMnrEMGtd2XY5Rc+S10+5zcOyXDa3CHxbGaogd+Wc8B9Q5VX5eEQgPGN21q05Fur6XFvf5Wt2Tu6zrjfbrh4RScu6kvsV+CIuMv9+kXIup67qUSMlGWVW6w2JuDxu6thUvYeUl5HHWx1HNcqcLJP/rKzDUm/k9IQIHrTWb1ws1N3Zuu8OuR/zzrXF8pLnSSiWEfHT8pyTx9xxICBCs+Uu0eb7+AchMSHPCbMOfSIYrRpOQirIc7Z0Dss82nrEkMyzpN5rofa9vVTmpV8LOZH8wi88xuhgso5fsZR3xeedGsWsx9hvtV9Dl3PGiGrOg0ERSeVWVO756pzT8rU1cdKsZ7V/rsPq/DBnqddw6MsZsx7lvpXKU1H/NVK22L4v41w29qtrRETO6vKp8/GLpOWcq3ON0XOWc/1a9HqxgKXLJLf9bUC49bzA+JwopIaES5aj82zSGChgoToppEZEpzqH5LXUJ5fNZdRABzbh/uNEpWP/JvCwnfgb1H+yglbdli1b8PXXX6Ojo0OnPAbUmPfPdRvfnMgXfqUvDhHRBlMoFPD0009DBjB48cUXdSrRSqjffmlHMpzZhIPB6Ds8dschyh376XGkbpdv/ymEjPUunkdsI5Zpo5mcnITX68Xdu3d1yspsjFHIiIiIiIiIloEBzAMqD5lMRET0OLqTM/rA5PM5c3pTKZh9B6z9quixZHShkufoRjpLN2KZHjcMYJYtgUF9+5hi/PZMnQEBiIiINj11y/TvOjAqn8bebtlk73fq1rftOHJRPv2kA02vm4Pu0ONG3SbYgH0fyaff96KloTLg06OzEcv0eGIfGCKixxD7wBAR0UbFPjBERERERPTEYABDRERERESbBgMYIiIiIiLaNBjAEBHRKsgjemw7th+L6l+6tsoj8XE3WuwNaLC3oPvjBP7ff9mH7e5RzOolNpSfR7Fv5z6M/qynH1fqV7zPD8K7s7qj8exSx+Z+HrOTozji7kb4pk6jBeV/iWL0rX3oPs+hBIhWCwMYIiJaQ0UkTnkR2TWKmYzA3KceZD8bwr///+nZ9Mik/tKJnmMDGP9VJyxT9tIAvO/2YuwHDlC8pOw4Brp60ft5jMM5E60iBjBERLQKmuE5M4e5Mx75zOLmOIZONGPvbjPV8doQpq5FcHxgCnMxP5xG6gazyy/LOAX/Lj39mGr9YxyxM516qsJ5dPFjY3ttBDNfBfXUSuQx/vETNqSxrRMjP4XwILW1rq4OY3haPyfaBBjAEBHR2rmZLv9+Fj3hbkYRuqKf0wZSROJSiN8Q0abCAIaIiNZM/pb6LXeiNMLvBxjMbkDF6WEETqT0FNHmwACGiOgxlz3vRUNDQ/kxWLpVZHpwfprR4f4I2neqdDtafMNI3C7NSiP6SS863ggjfT2KPrcd9j+Mm7cEZRMIn+pGy0el7uDq19AbsPVV9Vvu4+h+TuXnNTt9W/Kpup3odgKjb3dguyqT6uz/ScryqbC1XA3Y7jqC0auWz4wt2y9eHYVXLtf+kXV9K7n999R27Ngnl8//MFC1/+nJUfR6jizRQX2RelLupDDqa4Fd/SL8+TTSXw0snZ+qk3J+o0jd0bOk4i9h9L2q8jPrpuO9qNwLzVqfd2YRNvZN1pFHlsmSh0HW8bBRLjn/jXGk7+v0koWOjSVfu3sQiZxOLyti9nwfOnbbjeNj392BvkulEsrg5fV96P5K5nih29wHy6/jZ38YxhHX9sp652eX/DZg0fpYQPqSLJ+sX6P8t2MYOGUduuABz/u6dF2ovOz75Lk1r7IMi++39Ty05LezA8PTltpRx/ONdvM1I8+19jes583SeeR/GETHawPGIA4DLpWH5VpgzVsPvjF/gI4aefM8MQbsMMpT87qYZ5n7qWRjVeXpeC+M2drzm54c6pf418IzzzwjvvvuOz1FRETr6e7du0Jd4qenp82E3JTo3wPR+eWcOV0SC4lIRj8XOTFxvF9M3CiYk4WcmPqgVaAtKJKFjIgcdQqHzBNdQRFJzIlcIihcbSNiRiTFyAGnsKl5J+Pmulom3CnL0SlCN3SCsY1SPiFR3vStCeHf4RFDiZwxmYv1i1bYhP9bc3rmrEtgv9zWPTlxb06EDtkE9gzJLStJMdSmt398RMRTOTEX9gnHOxNya/PlxnuE+2xSGHt5a0oE2yCCCWOWyEUDwrlD5lNV5lqL1ZOZlDzdKvzj5tYL10LCZ1siv3ccwnM6LnJq//Sxsh3V5c/JurGhXBe5y7Le5b6a05b63N8jhsaTOo8JEZDrtJ4xa8ig6tjmEv1Rs9YLNyZE8IAsN4LCPGoLHBujfm3C99mMWZ5bSRE6qtar7FMu6pf17xcTZoFF/KQ8XuVpU/xkbb7COE62rhGRvKWmCiIT7Tf2zWUtd61F62MBtyKiR54/xvG5J4+XKl/5XF3seC523teXPOMStkPnxIwqjtxW8ku/PJflay9c2fOl9rtyHrpFz5mIXk6V03rez4gRee66z+qSpNV5Vjnmy8tDuhESnXLbpdeAQZ4rgT9NiEypSuTrRJ2Trg/166ae3+LytdQqAt9m9GsrKc6p16lNngfGtudbdhmNfesUI/K1rahzt1/uO9osy9CmEo1GRVNTk55aOQYwRESPoXkBjDT3hUfY/jRlaYAURDwar0ynhoyGllqv+mETwSvmIkYj1NqwKMuIUJect2QAY6ptzKoGv61q3TnZcHSVAy4VwFjLbuZbangrevuHI7L5s7jkhzbRelw2zlRDXyr8LVDdeJMN1EUDmCXrSTZ6D8kG66e6wS/NfRZYPD+bdV/k8uN+4XotJGtBMhrsHnHumjFLkg1FuT1rg3h+cKDr44NSrvJYn5R1XHX8VbncstzV267Ny6jrA+fMsmiqzuYFMNZl6tThvDIWZKNYNrgDf7OWyCwn0CMiCzR6l1Mf81wJCtuegJgoLSK3HSidbw913tcwggFr2SS1LZlfuXzL3e86dWie9/36eKkAxib6Y+VXxfzX4JJ5SHUCmOQZVRZrXeiHPE8XqgN1fcH+6vOklHfr6UVqbskyFsTUn2RAc7z63C3I9dRx69EfFNDm8rABDG8hIyJ6Qjhe6sTej4YRKg2bezOGjN2FRj2ZvZZEqisE2cxSH25ZHhn0v6AXUnbaYddPV0cWs1dSaLHZ9LTiQOencUQOOYwp5ztxZD50o/hLFGPvdcN9bIHeFA579ShodTj396Lx4w7Yne04ciqM1O4h9LfpmcuwdD3Z0P6KD/G3W+Dc3YHeT6JA1xB824zV58nOxmUZbHKtCsdrI4iP+2QtSM0ejGQm0LNN/W7LMHo93RgwllqGX9L6VqdZxD5NoX13S/l4K01blqqtLOKTsq5dLWZZtMbfbdXPTM0HRpCJ9sB+M4Hwx73oOLSMEl5NYFAWbuvvrCVqhOtlj/w7htmFhnd+kPrY5UFv4zA67Oq2pkGEr7Zg6AOXMWs1z/tsYgLjaEfLDp2gNDahqrYedL/LZpE2bkd0wp/IIPhSEbOTY+jzuRG4YCywDKU86skinUpBBlw19SEfmX7IoKEOeSwm5Xne3IQmnWLY5oL3NSB1ZVafhytRKmMKiY/k2r9rqjp3G9vcMGrs5w35a1K0xhjAEBE9KXZ40XM4itGLZofd1GQGjj3GU9P9InAhjuQjuq889n1i4UaOuh//9RZ4z6Rhf2MUE6fnD/+7XI0v9COemcLI/q2InehGu70dg7X32y9mGfVkkw3i2Z8i6N2dRuTdDmx3diN8Xc+s5/soEgs2KM2+Afv+yY+YbBwHvjn3AMPyyjKvvAVpKC6nalQfmWP7sPdYDHgpgMhnyy9hobYfzlOqCSzDuafMyfkeoD4aW9F/OYOpsx5svTyAbpcd7acSZp+T1TzvVV7LtPL9ni//4zC8rV4M/2pHz9kJDHfpGQ9JHfPxRNLSJ2eZ5D4V9FOT3Ce1P43W0OMB3dN/LYwae2oV8qZNhwEMEdEToxmeQ/3InBlD9HoM8UZ31aepNme7nB5Fj28QsZuVpkvx+0GMXtUTa8IGx27ZcLsQQODzFPLlhl0W4VOqs/csRl9pR/TlCKY+88Pz+2Y0raCRVyt7fhjjT7nh/3QCc7kZhI4WMXBmsU7Z1ZZTT4k/DyO9qxP94RlkZLAUbA2j+ytrp/EKm2OvrIFxBN4fQ8rS4Tl7ftDo+J+f7IPbV0QgEUH/QRccW6o+414mG2z7ZaP0+3idjtjVTc5qzbA9L/+Mx1F3nCrjWOURfd+N7vsBJL/ph6/Nob50WNrvW+GXf8ai1T/yWPwtJ4vbA9cCv8PzQPVxM4zhS41wvzOCiWs5zHzpR/HEEMZl/a7med/8rPqeKoJ4vfXu63p+wP2e5+dReF6Kwn1hCufe8cD57IOcF/XY4HTJK8MnPfB+FEO2XMgiYqdG658HpXUuhhCr+gapgII84Twvt8olHpQTrUfln88nEKuqsAJyMteetg35a1K0xhjAEBE9QRpf9qLPNorgwTAaXdabgqQ93Rg4ZDN+aX3fc03GiETq0XSiEe36m5qCaoPN+5RVySGnWsbpTFUDuaA/1a7+tLmI3C3551oGpUGWXYeG4bPJgOWtvdj6D2q7drTsbkdkh1s2UYrIX5dbyOi8b6cQS6g1cyjI56lfVKJsKKlt1PmUdr44/Md0sNDsgNO5FbYdtvKtZ8WcyjuNzEKjJy2jnnCnD/73o2bj79m9cO6QjbhtCzTh2nwYVvl9dQR7/yszL/vuFrRfdMC9TZbnTk4GV7KujPIUkf1RBp/yWV6mp/8uA75SfeblMVCLGHR9yEazeawc8L7jh+2vfvhLQWI+gchFNXbXILp3HzEa8/OPjWz0+4bgumrZn/tpRL+JyScy6HqlxRgtqpiX4V9WrqPyLWaR+MEooTz+aaT+bp4RjVtkA/earNf7RSQ+H0e62YPAF53ARwMITmblltUqsxj7PATfmR64F/hgfen6qC/+th9jV9XcZhkwO7HV5oTtWTn5UOd9tcb93RhqS6Hv6ACiOhhKX4rAqC01OtfHMohd5n6b52EeOcs3QwUzS/PYFvPyLM3JANnc4/xVWQ835JPfCsjLelA3Vi2Zh7Kl2bg1Ln1DHsPrYYz9UERr14Dxeoy+vw/2JrM+GhqaMLBFBXv1tb45hP4dUQycrATi2UujGP0tiIGummuNxdJlbIbn2Dl0yvN04KQ+B+Xys38dRUheN3pe5jcwTySxRtiJn4jo0anXib/E6KC7UGf3e3Ni4qRPOG2q065DuA4PibjRqVh3EFYdeWW6c5e147fZidqcJx9GR+2aNOOh1rHmU0ozFWZDInDAYaTbdnmE/2y80gn+24BwqzLt8IjA+JwopIaES5aj0xhNzLItm1M4D1s7s8+XCYfEVCYuhg6qkcscwnM8JGZ+K81TnYdLZasZmclqwXoyxb+UeZb2R5bJp0YY0/Pq+m1GhI57zNGu5PKeoyOV/H5LipEuVS824Tw4IpK5jJg4ahO2lwNiIl2vPmvrvlLHc+MB4dllk2nmqGczYbkPB4fExKwq3cLHJndlRPS06TK8GRFzl4PCcSAgziXMEacKqRHRqUaTUvsqj0kuozra24T7jxOVTt3piOiRy5jl1mly7ZlwqUwQjrYeMRRb7OhJi9aHXqbWjZAIyXzjp81jpsoemrV0CX+g834BOVm+wy7jWNp29YhIWh4Pdd5+Ic/+8iYX3+9656ExkEBVmizzH93G6HtqfyLpgjECGnao0boKy8xDbU2+gj5U+ZReT1p6QgSN14hcdodL9Cx1Diu35OtK77txHqvX1iIrLb+M+vrwirU8U+WBOGjzedhO/A3qP3mCrLotW7bg66+/RkdHh04hIqL1UigU8PTTT0MGMHjxxRd1KhER0aM3OTkJr9eLu3fv6pSV4S1kRERERES0aTCAISIiIiKiTYMBDBERERERbRoMYIiIiIiIaNNgAENERERERJsGAxgiIiIiIto0GMAQEREREdGmwQCGiIiIiIg2jTX7Icv/4r/4L/D555/j1Vdf1SlERLRecrkcfv/73yMSieCf//mfdSoREdGj991336Gnpwf/8T/+R52yMmv6S/wtLS24cuWKTiEiovXyzDPP4F//9V/xj//4j/iXf/kXnUpERPTovfDCC8Z704P+Ev+aBTC7du3Cf//f//c4ePCgTiEiovWiPtX64x//iP/xf/wf8corr+hUIiKiR+9/+V/+F3z//ff4+eefdcrKrOk3MF9//TU6Ojp0ChERrZdCoYCnn34a09PTePHFF3UqERHRozc5OQmv1/vA38CwEz8REREREW0aDGCIiIiIiGjTYABDRERERESbBgMYIiJ6MPk0op/0ouONMLI6iR6B+3nMTo7iiLsb4Zs6jYjoMbb2AczNMLwNDWhY8DGIhF70cZA4tci+leri1Er2OIvw649fPRHROpoetFyXah4727Hv9V4MX0whf18vvyx5RD/sQO+7o4je0Un0SGQvDcD7bi/GfijqFCKix9vaBzDbfIgIgUy4UycEEZfTQmQQ6lLTA2iXb6KD08bMTc/1gXVfq2UvRzCunpyILT8YuRlD5IJ6MoDYY1JHRLTO2vrlNVcg+WGrnOjHxG/qGmw+Ct8Pw7dtFkOde+H8t/I6c9tcZWnN8JyeQeiknlwD+YvD/EZhGWyvjWDmq6Ceood2dRjDfL8l2tAe4S1kNvjOhFBq6g+cefxvQbC95DX396QbLiNlGba54TUCvSDcbUYKEdEDsT/vkP83YesWc1ppfN6FnjNTiI/7Yf9hEPveDiOt5z1aWUTPx/VzovVSROJSSP5PRBvZo+0Ds82BvfopLqQ3yJvmGtLfRokPlh2+SDLQ+0Z9Utq//KCHiGiFHK8NYei4TV6LAxviVqT0+QACxrfPROunOD2MwImUniKijerRBjA300jqp+hyQH02WH2vtur3UeoD0gDv+cp3NNnz3prlqlXPr3OLWm3fnNet3wBVtqke3vOJqunF8xpETCdXmbdfFQuXNYHBuunSapa/ZjvWelaq+/XIh7UPT7kc7KNDtLk1wv1qj/ybxdj0rJlkyCPx8RG071SvcztafMNI1LnNLPdLGH2e7XqZUaTyeoZWVPNfbYFdXS92dqDv/OyCn3Knv/Jin09d08bR/ZzarlffSrZIWawDCtyZRfi9DmyX29rukcvU9NFZrCzZ6TAGfS3yOllE6hOvzKMdg39fqKSyPGqb5fLI/S5ty1Ke9PUo+tx22P8wrq/TS9Wpdb7cB9cRjF6tKYNlH+1uef3N6fSyZeRhUXkfKtW19dpfqf/05Ch6PUfkdBGz5/vMfZd1OCzrq+x2AsNvtBtla2jYjvY3LPWyIJnfxUF077Yb29zu6UP0ujlneWVTdJkseYR/qZSrcmzlnvw4bG7L3oIjF8yPT/M/DKLjtQHjvWzAZeZvvl9W52vfLc+ZS4/9R65EG5v6Jf618Mwzz4jvvvtOTwmRCXeqX/yXj6CImyki1KWm1aNThG4YiYbKsp2is0vOCwfN6ZN6TT2/M5xRUzqfUr6W9Y3l4yJYu40bIdFppOl1aqcNpfUq687fB6m8bil/63rW/OSck/PTlyxrQu+7fAQTOm01y19eTqfp7Zl1W5kub1tN6+OgVPbJsgwRPXJ37941XpfT09M6pXQNsL7+a5SuJV0heWVVcmLieL+YuFEwpkQhJ6Y+aBVoC4qkTjKuATt8YuiyvmZkJkR/m0w7cE7MmSlCpIaE/9OkyN0zJwuz5+R2bML3jV6nHuPaY7kWLloWNc8pHKrs+3vE0LjeVm5CBGwQrWeS5jrKYmW5MiRcu2xGvQXOxkUyNydChxzCH82ZC1eR23zHITyn43pbU6J/D4Tt6ISckxGRo7o8XUERScyJnNwfV9uImFlGnc6cdcn9kMuqfO+pMsgy7RkSlb1IiqE2WebPVG7SraQIHZV5WOpr6TzmK0T9NXUuxNwX6pwx03LRgHDukPsEt+g5ExHJW2oJtT/WvGfEiDz+7rMzxpRIh4Sv9hjUkTzrFq6jETGn6kCW95x6X2+rlHepsinJM34xktLH6l5BzKj5Np+IqPmpEeHRx9Z3PCSmdP3PfOqRaX4xUTrE+jVgfT/LyW3bysvk5Dkv69a6DhGtWDQaFU1NTXpq5R5BAFPzKL9RVliXNS8iZpBiNqrnN/JLjWhz2UrDvXQBMufPX77SEK8EU+WGuyWfUlq9AKCcZtmPessp89OXLmslOKldRj5Ws/ylvGobMDqAWbDRUzd4IqJHbVUCGNnYbzVe37UPmwheMdYwr0e113FjvdIysoF7tHZ9/TgUqV7PqjaAeaCy6GvjB6U9XkZZdB30jC/ROlXlsVXX5dy4X7heC5UDN6M8tUHDMvZDBR+2P00JHc/MO27GtDVAlAp/C8hlKvW1VB51zQsaS+tZ0hZcpl/nrQIYm+iPlbdsHgPLB1/z3IqInpo8C7KePDtknqVsliqbDFb9detVBiylQFkf29J7qaGUb1pP11nGCGCs9V2nLES0Mg8bwDyCW8hKo5Dpxzc+2PSc+Trh2Kb+mv1AIgflktMxDBjzSrcWNKD9hJGAZDprmV+hRgYTIgKfkVcCMb18PeO/ruRr4SxiF41xxR7MkmWtZ43Kf6LdqMuG57rNkdJKfZLaeqpGi5s3BHSpXw/76BBtftdnjNe/rdVpXJez15JIdYUgm3+Va7bxyKD/BWON+n7fCre8vsyoa7K8kqQuyit/ojYP+fiyc5Hrf7UHLovyS1rfurX8sjjszfpZfdnZOFK7bdXrvDaC+LjPvB26ZKcddv1UWc5+ON+JI/OhG8Vfohh7rxvuY9b3mSzik3La1VK1ncbfbdXPTIvnsRZmkTZu5XLCn8gg+FIRs5Nj6PO5l+7L9OssxuTe2J7V01LjngAmrgXhatQJS/k1hUht+0I/Ql1LnWXjME7VBTQfGEEm2gP7zQTCH/ei41DtOzcRrbdH2wdmSXt1AFNf7ZuQEeDQg5n3hloKSMzgMVMaGloFOlX9bYjo8VBE7Nsx+bcVfQfUcMvS/SJwIY7kSn/npVg0+pQ47OqaLJ/JC0YsZe1X8wAetCxVVqksJd9HkSj3v1im5eyH6kPyegu8Z9KwvzGKidP6+qvJ6l3aEnmsJdW/xNvqxfCvdvScncCw8SHYUmJILNJHZ0n31aGNIfmLnl5Nqr/RsX3YeywGvBRA5LOgnkFEj8oGD2Dq2OYoD71sfONSyzJ/4Pt63cpdcM/73YI00voTos4dVZ+dLcEGx2799EEsWdZ61qj8S4wCZzsYkUGN/u2eCxHESm/a7MRP9FhIn+9B98dZ2A4NoHuPmWZztstwZhQ9vkH5mq80LovfD2L0qp6oo5iKI2Lzo32XmnKi9ahsnr7dg97z1h/LTGPsoyhq+vov6EHLUm11yqLYHHvlFXQcgffHkLJ0wM+eH7R0Kp9v6f2Yxegr7Yi+HMHUZ354ft+MpqeMRbRm2J6Xf8bjqDtWlrFPS+WxhBX9oGmNn0fheSkK94UpnHvHA+ezTXrGIoz3whQG/hhE1Fon04Pzf49lobL9vhV+GcD0Hu5F+KrlSP46hsFLKzmytfKIvu9G9/0Akt/0w9fmQOMydomI1tYjCGCS+mvm5aiz7DYf+nQDftznr7xRyAudMVqIZb76tqA84lZpvuQ6rH9/5id9W0F5NLQg+up8izP/tqxKucp5lRv1CYz5Sl/VD6Dd8m1F+tear/CXUVZVttov/tek/Kqs5dvDsgif0uVWo6eV021wv6aWrnwzlvirvuVMrs8f2iTa2DLX1bWggJzl0//idXnNOrYP7b4wmrpGEP3UcivVnm4MHLIZv/S+77km8zZT+Wg60Yh2HeQ0N7uAyyGM/aCvdNkogu+H0XE2AI9xF1Yz3G8E4ZLXxlHfXmz9BzOPhoZ2pHa1y7kLaGyUDf20cWtP8ccxjG9ZqixF5G7JP/kcKgNyFVBQDd778q8xvYyyyGUVY73FtPkwrMrz1RHs/a/MfOy7W9B+0QG3vj4WVFYyHzNHbck6LSJ/HchlMmZAdTuFWCIjn+RQkM9TvzTC7RuC62of/O9HkVXt/ftpRL9R41/KgOqVFmNEsMXzUIl1PO+ET+YR+cF8z8j/PI4xY7StcQx0HcG4zLOYU/nkq86hgo45jDor5uVRyyGTMYOG/NUY4jfkk98KyP89JUOrOrZ1yvdCeR7J95uOUp3sbMHeP6J8ni1ZtrwbPR+qPEbR3bq1XK8NL6XQ6tJn2Z2cUR+ZXCVIMg9S+Q+wpdm45S99Q55418PyvP4Pcpfk82wGGWP/skj8oH6fKI/CnTRSf3+Y4IiIHphYI+VO/OVO3jWP2k6fJUbnOOuy9TvKlTuylx41HQSXmj+vXPU6flrmB0/WlMu6fFWZgyJU2+lRqd0vy/oLl7XSEd98WPJczfLPO0aW7chyV69bs1/lddmJn2gjqerEP++6annscAn3YXndSlSuIFXuzYmJkz7htKnlHcJ1eEjEjdGnSgpiZjwofMYITzbhfCUgQj/N7wCfu3JO+A84jG3adnlEIDxT7mBe35yIHJbL29wi8K3uPr1gWWqveep6VHv9rFyjFiyLpZ5su5yipzwoygJ+mxGh4x5ztDGbU3iOjtQpj0M4d9VcH5eo07lvA8Kt5u2QZRufMzq0u+RynWeT5TrLXRkRPW1qH2SdvxkRc5eDwnEgIM7J46iWWU4e86mRu3qMctl2qZHlcmIuLMt5MCgiqZzuNF/aL7Oje+37VzAh9+2PbiGDYKM8kXRBJM+4ZDk6xUhqsSOeE/HT1jqR25y1Lr942Uw5kfzCLzzGSGn6XCzlUfMaUIPb1O6POeBNQcQ/VOWv1FUhNSI6VZ7yGPtkWi4zIfw2m3D/caJqIAUiWr6H7cTfoP6TL9xVt2XLFnz99dfo6OjQKUREtF4KhQKefvppyAAGL774ok4lIiJ69CYnJ+H1enH37l2dsjKbrw8MERERERE9sRjAEBERERHRpsEAhoiIiIiINg0GMEREREREtGkwgCEiIiIiok2DAQwREREREW0aDGCIiIiIiGjTYABDRERERESbBgMYIiJ6KMWbCYRPdaPlD2FkddqTLP9LFKNvd2D7qYROWTv5yV5st+/D6M86YYNKfbIP9p19iOZ1AhHRQ2AAQ0T0uLsZhrehAQ0LPLa79mHfG30Ym0xjxe3LYhaZO0DmchizRZ32JLudRQ4ZxP4SRVonERHR6mIAQ0T0uNvmQ0QIzH3RaU6fjEPIafNRQPKvAXQ+lcKAZzuc7j5Er5uLLUujDY7fu9D+kp5+0j2r6qMFe/XkWms+MIK5zBT8u3TCBtX6zhQy14bgadYJREQPgQEMEdETwuGs16xuRPPvPfB/NoX4lz7gh2F0HBxE4o6eTUREtMEwgCEiIoPj0CjGjtqA6QEEL/AGKCIi2pgYwBARkdYMzx96IUMYRM+OI2UmGoq/jGPQ1wK76jezsx1HPk7U7y9zZxbh9zqwXS5n392N4R/nL5X/cRS9nu1G/xv77g70nZ+F2X2miOzVcbMD/OthpK9H0ee2w+5e+Buh4i9h9Om8tru86H1rAOM39UxtNbenLJzfCtyeRfSvfeiWdRS+WcTs+T507JR1a29B9yepSt3K5WLnB+VydgxOF5H6xCvrdjuOqACzKg+9vCxJaRABc1CFPBIfd6PFro6bF6NXzZLmfxw28myQeXW8N7+/zqoeIzXIw8e9cv/kMuW0FMY/qaSlL1b239i3GtkfhnHEZZan9nHkYt6Snxfh62lEj+2D3b7PqDODPC/H1UATqh7kPre/MYzEbXOW4XYCw/r8tu/ehyNvH8HotJ5Xko2Z+21sV+UxiPFfVnzkiWgVMIAhIqKK551wq79Xk0jrIcWK04Po+DAHz9kZZIRA5qwbM++1w/NRqrrhfn8GYydHkXMFMBIOor0og4uXnOi9VAli0ue74Y06MDA+ByFyiL3bjJDPjZ4LcmN3ZG62RtmYlQ3q+3GMfZXB3v17gR/imKk3vFkxhuDLEThOJ43+PHOX+uC4WR1MrOr2pEXzW4HiU1vRmI4h/HMRM18NYKzoRuDsOQScOYTf3QvPn1X4KIMR2LE1H5fLZZEOjyL2rAeetjQmUv8f/H/lPPudlJFH2X35aFYBQRSzd+Ryf4kg98ow4okJ9D87jt4DcltfDWLslhvBy3HEz7qQ/LgDw2t1jOQ+FJ9yoPHGKKK/6iRlix24ptIyiH81ioTdj9CVOUwcasTY670Ysyybv9SLVrc8zh+bx7lwLQSfirLbhpCU0+dea5TbsMttRIxtxD8LI/NPbuxFDPHZjCxzAoOvBmU9jGImIyAyI3DP9qH9lUGkjKpLY+wPfmQOxszz+8o5eJCsDtCvh9HdOoDMK2OYk8uIWxH03B+B1+muBElEtH7kxWBNPPPMM+K7777TU0REtJ7u3r0r1CV+enpap0iJoJGGk3GdUE9cBNUy6BShG2p6Tpw74BbnrhkztYyIHFLL+MVEzkyJn5TT+0fEjDlpykSE36bSz8lcpMKU6LcFxFTBmKslRVAts2dIPlMyItRVJ696boREpyrDb3paSUXEhFFuabW3t6z8FF2Hi9az3HK4U9ahW4z8pBOU3+Kif49cF5bt6OPmj1Zt2JD71m85ViV6n14LmfWuZb7xGcueS+sEg9yezNv2oS79ateZljzTKrcdlFurMPe/5vhdCQoZm4hgQk+XzrWafTHzq97vcn3O6gRt7guPcH9mXbtUF7JOv1UnsDpeNevdioiIpQxqf21/mhJV1fLblAioemlbfj0QkSkajYqmpiY9tXL8BoaIiCqyGcwYTxrR+JSaTiE2GcMRdXtP+bYdO7xfqWUiSFk/VW/eiq36qcHWie435d/vY0ipT+d/TmAsO4x9Tda89mJAzbN842OozauebW50H46i59U+jE3rlfd0wrPNfLrq21tJfsvWjK3Wkbm2uNDztvoOLIREzW+72Lc26mcVzf+VXT+rQx6/Jv1UsT3XYvxtUsfVQi2Tva+/RVjtOtPsNod+VsuOrVv0U0Uu166fmuR5qOanM1XfiJj56XO0iqxPa37IIvVDFLG3qm8/s78eNuZGfla3q7XCc1qGV694MVwaSvzZTnS2qSfSzRgiF4D23S1yixZb3PCq83t6HHHr64CI1hwDGCIiqrg+i5j6u9+NVnWbjmzYFtGJ0I3SsMvWRwb9L6iFF+ZwqqGbZR7q1ib5yCKI+Lx81COETrW9FbGh84sk4sftiL3ZCqPPzQ+WFvZqb2/Vy19f0xYV0cj9UHW23tZpH5evGZ73Iui5M4Shr9Lm7YH5WUQujsN2vAeeZZSnKFfqDGfq7I9A5k+tcolGtB6fQuorDzKf7MPWnWafn3LAdDONcf20lnl+x5C19qchojXHAIaIiLQ8ol+OqKYzOg93oPKZ+TjiP9W5z//XcYwv8QvwmWxaxhl74Sx9KyIbe8lf9FOL4g/jiD7Q0M3NcBwIIPRTGqnTDkR9rdj3iXX4gdXe3mrnt5BOOMp1tt7Wax+X6flO9J/wyu33okV9g/JPPUj9Uxyzp93V34gsYjyRNIOfKjIwuTirn8vTtK0HQ9E55C50In+iBXvfjepvY2xGv7Dx1EydPBQfnM/rp0S0LhjAEBGRIf2VHz1/ycJ2KIShg/qj7W1OtO8BRk/2YbzqBy5lsHM+DceiP6CYRvL7FFzveaA+58bvW+GXjePge8NIWe8Huj+LsR+B9qpbf5bh5jjGvi81KRthOxDEuZMtiF2eNYKwVd/eaudXVxEzP8WBAx64lhPA3C/oJ6tkjfax8BDfJhX/Pojua92IfDFhdqC/Fse54y41VsEy2OB0ybPvkyD6LlaPbpafDCPtcMpnCYx9XpnXvKcHI58GkJaBsBHe7HDDd0D+/WocsapvWuSxSo0Dh71wr/s3U0RPNgYwRERPiPRsUj+z0sPuvrUP7X8Io6lrBNFPfZZvX2SD9i9BuKZH4XVsR8fbAxj+eABH3F6k9vvNwKTk8hhGLs4irxqr97OIvt+NgWdDCP1RL9XsQSDsAy71Ya+zBd2ykTz8cR+8rUFsPdRpNkjzM5i5Jv9ek3+tDei6ioi+3Yuxq3nzk/H7aSQuz8C2w2bmtdrbW05+Sj6HjPqbSGJ2yYb7uGwsR5E1dqCI7GQQA39twciHPeVjUDpuydn5wwvPptQgxHEkf7IU/n4GabVPshw5y/Znr6ibA2uWzcpl1d9bOfPbhlU/RkpeblvdhCW3Xf5mRzX+ZaCmvu2xfIuX/ykpl5JLpirfjKQmB5D4vAf7Xu/FwMeqPOZj9HwM6fL285gx6icty1ZdqNY3RxFsS2C0czu2e8w8BuT57v27G34ZnCvZE0cwMJk2b3WUeaWmVRBpM4YUhzwS3SflayA7ip5jY0jpICb/g8znKx9CJyzHnojWh1gjHIWMiOjRqRqFzBitC8Z0vYejzS06jw6JUCKj154v91NIBF5xGiNE2Xb5xNBlPfxYyb2MmDrrF51tDiNP2y6PCIRnRM1ShkxsSPTo5RwHAiI0q8d2Ko2SZnlURqOq40ZE9LzsFu5dNnN5m1P4Tk+JzD09X1u17WkL5qfMq+vaEcIqSqNmBT4MCM8OtaxNOF+x5qdH+7Lm1xWSqfXndYblnLrbr5PPybjevjW9MkrY6tVZaVQ76/L1y26MZGdJK4/ilpbHuc0l3C+b51/VMja/mLg1fxvzRoDLzYjQcY9wqlHDjPMkbjk342JIvgbcen9lwCI8x0NipubkLcxGRPCgLoPMw3N0REwt/JIhokU87ChkDeo/+YJddVu2bMHXX3+Njo4OnUJEROulUCjg6aefhgxg8OKLL+pU2kiy572w+4DQjQh8j6y/y8aXPj+IhKsfvtp+JsU8Un/tQbQ1gv7SiGFEtClMTk7C6/Xi7t27OmVleAsZERERbUhG/5cLDrjqdZJvbEZzcztad+hpInpiMIAhIiJad6U+G3nkltWP5MlUvJVB+mIAR94axfjVNPL5vPm4nsL4x70IP9sDz7N6YSJ6YjCAISIiWlcJDDZsxb5TarjnGHp3N6DhlOqMT7WaD4wglRiG+/44Bg5sx9atW+F8yYu+T5NoPjSC/v3sPk/0JGIfGCKixxD7wBAR0Ub1sH1g1iyA+Tf/5t/g2LFj6Orq0ilERLRe1G02Bw4cwP/8P//P+Lf/9t/qVCIiokcvEolgaGgI//v//r/rlJVZ029gWlpacOXKFZ1CRETr5ZlnnsG//uu/4h//8R/xL//yLzqViIjo0XvhhReM96YN9w3Mc889h97eXn4DQ0T0CKhvYP6H/+F/QH9/P7+BISKiDeXf/bt/h08++QQ3btzQKSvDPjBERI8h9oEhIqKNir8DQ0RERERETwwGMEREREREtGkwgCEiIiIiok2DAQwRET3h8khPjqLXcwThmzppU8ojemw7th+LymdPltm/7MN29yhm9fQTKZtA+FQ3Wj568B9FZT3SZrH2AczNMLwNDWhY6vF6GFm5ePa8d17aik0Pmuvzl41rqF9/1nUrH4PTOpmIaI3lf4nJxtURtL/xgNf1lSi9Byz6GJRXRFPx+yHse7cXo5M5nUK02aQx9nY3AifCmL2vk4geY2sfwGzzISIEMuFOnQAEEwJq8LPSwzrPdnAUoYcceTnx/YD55ESs/AZFigv9iaB+TkS0TqaH4Xl3EMFPx5C4o9PWUlu/8d6S/LBVTgQRt7zfGI9bUwi2mYsqjfuDmPvqcbg2NsNzZg5zZzzy2ZPFeXQKczE/nHp6SVeHMfxYfYjnQM94HMMP2X5acT0iheE/s6VF629D3EJmOxhB/DU9ARscu/XTB+SSb0aGk27ZZKcq2xyohItEROugLYD436Yw9raeXif25x36WY1n3eh5F0hv6tvF6MEVkbgUkv/TwypORxFajw8liGo84gAmgfB582YC10GfDF1Wif70TXzA8IWIiKyyCJ8KAwf74dumk+iJUpweRuBESk/RA7uTwPAfB8CapEfhkQYwiVPtiOjni5nfL2bhvhyL96GpXs96D3Q9tXklrNP1+tfU9vep2X7ilGWeWr+8vNfoOFq1PVW2qvzMsi7VR6g6D/lYZj+gUtm8OqAkInos3Ywjfk0/X4HKtdW8XiuVa3olTfVFiL7Xge0Nduz7KIH8DwP6Pcry/lO6Lluv8ZZrdfGXMPpebYFdpdtb0PFeVOaq5WX+n/Si440w0tej6HPbYf/DuPlesFAn7mwMw2+0yzKV8gtjdolPzYtXR9G9246GnUcQvp5G+ET1+01VGXd2oO/87MLfaCxWZrnW7Pk+dKhtyby2e/oQ/qU6J+u21Pzx63pGiSX/ShnrH4f8D4PoeG3AeD8dcJl1r9Kz02EM+lrk8yJSn3jleu0Y/LtZjkWPx4LySHx8BO071TbsaPENI3G7NMtS3juzCBvlVPsml1n0uCxdV0urXy+GFdQj8jEMvtqJAfX8RHvNOfwA+/76KFJy34269myX622vU8/WfOU6riMYvcrv0Z5YYo0888wz4rvvvtNTQmTCneoX/+c9OsMZvURF/KSe3xUS5tyMCHXVpN0IiU6dRzBhLFQ2f30lLoLG8p0idKPedH3lvOTDKOtC2y2nB2XOdaYN1v3oFJ2yfCGdfykv6/bM8pfKaT4WK4O5bu3+1dRxvXUtadV1RkSb1d27d43X9PT0tE559Ixr1DpeYxZ636lbhkRQzlv8/aAQ9c9bZu4LtY1KWm68R7jPJkVBTdyaEsE263V6Rozsl9s/WXlXEPemRL8qUyktNyH8Ngj/tzlz8nJQuOR8czojIkedwmHsQ1BEEnMiJ8vtahuROSfFyAGnsFnzUtIh4bN1ipGUmV/hxoTol2VC25BcYyFJMbTHLyK31POCmPvSJ2zWOksNCf+nSZG7Z04WZs/J9xCb8H1T78guVma5pTP+ctnEvYKYUfVp84lIqY5vRGT5W0X/36rrwziOO9Q+5MTE8VL+lTIuehz0e155+sqQcO2yGXkGzsZFMjcnQoccwh+V21z0eCxElalfTNwwti4rKCemPmiVdR4USfm8XN79PWJoXNej3E5Abqf1zCJHZam6kntvtDGsx7/GwvXyAPVYd3vL3feAOBedMfc9rc4fCM+bQ+LcZXPLBXlM3PKc6o/pfKSZsy65njxv1Dr31DGSx2zPYucxbWTRaFQ0NTXpqZV7JN/AyJPfuMVLvpkt08P3i8meH4LRtb/LC7dx24ALbmP74+j+a82nVfV0hTB6cOGb3BJ/7ZY5SaV+N9vc8Bqd6QYwVO9bjQt70feND77DIXTKf455tzIEEZfz5Z7DUeqUdzKOSE0ZkunavJe5P1bbfOjTx6LzNXnJMJ8SET0Gajrxp889cD/Axq12/ayiqVE/0dK/TCB3I4O8GgnqWTcCJwPmDMNWbK3tXf9UE5r00woPWp3mgs3/7EaH/Ju5oz5ptqHz0xmE1PX6WiMcbQ40t/UjnlCdrlvhj8ZqOnEXEfssgPAhP3r2mPk1bvNg4M9BtE73YfTiAoMtZ9NIXs0gk1Xz5XYOBRF83pylPgWPfibXfXsvtv6D+Ul4k/OIfOfJInwpXvUtjWmRMuejGDs2it7WreYn+P/QhJY35DtpNoxIwswpezmEcNaLjv2l+vBj4Kh8Bz+ThLgWkHvdDM9pnb/F4sehxgsBxCeHjfMiv03WZLMDvi/nMHKgdLAWOh4LuDqGgY8H0fFck7lfTVux71QKmB5B9GdLeZvd6H5N7sFT6vle7H0JSOUWyHcZdbUcC9fLKtSjsux934uOA05z35/vMNpL0efa0fPPZguk8YV2uOXZNGucgxW2F5xwqHWecsB9oF1ur8i+TE+oR3oLmeuDOLz6+drKInbRCC/q+yld56K7EgnETuindYz/WufL5i4ZmKi/xihtkVW5F9v1gX6DPpyGt6HdDNiWqbRubYBERPRYUY2lh/xAbDHO/b1o/LgDdmc7jpwKI7V7CP2WEc+W1OzBSGYCPduySJwfRq+nu/61fKcd88OpWikkPpLvbr9rkmFIRWObWzbJgbGfF/i1D1s7vIfi6N3tRMuranhpwHu61E81jdTFygeRVY8vOxf/AKy2zL+mEKk3Spx8hLp0Q3aLWiOHQrmV2gwVRyYSs4u+bz/ocXDYS0GLttzjYZG9lkSqK4TMvP3KoP8FvdBCflmgPbKMulqOldbLSpd/qH1fgvOdODIfulH8RQZz73XDfWyRdh099h5xJ34XfE9qg3m3Yw2+6cgi/HoDGp5Lo0/E5aWOiIiq2eD7YBUHjanR+EI/4pkpjOzfitiJbrTb241+Fctn9nPY909+xNCOwDfnHv5afk//tVDf+tieqvn6qMyGzi9nMTPei9Z0RDbat8P5h7DujyD3RbawY6lV+KnD+8bHi0j+oqfraN7fg6GXQxj966z545zZKCKy3epyORc9hg9/HEoe4Hjcl9u5EEdyNUfnWkZdLcdK62XF9bgW+15yO4Hh11vgPZOG/Y1RTJx+0O9S6XHwiAOY9WKD+7XaEz2L9E/66UMHE6Xb0azSSF8wn3XuML5rWWMqeLGjW23zAYaPZid+Inqy5BH9qNQoXyF1O80CsueHMf6UG/5PJzCXm0HoaBEDZ0od1rU6AUVJfrIPbl8RgUQE/QddcGyZf4PZ8jnRelT++XwCMWubs1hATr7r9bQt9GsfsqH4cRrO1/oR+imDTCyIvV91I2x09jbzjL3dg97zKfPWIkMaYx9FzSBjuX7fChUW9B7uRfiqZc1fxzB4SU83ymVO9mLrlQHsVbckvRRE3hdH9I/qN34WtqzjsAwPcjxszna0YhQ9vkHEblYqvvj9IEav6omVWk5dLcNK62Wly6/JvhtmMfpKO6IvRzD1mR+e3zejSd1KRk+sDRjAWAKLRWQvR8w+J9L8fiDz2Q72mZ+aXJCBhZFSCjA6ETq8jOZ+eb0K63ZdRl8WqXQ72s00kuqv3GpfvW+ZHvq2tVqVgMlQ3n4NmT7vS9ebYQzpW+DGL8ZWuVxERKZCQf6XzyE3LwAoInFiO+zuUdlMWT2Z6+qqrTZao5hF9H0PRm2yQVpKymXk/3nkFmsLPu+ET15BIz+Y7wb5n8cxdkk9H8dA1xE9OlYc/mNjSKlRl5odcDq3wrbDpn9Y0gZnq3w/uCQDCrWd+1kkPg/JZqn0aQ/aP06geCcnr8EyaDBGbSoi+2NM5ii3JdPTf5cBg3xu1KOsw/l7JutWLZDO6ECiGZ5jqs/PIAZORpE12pN5zP51FKFDw+h5eaFvYOSW3/NjYDKrvm+BbbdT1pMHtmfVnGa43wjCJYOcUV+lH0xDQztSu9r1fs5Xt8zNbvR8KN9/p0fRXerbYQQpKbS6dE63o+j70omhLyKYU7ciXYvj3HFXzXaKyN2Sf67JejMTpEWOw5Zm41a29A35bnc9jLEf5F7eN0tWqDk3l3M85tnTjYFDNmQvDWBfqS+IfDSdaET7HrWALq96LahJQ8HctizH/OMqLaeuSsf/Vq5+uQyLnZ8rrEc0olmdE/J8y95PI/zXGIoPtO+VcpdDHlm/xitSLmcqIi9fX7mMPrdvpxBLqCVyKMjnqYf8Zoo2IbFGyqOQWUe4qnpYR+eqmDdqTHl0i5rRuE4GLflWjwpTHslr3kgz1XksVIaS+WUJ1qxfM2JN7b7WbL9qhLE68+dtT84P1azTGQ7VlKEyIkhV/l2yrKURz8rL1O5/pfyldeuNCkdEm8+GGoWszvtAZSQjpSCSH7qE7WVzZKqHZowoVr29+Y/K9a/22ltdNis18lOPcNogbLt8YuhyTsyFfcJ5MCgienSojLxGT2XiYuigGhHMITzHQ2LmN2OWSY3kdMAht1OaJ6/LOzzCf3ZKZNSAS78lxUiXmm+T+Y6IZC4jJo7aZN0ExETaMpKlXN+5y/oeVnN9t7y/FGZDIvCKHqFsh0v0nJbb0iOI1RcXoS9nxEw4IDw7KvtqlbtyTviN/VDzPSIQnjFHqppnsTIrOZH8wm9sx9jnVwIiNFvJKfONT69b/bDt6hGha2o5a/7qYea/+HEoiPiHbiO9U42wZTlfbLucosf6Prjo8dDL1HNvTkyclOeGPFfUfrsOD4m4MapbvfIut22yWF0tfPytFq6XB6lHWZOy7txyHx1dsm5K6Q+z76rctdcL3Q6c+zZgbAvy9RIYnxOF1JBwlY6hsQRtJg87ClmD+k+eIKtuy5Yt+Prrr9HRocbrWF/qdqh29Y2C6khmjORFRPRkKRQKePrppyEDGLz44os6lWiTuR3DwCv7zN8eqXUogsxSAwcQ0YY0OTkJr9eLu3fv6pSVeYz6wJg/Eqb6cDh2yNidiIiINrXir7Owf1KoGdFKPgozOPdS84K3rBHR4+3x7sS/JiN9ERER0ZrLR9H3WgiZG2lkraNaFfOYvZrG3gPuquGhiejJ8RgFMC70hDsx7rPD7hs3bx/7YKVjcREREdGG0OzBQLgb+fM9aP+d2RncvnsfjnwSR+PvPWhdhd9PI6LN6bH6BsZ2MFL5epl9X4iIiDY128t+jHwTN0cgk4/MT1M4d9wDB+8dI3qiPd63kBERERER0WOFAQwREREREW0aDGCIiIiIiGjTYABDRES06eSRnhxFr+cIwjd10qOgRgrbuR19kwv/9js9qfKIHtuO7cei5q/nE60iBjBERLSm8j8O44hrux5FqgN952dR1PPWxPSgsa15j53t8L49ilhWL7eJFb8fwr53ezE6mdMpROvgZhjeBju6z6d1AtGjwQCGiIjWTPHvwwhec2Po8hyEyCH2bjNCPjd61rIB1NZvjFiV/LBVTvQjrkewyl3ohT3Vi32t3QhfNxfdrBr3BzH3VVBPPULNHgxdm8PQAQ4Ltr5SGP5zQj9fP/krMWROjmPsoEOnVOQvDtd8G9gMz5k5zJ3xPFY/ODp/P+lRYABDRERrJI94ph3Bw61ofkpNN8P55hjG3skifHpcNsHWlv151chqMiek5j0+DJ3wA9kwAl+tf+OPaLUUp6MIWX/cc13I1/NNN0IfuOr8gGgW0fNx/fxx9qTs58bHAIaIiNZIM9yv1DZ2GrHX1SnbAWt6E9mCGne3Q24d2Z/SsilCtAndSWD4jwNr/gHAfM3wvOPD/O9egPT5AAIX9MRj7EnZz82AAQwREa2rwp08bIddcOrpdXUzDePz0+dtldta8rMIv9eBFrvqK7Md7W8MI3Fbz1OyCYRPdaPlowSKV0fh3dmA9o9SC/TjSSMq89reYMc+uXz+hwEMTutZym3Z+HyjXc6X27K3oPtjuYyetbLt1Ff8JYy+V1tg1/l3vBeVJVpYdjqMQV+LLGMRqU/ktlUd7Kzpp7RIuSrrm4siL/f/k150vBFG9o5Zr2pft78+itQdXT6P6g+1vW7ZqspvLYcl3/T1KPrcdtj/MK6D0DwSHx9BuyyX6uu03XUEo1cXrrXEKXM58+Et3w6UPe+dl7ZgeRSjP4g1r9LDjt4FBzVYpKyWvlul+qyUSaflYxh8tRMD6vmJdnPeqdK3iXnMnu9Dx267ka7yHv7RUg7LcTTOQ3nc7Oo8PWYeB9VXrVutq87LT2rOO+t5a7xGzOOppL/yYp9PHm+Mo/s5NV/Xn3V7FsVfxo1zplynl6xnweLH0nq+Vcq7T+eh1jXPYfvu7jrngDVvO1p8ltf5QuetRy6z1H5Ki54ntDbEGnnmmWfEd999p6eIiGg93b17V6hL/PT0tE7ZKObEuQOdIpTWk2soE+6UddAvpu6Z04UbE6K/DTLNJYZSZpr4LS6Cba0i8G1GFNT0raQ4d8gmYPOLiVsqISmG2pzCJusSx0dEPJUTc2GfcLwzIXJqdo3ceI9wn03qvKZk3hDBhDFLTk+IwJ8mRMaYKcsj5/fvgXB9qJZf2XYMiaDcF1mXN/R0bkL4bRD+b801cpeDwiXzK03PkxoRnl1yX+UyvpMTImnsb0HMfemT5bCJwN9UQRcpl2V9cx9zYuK4UzjUsvsD4lx0RuRU3afPiU6Z5nlzSJy7nFELisKVIeGW2+iP6cpQUkPC/2nSXEcqzKr1bML3zf8qIkd1vl1BEUnMiZzcd1fbiJiRy82cdcntyedqvXtzIqSO354hWfJF6DL1X9bT2tw3IZHU21+4POY+iBshEfxiznyuGOcShO3owsdsybLOjsh6sZwzSqzfUsdKRoS6ZF2cjOtppSDiJ12i9bg+v+7lRPIz8ziaxz8pRg7o43goKCYS5vmek3m3qn360zkR+UmfN9/0yO15xLlrxqQ0I0bkfrnPqtqW0iHhk+dZ6xlLDdeei9btWcspzxl3m19ErpnHfe4L9RqtvB4XrZ+a8zV+w9gDMfVBq3y9+kT/ZxExY+xCTkTelNs9cE5ebUrUudkvJox1pIJery0okvJ55bztEUPj+pjL11Ngyf2UljpPqK5oNCqampr01MoxgCEiegxt1ACm8Ld+0RO2NPrWkBnAeETnYbdwyoYIZKPC+UpAhHRDTZn7wiMbLdaGjiQbpqpx23q61HDRDcbDkQUbpiXJD21mI7LUmPlboNzwTJ6RDSbVSKp92GQjylhi+dsx1A1grA1P2aCW+XeGF2lIycao2teqBrMRZMpylBvii5RL15V1/fhJuWxXSK5VUq/BXVs22Yg8KpdR9VH7OBQx8jLyrROYqEav7U9TZtAomcc9KLewmIKY+pNNeKwBiNzviWhpeunyVNONbdkgjv+mk+pYsqx16tM8zksEMNfOCQ/clmOv6OXKdbac4yDNK4MKYKzBZp186jXs5y0nA4vDNdv6TQbIBxwykDTzfvD6qd72vPVkkNEq15t3LOU1IXjFXGTB8/aDxfZzpecJlTxsAMNbyIiIaH1cD2Pg7x0YqTOC0dppR98XU5jJqA/sMpj5dgi+XaWbx7JITEaB5iZLV39pmwve14DUldnqfjIO+5KjKTn396Lx4w7Yne04ciqM1O4h9LepOVmkUynIxpsxIlrVI9MPNV5a2TK2U1ezByOZCfRsk/t1fhi9nm4M6FkLMgZXqOXA3v2yRBdT1bd4PWi5liWN1EXZ5EzU1I16fNkJm14KO+2w66clznfiyHzoRvGXKMbe64b72Lies5hGtO/vQfL9McT0vT7F6RQa/6l0bi6zPIYiEqe60f29G6Hz/XBt0cl1PFhZl5a9EkVUHp2mqg5nNrhekc39q3HMPtSoWU74ExkEXypidnIMfT73A/YDmcXsX+Vp9KzlLNrSikB0DsF/Ngu+ZvVzLYlUVwgyoKg5nhn0v6AXWsgvi/WXW8l5QquJAQwREa29OwkMngX8f6o3gtEjdh8o6KcmGc6ohn3jykva+EI/4pkpjOzfitiJbrTb243+JUpR/hlPJNfw3njZwDzfh33/5EdMBm6Bb87hQQdabt6yFXA51jBgqSVrRbYSY6lZPb0Cqn/G6y3wnknD/sYoJk7LRvsyNL7sRZ9tEGGjv0oe0SvA3mfNeSspT/ZCDzpPyEbsxTH4nteJC3nAsi6bPJetmowAtRGNdQPV5VP9TbytXgz/akfP2QkMd+kZDyAmA8UFXwNrVT/35RYvxJFc9ZHbHuK8pYfCAIaIiNaWGjXpZBq+05YRjLJRDP51/cdRqmaD06W+aQgh9qtOMhRQkG1az8utK/4ENXt+GONPueH/dAJzuRmEjhYxcEZ1Ntfb+qQH3o9ilkHYioidGl2VEaXyk31w+4oIJCLoP+iCY0vV90qLyv1mbVLmkUrE0Opy1h1xam040XpUNgTf7kHv+RTy5YZ4GmMfLfZL7rMYfaUd0ZcjmPrMD8/vm3WjfTla0fmuB2Onx5D6NYrMLuvvlSyzPNfDCLwbRvuXIfS3LRXwLr+shZpAZCk2Z7vcm3GEfqgeFkENmIEDbrQ+zFcBP4/C81IU7gtTOPeOB85nl39eVXPAIQOf1IkAgpPZShBTTGDQ+E2bhzmWizPrZxQ9vkHEblbO9eL3gxi9qiceyIOet/SwGMAQEdHaycvGyaud6Pu4G9v/wRxZyHjYe+R7f+nGqSISJ7bD7h6VTZjVk7muGnMZ5BZpRbS+OYT+HVEMnJSNWD0iUfbSKEZ/C2Kgq9R8lwGNapjcM6cWF4f/mM6r2QGncytsO8wRz1q7BuCzZRF9fx/sTaW6aMLAFtW4UlayHVlruYz8P1/ev+KdnAyUMsgY+1FE9seYMeJaXqan/y4bVyp5AePnQ5jVC2QnhzA06cPAwdLxWaRcMm+1WjpTyr2I3C35J59DzkyQ5HM1+1au0miV6xmll8uZmuF+IwgXEhj17cXW8rnSjtSudqP+CuprMlmO6m/Lishfl1vIZMz9u51CLKFyzqEgn6d+UYkLc7zSg57pIfjfSssA0xqALF0e41vFg92I7Q9h6JAl1PtlFAPn6910tIyybnNirww2on+LmctkExj7MqaeYeTNdgwbo5M1oll9U5TOIHs/jfBfYyju8WPoTw55bg1g7Ko+FtkoRj8tIHiiWweiyzkOkj6mmZxeqpiXzXG5nD7G+avyvLohn/xWQF6eV8ZrtrFRnsNppOVuF38cw7jxgYDeniynuaYNncfMOh302NFk1Od2tPxTAFDB/XLqp7ZsUvl1YPl2JZc3lqqk7enGwCGbfG0PYN9zTXK75vFsOtGI9j1qgXrnrT7v78u/ZkKd/VzGeUJrQ6wRduInInp0NkQn/tyUHvWr3iMgpko9dUVBJD90CdvL5qhSD013eq56VHVcrnErLoYOu8xRiGxO4Tke0qMZKWYnZyMPOc952NrJd75MOCSmMjK/g2oEJoeZl7VTd3pCBI15Mr8dLtFzOq47xq90O6qTsl5ePoxOzb8lxUiXQ07bhPPgiEjmMmLiqE3Wa0BMLDTqm+4U3f/lhAgcKK0btCy/SLlq6rkz/L+anZ7LaaoTtWV99VCdpPU2y2mWY5O7ck74jXJA2HZ5RCA8I88O3ZnaWN4hnLssnbOluW8Dwq0Gadghlx+fE4XUkHDJ5TpLo8EtyuyEXRmwoVr98hhzxMQ75ohY9R7mCG7zLaesub8FhWeHXkZtT9az44BfjMT0SHmSSlP5OLrkcS6fXzkRP90jXGrdeQNWLPM4zDum6mjPiYk/uo1z1nEgICJp+Xo945Ll6xQjqVKJ5kTksKwnm1sEvlUDIdTZnrmgyF0eEj49mpijrUcEx0t1ukT91ClbvdeB0Rm/nGbpcH9P7sdJnx7QwyFch4dE3Bh5z3p+qUed87Y8IEDtfpoWPk9oIQ/bib9B/ScrfNVt2bIFX3/9NTo6OnQKERGtl0KhgKeffhoygMGLL76oU4lqqN8yea4bexNCDzZARLT2Jicn4fV6cffuXZ2yMryFjIiIiIiINg0GMERERE+q++bd/dY+BUREGx0DGCIioifR9CAaHEegfmlj1NMEb92O50REGw8DGCIioidRW3/VD+9FDj7MWLtEROuHAQwREREREW0aDGCIiIiIiGjTYABDRERERESbBgMYIiJ6/N3PY3ZyFEfc3Qjf1GnrIZtA+FQ3Wj5K6AQlj+ix7dh+LKp/ofxxV8Ts+T507DR/eb3jvTBmLb+avqHk04h+0ouON8JYlSENfh7Fvp37MPqznt6U8kjL106v58j6vnaIFsEAhoiIHnvZSwPwvtuLsR/Wc7jgNMbe7kbghGyw39dJT6D0+R4M5HswcU0gdyWAxosDGN+QDfoiYmf2offdUUQ3aoD1CBS/H8I++doZnczpFKJHjwEMERE99myvjWDmq6CeWi8O9IzHMdylJ8ua4Tkzh7kzHvnscZdA+FgYe1udxlTzC35Ers1t0F/9b4T75BxCJ/Xkatjlx9S1Kfh36elNqHF/EHPr/trZ5K4OY3haP6c1wQCGiIiI1sbNNJL8eRl6ohSRuBSS/9NaYgBDREREa+N2Bmn9lOhJUJweRuBESk/RWmEAQ0REj6c7swi/14HtDQ2wuweRqHsLfx6Jj4+g3ehgbkeLbxiJ23qWVLw6iu7ddjTsPILw9TTCJ3Tnbktn7/T1KPo82+uuX1fdjv1yW7+E0fdqC+yyvA07O9B3frb6U9zbCQy/0W7uz+5ujP59/hAAVXnYW9DxXnSRACKBQbWcepzSZbkZhrc2zVpeVQafyl/u61vji+SdRfh1mUdrH1RTbsBl5jlYvq0mb3bsV3Ur07e7jmD4R8v+1Nav2w77H8ZlrtYO5ZbBAXZ6MXpV1pblmG/39CF6Xec3PWjuk6UM2fPeeWn16e3ostp3y2NzqbLn2ekwBmWdDE4XkfrEK7fdjsG/qyO3UOf3JfZ9IbLuR982900d2+5PUjWf8i+/TrNV9STP2Qfo87PUubbga6ceyzlWXq92wIcFzwlj5qKv4+pjqPKV566lX1rlXPCWj1XilHluVNIWOvc6MCyPvbHED4PoeG1AvrJqz/nFzyElfcnMz7hW3Y5hoPT6o/rEGnnmmWfEd999p6eIiGg93b17V6hL/PT0tE550iTFUJtN+D6bETk1eSspQkdbZZ10itANYwEpJyaO94uJGwVzspATUx/IZdqCImkkyTz2+EXkljFTzH3pE7aukMgY6zmFQ9Yv9gfESGxOzpVuTYlgm0w7cE7MqWlDRoS6ZNrJuJ5OipEDTmFT65bTpNSQ8H+aFLl75mRh9pzohCz/NxmdkDTy7vxCbysdEj6bzEPlgx6zjLkJ4Zdp/m+NPRa5y0HhkvNL0/XNiJH9NWW5NyX6y+WzlPdQQIT+ljG3PzsiPEvmLSWCRhmDCT1tKIj4SZdoPT4hMiqzezmR/EzWrdxfM7+MiBzV9dsVFJHEnMjJfFxtI+L/FQ0I5w61z24R+GxCzKj9vjcnzqk6PtAjhj6Li4yqw9/ksZP7ZfvTlFleRZbZXVuWWP+88sVPqu2q42zKRf2ybH4xYexqzig7StNXhoRrl83II3A2LpK5ORE65BD+aE6uVyqr9Zxbat8XcEse2x0eMZQwl8nJcrdWrbNUvtZzVtbTuD7X5DkTkOdM65mkymRhxnG07MeS59pCr516rOdYUExcMfMoXDPPcdtxdQwXPifUK3zx17E8o76R29/TL6aM8pSOoTo2EI7T5r4X5HGuPlZCzH3RWU6rHE+36DkTEUmd18Rxefz3DMm90G6E5Gu3+pxa9BxSbkVEz/4Rs7zy2E2p+dbX5GMoGo2KpqYmPbVyDGCIiB5DT3oAkwnLhkdVICEbKH8LVDdQZNDQqhsx1Q+bCF6R8zMR4ZPLj/xUamXIhvLxSiMs/oFctqZRVpANSxtaxVBKJ8i51QGMUpsmG0FHS9uueRyKmPnXNiCl5JlWYTs6IdfWjEalR5y7pqdFXARlHp3h+s1GU73ymetV0hZepvNLaw3XUS+AuXZOBj9uSzkVvQ1LQ9AIJKwNw5I6dWEcbwRlqSpqA5F6Dct65asbwFjPpdrt63x7xstHoqJ22WXue63kaXmsq+p/TjboXZX6X0mdVp2zepkPrHnXUbsfS51rS7x25pOB32uyHFX7qAIIj9xupaFf95xY6nVc2kdr3qr8cFlep9KC55UlbcFl+ivn3kIBzGLn0JWgDLACYqJUQYUpEaipi8fNwwYwvIWMiIgeM1nEJ8cBVwscOkVp/N1W/cyUvZZEqisE2WZQH+ZZHhn0vyAXsLXDeyiO3t1OtLyqhpEFvKd9sJmrA/+g/1o0tsp1kELy2kp6rqeRuiib34nacsjHl53m9hob0Yo8CpZ7huw2B7J/SWFWT6PZg5HMBHq2ZZE4P4xeTzcG9Ky1Mn595T30s1eiiKIZTY06wWCD6xXZ7Lsax6z1dquddtj100el+cAIMtEe2G8mEP64Fx2H6teqw770mHIr2veyLGavpNBiK595kgOdn8YROWSe4Q+Wr8Uv6YVv76pnqXNtqdfOPE3AU/qphaPVLc/7CFK/6gSl5pxY8nWMRjQ/K//8Vqjccte8VeaRQHx25edvfbNIL1LHS55DuzzobRxGh3072t8YRPhqC4Y+cOmZVA8DGCIieuwUqzsH1HdfLnQhjuSC9//b0PnlLGbGe9GajshG2nY4/xBevFO6DDRUG9JhX7ipNp8sh2xHxVLlUGS+PbKBeDiN0c+iyKp79/OziFwch+1oK8wBihXzPvt9/+RHDO0IfHMOG3rw25rfxmkyGrCy/uo0ZB8p1V/k2D7sPRYDXgog8tkq1OoD7Hvs+8TSQca61elS59oDvHbq2dKMrTJ/hwpAFrLk67gZ7jeG4P5qFGM/m32CspciMixyod25ktfpQ1jqHGpsRf/lDKbOerD18gC6XXa0n0pUAi6ahwEMERE9Zpphe17+GY8bHcjn0Y08m7MdrRhFj28QsZuVpkLx+0GMXlXPEhj+OA3na/0I/ZRBJhbE3q+6EbZ2+M4XUNBPDb+kZIOuB3t/r6eXxYnWo7KB+nYPes+nkC83QtMY+6j0a/2yQXgiCPfNELqfa0CD04vo8yHETld+SyY/2Qe3r4hAIoL+gy44tjTpOctwT/9dB2a9jyP0Q3VztnBH7ukBN1rXuE1ZqGnkLy6P6PtudN8PIPlNP3xtDjSuoFprPdi+2+DYLWdcCCDwufX8yCJ8yuwYv951uvS5tozXTj3Wb0mk/E8JxPa0w6lezwtY+nUs44MX/Ai+uxWpk3uNTvTtH+bRfTmKwB5zfpUVnR/LsYxz6GYYw5ca4X5nBBPXcpj50o/iiSGML/XN2ROMAQwRET1mZEPANwTX1T74348iq9o099OIfhOTT8YReKXF/JE59a3GIZvxK/37nmsyGjbq0XSiEe26YVN8z4+ByazRqLLtdsIBD2zWT4N/CmNMzjfkZzF2ZgiNH/rhKS+TQ05FILdyOhBRdFo6o9PUJ8RBuGSjb9S3F1v/wSxHQ0M7UrvadYCSwvDbGXSHQ5jKCIjMDCZO++DcYsw0FO/kZGNWNhaN0ZeKyP4YQ1w+y8v09N9lw1clz2ODU7VuL00gpha4n0XicxkYqVmf9qD9YzUSUmUfys3D+zpwK1SFb/MUZYNUqVpsjx9Df3LIRt0Axq7qUmWjGP20gOCJ7vJtf8Y6sjFZu4ViLiP/zyNn+cQ9l1f5ZCxpReRuyT95WXYzAdjmxF65q9G/xcy6yCYw9qWxpxh5s13/8KBlPaMhW0QxL49vVtarmi7K+vnBqFUZHKSRUiPBybpQ6gVGZlnT+phIy9z3Wq5Dw/DZZMDyVun8sKNldzsiO9zyCErLyrdOncjaNcpdOp4LKNe5zno559qSr516LoYR0t+SqPIPnZ6A7/1uGaCY6p4Ty3gd5y/1YWzHEM59M2fcXjaXOIfAP9fc8ve8Ez55fYjoIDD/8zjGjJHCxjHQdQTj1y31YDn3Srd1lo//lmbjFrf0DXneXJfXhx/+w9LnkBR/26+PXbMMWJ3YanMuXV9PMnkg1wQ78RMRPTochUyI3JUR0dPmkPVgE843I2LuclA4DgTEuYQeSUu5NycmTvqE0xjRyyFch4dE3BhdSImL0JczYiYcEJ4dELZdPjF0udJR2+wQPSIiZ/X6OzzC/0Wy0qled2xWx8F4GJ2n66WZclfOCf8BVV61LY8IhGcq5VSdfK3rlR5ym8GY3uJvSTHSpff34IhI5jJi4qhN2F4OiIm0uUhdavQ0Y7sO4TkeEjO/yTKqfTk7JTKFOuXVnZSr0nRWFbrjtHW5qs7PORE/3SNcxqhOsryvBESo3OHbuq5DOHdVOuebHaZL88yO0sZxKKepbdRuu7J+7m9B41iqejPqN6HOCb8Yialzov56hdSI6FTr2JzCd1Ye34zqwG4T7j9OiDmjM7a5vG2XU/RYBkyoV1bTYvu+sMJsSAQs54f/bNxyrinLrVP1UPtWc2xrBkEoqbsfS55ri7925tPl+yAkJo57jNHG1DrBaKnb+8LnhGHR13FGRA6V1rU+ZNnfDIm58ousIGa+6DHyKJV3LizzPBgUkVRuGede6RgXRPxDt3y9OkSnPF9U9oueQ2oV+ZoKyXMwftrcB3WdCs2WC/ZYethO/A3qP1npq27Lli34+uuv0dHRoVOIiGi9FAoFPP3005ABDF588UWdSqtJ/U5E+08hZL5ZrHPyKimmMfZWO458pb/tsbIFkcz0lz+lJtp81O8G2dG9Ow6xBp3X8z8MwKN+X0VPW/m+ySDUteavYKoxOTkJr9eLu3fv6pSV4S1kREREG102hfxrsnFXNcqSfNzLYeKEo9wPhohqFTH7ix2jv9W8duSjMHsO7mf56tmMGMAQERE9AON+/Kr+BGtlFqMH/UjezCKdL/dCgRp9KX01jsb9nQv2nSDaHHRfHGs/q1WiBhzo/DKDtHz9FEv9VKTi7Vmk0nvR8XLV2NO0STCAISIiWhF1u0sD9n0kn37fi5aG+remrB4nuj8fRUtqAB1O3Ul5Zzu874eQ3eaBewcbYLSZJTDYsB1HLsqnn3Sg6XVzZLXV0rx/ACFfHqHD7WgqDYDgPoLRK41wHmhd+9s/aU2wDwwR0WOIfWCIiGijYh8YIiIiIiJ6YjCAISIiIiKiTYMBDBERERERbRoMYIiIiAjFmwmET3mx/ZR1SII8ose2Y/uxqPHr6kREGwEDGCIioideCqNdPQicGEdapxARbVQMYIiIiJ54rQgkYhju0pNlzfCcmcPcGc/q/1jm1WEMT+vnREQrwACGiIiI1lkRiUuhVf/RQiJ6MjCAISIionVVnB5G4ERKTxERrQwDGCIiejzdTmD07Q5sV79cb29B9yepmk/885g934eO3Xbj1+23u45g+EdLV/V8GtFPetHxRhjp61H0ue2w/2EcWbleenIUvZ4jCF+XyxzbB7u9G+M31UrF6jw9fQj/YtnqnRRGfS2wq18eP59G+qsBhI31gOx0GINy3uB0EalPutFiV7+434G+87MrK3dWdcaX63+UMOpg2NieHS1vze/fkv9xGN1GPrI8F+r0frHmVbb4Plb2w5K/rP9S/vkfBtHx2gBUjgMu9cvoDcayBlXeN9orx+zjRNXgAcWro2Z+O826D59Y3V9tJ6JNQv0S/1p45plnxHfffaeniIhoPd29e1eoS/z09LROecLcmhD+HR4xlMgZk7lYv2iFTfi/NaeFKIj4SZdoPT4hMgU5eS8nkp/5hK28TEZEjjqFQ9YhuoIikpgTuURQuNpGxP9z3C+cO2Q6OkXwm7iYy8VFsM0lRn4SInnGL0ZSehv3CmLmi04Bm09EbphJydOtwj9uzi9cCwmfrVOE1LzUiPDsshnHzHdyQiRvGUuIuS/NMgX+pgpppi1e7qQYOeCU07J8hwIi9LeMXEOalfnLtMr+yzr51i9sbf1iIqOmCiLzbVB49sj1TsaN+VV5ldOW2EfrfhwPiakbZrlnPvXINL+YKG3+Rkh0ymWCCT2tyGMW+JPeL6lwa0r0y/K4Pkya+yDLM7THLyLWuukKySNFRJtNNBoVTU1NemrlGMAQET2GnvQARgUKNkujW4g5GZC4ROeXc+bktXOyQe8W566Zk6aMCHXJxvqeIdlUNsVPVk+XyWAGaBVDKT2t5GTQpBr7dR6+b1QzWwZFhyA6P50RpXb83GcyyNDBjUjXadTLcp87IPM4OmGus6xy6+mq/ZdBlsy7vP8FOb3HJvpjOlowyG3tr12vJq8l91GqF5wY9SWDtbSerrNM8kzrvDyNhy1o7lcmInwyj5GfyrUnzskgiQEM0ebzsAEMbyEjIqLHTBazV1Josdn0tOJA56dxRA45jKnslSiiaEZTozGp2eB6RTarr8Yxq2/rMuy0w66fVnPA/qx+qvyaQgRByKa++nCw6hHqUmWxof0VH+Jvt8C5uwO9n0SBriH4tpmr4yn9t4oDe/e3AhdTxu1fKyp3HePX9Q1XP8cwcrUdLTutGTWhaamhxpbcx8WMI73g/V5ZpFMpdIYz8/IVmX7IGpC72Q7voTh6dzvR8movRicB72mf3HsietIwgCEiosdS7PvE0v0j7uu/WpMRRDSisW4wsQSZVxYxJH/R03XYukKY/SkiG+FpRN7twHZnN8LX9cwFNG/ZCrgc1cMYP2y5jbI+gGXs44MqFmWIk0guMjKZDZ1fzmJmvBetaVmHnu1w/iHM360hegIxgCEioseMDY7dNuBCAIHPU8iXG/tZhE+Znb5tzna0YhyhH6qbv4U7eeCAG60P8rH+71vhl4373sO9CF+1dD3/dQyDl8zpxJ+Hkd7Vif7wDDKZKQRbw+j+ytpBHsj9Zm3C55FKxNDqckJ9d7Rq5X7WBrfMJ3bF2kVeu6f/1rOMfXwwNjhdrcAnPfB+FEO2XAVFxE6NwhyvLIHhj9NwvtaP0E8ZZGJB7P1KBoD8LRmiJw4DGCIieuy4Dg3DZ5MBy1t7sfUf1EhXdrTsbkdkh9u85WiPH0N/ciD6/gDGSg3xbBSjnxYQPNFtBAtKoSD/kwGQ+lPFmCFZvwlpdqPnQxcwPYru1q3G6FrG46WUDED09yd3+uB/P2o20J/dC+cOwLOtOuoYPx/CbKlIk0MYmvRh4KBxE9Uyy51DTs26lat8m3G/YO5Dqdw7vAgctWHsbX85n/x0BJFr8okadewtNdqaovNKZ8zRwJa1jzlj2UzOEojp7ZY2jy3Nxm156RtyK9fDGPuhiNauAeOYRd/fB3uTzrehCQNbVNBmKr7nx8Bk1tgv224V1Hlg07fxpb/ywr6zD1Fzd4jocSbWCDvxExE9Ok/8KGRSYTYkAgccRj3YdnmE/2y83HnelBPx0z3CZYwoZhPOVwIiVO4grjuvGx3JHcK5KyhKXdsz4U6dDuHY5azpdJ8TyS/8wmPNc7bSUT7+ZUjMlMplcwrfaUuZdMf2/i8ndLnl+geDYqLU8b1ssXKbnfVL5YMapUvnW5WmFr03JyLHPcJpk2nGiG0zInRIlWlCzBgjfdXJSyUvto9GZ/3KOp3hTFV9ldLUKGLxD93CJuu282xplDEpPSGCB/XIZztcosdaP7I8oS9nxEw4YGzbtssnhi5X5ma+8QnbjkBlpDMi2rAethN/g/pPXlBW3ZYtW/D111+jo6NDpxAR0XopFAp4+umnIQMYvPjiizqVNrSbYXif68behEB/m04jInoMTU5Owuv14u7duzplZXgLGRERERERbRoMYIiIiDaC+2YHkaq+I0RENA8DGCIiokdtehANjiMYl09HPU3wnn+gQY6JiJ4IDGCIiIgetbb+qh9vjBx8kHGciYieDAxgiIiIiIho02AAQ0REREREmwYDGCIiIiIi2jQYwBAR0RMuj/TkKHo9RxC+qZM2pTyix7Zj+7Go+av5tCHkf4li9K196F7DgRmy02EM+lowOK0TiB5zDGCIiGht3UlhVDau7A0NsO/uQN+ltJ6xRtSIXnJbiz8GkdCLF78fwr53ezE6mdMpRKskO46Brl70fh7Dmg2O/esY/IcCGDg/qxOIHn8MYIiIaA1lMf6XWXi+mEFG5BB7txmhV3sx9quevRb0iF7JD1vlRBBxy+hexuPWFIKWX7pv3B/E3FdBPbWZNcNzZg5zZzzy2WaSwvCfS+Hkalit/FYhH1snRn4KybNwDe3oQeSHYXTqSVqOPMY/DsurE21WDGCIiGjNFH9MovmoD45GNdUM55u96EUUqdm1v8nJ/rxDP6vxrBs97wLpTX272OOjOB1F6I6eWAWrld9ql4s2kJvy2F7Rz2lTYgBDRERrpvGfPXBv0RPK7QzSNj88rkf1HUEW4VNh4GA/fNt0Ej06dxIY/uMAUnryoa1WfqtdLtpA0gi/HzB+NJY2LwYwRES0DorITo+h7w9RuH4YgudZnbzebsYRv6afr0D2vFf3nfGWO/onTpX601TSVOMo+l4HtjfYse+jBPI/DOiO1QkMlvrfnNK3Jd0Mw1ubJhV/CaPvVbPPUIO9BR3vRWWuWl7m/0kvOt4II309ij63HfY/jJu3wmQTMjjrRovcbpVsDMNvtMsylfILY3bJbxaKmL04iO7ddqN82z19iF7Xs0ryswjLfW2xq33YjvY3hpG4redJ1o7l+R+Hzbzk9o9c0HuTj2Hw1U4MqPo50V5VD1V1sLMDfednq/qQpC/1oWNnA+zuQbnNGAbUesvNr7ZOay2Sj5yJ2fNy26V6cR3B8I+13ybKulPLyPI12PfJ/a/Tt+q2DJBKx8Sou1GkrMek3G9sO46cTyP91cDKB5hYzW1Yzq3i1VF9XmyvPpdqlvHK/W//KKWPm64Ty/kU/qWmV5ClvPbd3Rj9u6VeLf3aSgMVVF6TlbSq14DKz9g/O1reGtfHWwYvr+9D91fyFXOh2zwfXle3klWXr15fvbrnHD06Yo0888wz4rvvvtNTRES0nu7evSvUJX56elqnPEoZEeqCUR7AITpPx0VOz1lLmXCn3mbNoyskS1QjEZTzOkXohp6uoxD1z1tm7gu1jUpabrxHuM8mRUFN3JoSwTaIYMKYJc2Ikf1y+yfjelq6NyX6VZlKabkJ4bdB+L81ayh3OShccr45nRGRo07hMPYhKCKJOZGT5Xa1jcick2LkgFPYrHkp6ZDw2TrFSMrMr3BjQvTLMqFtSK6xsORZt3AdjYg5tSP35sQ5dfys6/wWl/vWKgLfZvS+JsW5QzYBm19M3JLTqRHh2SWnZXl8x0Ni6oaxlJj51CPT5DLlE0CfG9Yyp4aE/9OkyN0zJwuz50QnbML3jT5qtyKiZ/+ISBply4mpky7L+nXyW7ROF1InH7mncbmt1uMTIqO3nfzMJ+vcVpVX8oxL2A6dEzMqSS3zpV+0yu11hktnnTwP5DFwn50xJ41jBNF6pnJEkqdbhX/czLNwzTyGi52b4kZI1lHNubZq27CcW4eCYuKKdR0I2/EpWTNJMdSmlzk+IuLyfJsL+4TjnQnjtZ484y+fg+JeQcyo143NJyKl7RWSxmul84s583zS5TVfsz0ios6p2RHhrtpHKdZvLGOmWcsZEKG/6XNTrueRadZjFD8pl7FcB3LytW0rn5c54zhXnaeLnnP0IKLRqGhqatJTK8dvYIiIaI3Z4PtGdZ6fwcSHTsTfa4fnz+t1c05NJ/70uQfu7Ny41a6fVTQZfXsq0r9MIHcjg/x9OfGsG4GTAXOGYSu21t4591QTmvTTCg9aneaCzf/sRof8m7mjPq22ofPTGYROyqfXGuFoc6C5rR/xhB9OtMIfjWG4S61VUkTsswDCh/zo2WPm17jNg4E/B9E63YfRiwv0Q7o9jtF3m9H7fqfZd+kpB7rfH4Lndg5F/aF5+kIQA7/zw/+KDUYVPNuKng+H0ZkdxcBf5bHd48fEpNmxvKXTB/c2s6Kcre3yf1k/C3aByiP6mSzb23ux9R/MT9ebnEegvmMKX4qb3zRdn8XErTQyKo+nmuE+HoS1lutbqE5X4NcQgiea4H/LA5tRL81ofXNY1nkWoyfGzNvNboYRPLZVLtcDY3Nqma5OyIZ3DRtcu3QfredleV4CUuXyZJH+KYVMVtaTnGrc4UPw5AL9uRa1WttQ59YEhl+TT3e64XlBn0tqnQ89yH48jli+FYGEPv9u2+GU55vjYAhzZz1ozkcxdmwUva1bzW9M/qEJLW+MyyKEEUnobvRXoxiY7oR3v8M8n573oe+9VtiOyteTkK9Z9Y3tlq3zB6dosr56LK+BnV749utz8/d7YZx1+SVGGTzQah4zuRXXfuMMQb707dIDnXO0lhjAEBHR+njWCc+fQhg9DCQmkwvfwrOWnu+Ad7d+vgac+3vR+HEH7M52HDkVRmr3EPotI54tqdmDkcwEerZlkTg/jF5PNwb0rCo77ZgfTtVKIfGRbCD+rslsyGmNbbIRKv+O/bzAsLu/zmIMDtgst/k17glg4loQLiMjWbbJqCxrTfC1zQWvbOSmrsyagcaCxpFecIE0Uhdl2JmwBJ2lx5edskku7fKgt3EYHXZ1W9QgwldbMPSBy1i7ruXW6RKyV6KIysZtddAqg4RXZJh2NY7Zm3KZxITcu3a07NCzlcYmGbpaOeFPZBB8qYjZyTH0+WSge0HPMtjQ/ooP8bdb4Nzdgd5PZF13Da2wz9Zqb0Me6af0UwtHq1uGDRGkrKMKOuzVgcavKblEndEA5SPUZRxRWUeNMp88CpaY0m5zIPuXFFZrcOjx6wuflc0HRpD5/7f3P6BtXvme+P8228u128ziLL0gs+mlCgmMchOIwgyxzO0uVch3iUyHjY0LkcmFVOlAak9/O5FTmNoNiyO3kNqZ36+150Ibt9AimSQrFZpavkw3KrspkqGDlS/t2oUEq2yySJCy0t1mI0FzOb9znudIfiRL/hc7jpz3KyjWc55/55zn8ePz0fOco6gPLXcSCL3bi/bjFWfIas852nAMYIiI6BFqRtvhzRzw1QbvW16zIbwBGn/Vj3j6GkYPb0fsbDfaWtowNL2aT/rNZ/EP/boHMdkQ9l+++PBD8P6sf1qowMP2VFlLvEIMiRvL5PsBkNdvTbqRKxujayf3KduZseQSzdZGJ/qvp3HtPQ+2Xx9At6sFbecSas0a1rlO1d01iyajYd+IRvXzwcqOteoT1OnsxMitFvjem6y4cyaPTVcQc9+G0bsvhfDr7djp6Eaosg/SMh7FPrCtWQZnbbAv1adN1ldG1vzM93q6mv0yqDyRwtgHUWRU/ebmEP4sAtsppwzFHoF7cwidPoQDp2PAC36EP6g4Q1Z9ztFGYwBDRESPVP5eDs7DB7CWh2LWTw7Rd0JruwtU0YC1ykyMIPKUGz1/msR8dhbBUwUMXNCd7IuqBBRFuak+uL0F+BNh9B9zwb6t7B7HKjngPCV/fDiJmLWlVcgjK0M4X2uNpuEOOzqQxMDvA4jeWVixMD2EEaOztA0OlxP4LIhY2ff55JHPAZ4XnQ8RIJp5jr3mQ+9E0nwUz5DC+DtR43En9ZjWyNVGuH83ismbWcx+0oPC2WFEanRAX686tTna4EQEwa/Kzxp1PuOIG05Z6OZn1VkdRvyGOa/MAx3ufTcGzwtRuK9cw8XfeeB4dnF+En8cQWpvB/pDs0jLgDjgDKH701V0Gt+offyUL2u0575NILa/DY7ndUI1v3RChY69J3oRumEcQdOtcQxdLU7b0HE2APedILqfa0CDoxPR5+X5dX7xdxrll/j9Wxt5LXjTje4Hfsxc7oe31a5umpVb5TlHG48BDBERbZjkuzux8+URxHRDOHdjHAMTboydUl8yWVRA4uxOtLjH1u1xESX9g2polt8jMBQyssHiwZhNNmaLSdm0/D+HrKV9tcjzDnhlAzasG7C57yIYN0YqUt+2fhIR49PrOHpOjyOpRuNqtsPh2A7bLptuhMmGv2rlXpUBhdrPgwwSH8pGmpr1Jx/a3k2gcC8rg5000sZoXgVkvo7JLcp9yfTUX2SDXr7PqyLJRtzikmXN/KfMfg3qbpfntOrzM4SBwSgyxiHIYe7jMQSPj8D3Yo07JTs60DfoMkZ+an+uyey3sHsPDvweaNtvLuJ8dRj9u6Jyu7qsUubqGMZ+Csi60LUq86zykc5amrxG5ks/pEbZ6Jc/ZJ4zD1IIfTyDtlcCcCGBMe9CP5iGhjYk97aVGrPx13owbjSGm2Hf58B2m0M/8la5vRj+eQV1utji7RT292D4D3Z57gzofUuZKMb+lEfgbLdxLjUe7sZwaxJ9pwZKwV/qatg4xhE1Yps8xijkZDiWlUGDuY3cDZmf2/KNDA5yMj/G78C9PvS8qY/Zswfg2CUDwx1LhIXFur6r87UR+1A+CyH43ULZh89PwvtmtwzsFBnAquCiMkBvdsP3tjqfxtBd7AejXi8k4SwNp57EyGtpdIeCuJYWEOlZTJ73wmEdgn2HAwdk9qJ/jpnHLJPA+CfGbw9GX23TwbX+HbibXQi0ZOBonG4LJx0at8kc30wh/UBeez6M4H/mMnJ78hxR+ZfXh8RXxhkig9MUkno0tNrnHG0KsUE4ChkR0eZ5XEYhS0f9wrPLHE3IttctfOcnxfxPemZJXsy87RK2F9VoWuvAGFGsOIJRrdfCiEuVo5WVjXJURo2e5BMONfLSXq8Yvm6OtOQ4FhBhPcJSOhQU19JxMXxMjYZkF54zQTFrLa8ameyIXe6nOC8uArs8oue9a+bIVj/NiNEuNd8mtzsqZrJpMXnKJuvGLyZT5aO5OfYGxMI4SHI7ljJYR1jKzwWF/yU9OtMulzwGcl96hK/asiJ+XpbNGAnKLlwnZBnnjDGdFtyV5TzhMkdFsznM8hRHbao4BmoErsp6Lo7KlZfLuuV+7F2yvLqust9cFD1GPam69gh/aNYcUUq5HRTBWLqUP/sRvwha8rZoe0vWqblONdXyZdaLT7iMc1pu7yW5728XRrcyZOX+dL3Y9vpEOGUeY/9HcfMYi3kx+Xu3cTxU3sMpef5fcMljo0aLM8sR/0TWpTpuqg5k3XqXGrmvSl2v+z6Ko7K9FRSTZzy6bF4RiM7r+ZbzT27LcaJypL+smPmoR18LdL1Zz6dvAub5WfmS9RaILeQq++eAuQ1Vn+qckGW3H+kRo/J8yFf7HdCjs5WlqQ2lwsInt1M8B/LJUdGhtqvq4b0ZkU2rketswv17eb1Syy9zztHqPewoZA3qP3lQ1922bdtw6dIltLerkRyIiOhRyufzePrppyEDGBw8eFCnEhGtRQahl1vQvS8OsRGd1wspjP+2DSfV97NUsgUwk+7Xd3loq5iamkJnZyfu37+vU1aHj5ARERER0ebJJJE7KoOjilHKxM9ZTJ61lx4dJCpiAENERERES9D9W6x9S9bNHMaO9WDmTgapnGXrDwpI3Yij8XDHJg/4QY8jBjBEREREVEMCQw07cfIz+fb9djS9HCofVe+hOdD94Rj2JAfQ7igOGtGGzjeDyOzwwL3rYYblpq2KAQwRERER1eBCv/Wxrsvr/z1KzWo454+uYVaNQKb2cTOO8HkfXOu9I9oyGMAQEREREVHdYABDRERERER1gwEMERERERHVDQYwRERERERUNxjAEBHREyCH1NQYej0nEbqjkx53mQRC57qx552ETli5uX88hJ3uMczp6YdSyCAxMYTO3UNYfU5WoWp5c4ie3omdp6Py3cpkpkMY8u7B0LROeJzlUoi+34v2V5YY2Wsly9CKJM41oKFhg8/jlZiWv08TPJoPgwEMERFtuNz3Mdk4PYm2DWmEpTDuaUD7xyk9vVjhy2Ecer0XY1NZnfK4k2V6rRv+syHMqe/f2ETJf+yA7/QAIrd0woZYp/LeCqHnVT8GJtYldNtgBcQuHELv62OI3tNJi8gA7u32ZZZZP4lzLWhwyQb+Ou4rM9FZFkxWTtcjMxBqKJVDlck6vRRj2S/dCB+zldZb6lV7mxmEXm54YgMhBjBERLSxpkfgeX0IgT+Nr2vDqORGRAYmQPRKTDaDq2s8HMD8pwE9VQ/s8EXiGOnSk6vkOHUN87EeOPT0w3D+Pi4b2h16aqPUKm8zPBfmMX/Bs7JvY9/lRXhqBBud2/XRCPfgPIKDerIqWf7zs8sss0o3RjBStVGcRDzqRnCiH65tOukhqQZ6D8bQ36oTpofKpx8x11tqmGZZPj29NhmkvjXfDVwwP5BJ3YqUTdei6qPlVh/EW2YObMfCMj9pBNV53xVE2jpctXylQ0ucydPj6L4CRD6LbcCHQo8/BjBERLSxWv2I//kaxl/T0+sqh8h7MbT9zgNMjSFyQycTURUFJK4Gq3+b/o0Z4I/j8D6vpx9aBrHPDqDv2MKXuSRSdoxZpuuTDd7LKsCQgcc+M8UMjOJY+iOSBMa9QPBEZfhkg11vp5LthU4ZHVULTzIIXZhBYFAGOFe6MV7nd7TWggEMERHVr1thjMOHwFmf/D+J4cux6o0zIkJhegT+s0k9VWG/D/7W9f7W+wG0qUehzuleJ7e60aKm1/3b/DdDCtjlXvhSzzty+qhlukJmYhgDg33w7tAJS5IByjlZRzu86K8W8N2JIYxO+E50GncbB77c9F49jxwDGCIiqlvJz8bhPO5B87MeeP9gQ+bjGOIPGcEUvo8YncCNhtbudvRdrXgwLTeH0Bvt2NOinlHfibZXRpD4Uc9TrJ3Rf0xgxNhWC/b8NlLxiFsBc58NoXtfi/Gs+05PH6I/6FlVLDwv31kaiKD4LL41rVqn74WO7QUk3+/EzoY2DP1liYoq5Vvm6xWZ70X9UmTeJ/rQrvPesq9KPS2yuvIaagxksOwxspoe0nVUUU+LlJdJ5S/0fbGOrINA6OV2m/sekXW6lML3IfT9xpLXibk1B9lZtS3PTpk/eT55x5CsHNkgE8PIK23y+Mp9texB+xshzOnHNnNfDaH96IDRgX3AZdZHqX/FMue0dWCE3Ncj5jGU2z95ZaljboP3dPk9CdeJYNXH+xbOY/Uq72RvzDMCHrPPR+Uy5esuHN+avy8VwVNlP5SyPiXGuaPWL+5bb8tIj8FeDC7uhNB5GvDVvLuk7kZF0LHLrqeXkyo9plZN4uNuHDjthU0GOH3q8cKzsc0fmOBRExvkmWeeEV988YWeIiKiR+n+/ftCXeKnp6d1yuaLD0KgKyjSevqh5a+J/heHxUxxMtYvZPNB+CJZnVIhEZB10iGCt/V0NclR4W7tEeGbeWNy/qMOuY5LDCeNSSF+iotAq1P4P08LY4m7M+LicZuArUdM3lUJM2L0iMPIB477RfDPerm5UeGRaT2fL+Rt5j23cJ0Ki3m1wM/z4mKXXKd1oTxC1lRQpQ3G9bQsY7RnURnMPBbTsmLyjEPIZtJCXX8zLFx7ZR5lmv+9uJjJzovgcbvoidaop7uTosfmEv1R80jlb0+KwBGnXD8gijnJynzYIMtsbCIrj61Lzi9OV7f68lrq0lIHyx6j20EhG8kikNDTWbmd3/WLyZS5fC0zF3rEaFIX4Oe8mFXbtXlFWNZrNuoXjl0yH3AL34WwmDGOtaprWa/7rWWokBwWPX+aEdmfzcn83EWZN5vwXl74LVjJ74WxzC6vGL6ul0pPiv5WmXbkopg3U4RIBYXX1lEqgzpuxjLWOq6sG2W5c1rWt0efP94zQXHttlmPs3/yLHvMl2cec2t+jLIa55o+H9Tx7+qQ+S6e4zK/ledEtXJJ6VBQn7PWbS3UdTqkzp2F89rct7kfc545HRgMyDRzv5X7WJEa+Ssy91vxqnlOqHws5Nm8rkF0hJY6gx4/0WhUNDU16anVYwBDRLQFPQkBTDbiqwhWZsTw/iX2sWwAkxXhExUNgZ/kNo/YRf/1YmNZNtoOWxqNim6cOM8Xm4mLA49io6vjE73m3bDwVeQlLxu7nl39Il5qZ1fZTpUymA2t8rRFda3zWDO4K8nLdZ3C9odrZmNWm//ALfdREcBYG8/L1e1ay7sobfljVNZYTMn9vnpRzP5kzqopK4M2uU5ZA1K/SsFGzbqXZdDT5WSAc6r6NnE8XDo2K/m9qLqMrD+nDIYC36iJvLj2BxlknCk/bnmZZ6fcX+m4V2lIr+icrrJeqT5SenotjG1Y6sXyKu7LbNxbGuxVzxNzufJGfFrEE+W1WlmPxvGz1mvlMdb5e+jgoHK7FRYfX3m9qHFOqDyX50cHdDWWf1w9bADDR8iIiKgOJTF+fhzjHdtLj340NBxAn+rEfyWIyTUN+TuHuY8B+7OW8a62OeGPziPw96pvQAaJqSjQ3IQmc65phwudR2WOvpkrezSlmsgPeolbcxiHHbZnzUmlcb8fkzcDcK13NwQLe8tyY3nNIfanJNr27YE1G03bytdrPjKKdNSHljsJhN7tRfvxAT2nhnUr73LHaEE6OY7urjn43vPBsdyoWreSCCMA2SQ2Rn+yvoJdtR4LKppDqupjaSkkP5NN78TibYpPOmr2lVixXzrhlmfcrNHJO4nEO/LnL5rKjltjqxse+XP8u1rDSj/sOR2p3sd8hTKpmaqjb6lX2UhlXXZ59lT4NlWWN9fhACLe8YVHqaZjSO1YupaNUcAue+Wx0I+Iuaqdxx3ofOGhj9YqueCW9b+YGgggIstpPuZovtpg5PpKGLGK87Dy8bilH6GsLwxgiIio7hS+CiPcMbOo0SNuXpQNtijGPqvRUXkFYtPJpfsoPADy+q1JNv2ekj8aVxt5xJC4sdbeEBtF5mclDdJ7cwidPoQDp2PAC36EPyjv61Dd+pV32WMkNW/bjqbcALpfq+x7VIU8phmZv5nv9fS6MOsyltyg76QpFIw6sLdYGtc/658WKjCxPbXMublu5/QaXEktf3xWQgZrAdmUHzb6sMiA5EvAvWyH+WLflh7ggrx+JFZyHj8armMqsKogg7KBwfji695t1bcogu6Pn5yeMAxgiIiozuQQ/TQJ31GnnrbYpUbmAZIXomvo1GqHvUuue9aPwFRmoYFcSGDoj2prNjhccp+fBREru8OTRz4HeF50rvxT9R122eBIYuD3AUTvLDTFC9NDNb6jo8LDfNnjkmywHQYiX8arfPN9sYkr6/9NN7of+DFzuR/eVjsayz6+r+Jhy1uy3DFa0LS7Axe/DMI11Ynuc4mlA55fOtEjA5jeE70I3bCU/NY4hq4uromVccB5SgYwr/nQO5FErnTMUhh/J1qlflenkIwjbOtB2141Ze4LH04iZi1oIY+sPKa+1lrfCLSO5/Qa2OwH5P9qpLKKb8eX58VKvhSynAu+kGzGq7swd2RgfbhKAFBGBS8t6N6nAoLwCkcHWyPj/JeB9EPd/ZD5vTBTZRhmaYcbneq7ZCo685vfM2MNdja4nI8QAxgiInok8qr9m8siu6jxXUDi7E60uMew/GfVBaQ+7ZGNzW6079JJZZrhPtoj/9YPwP9mFBnLvgrZtPw/h2zNlqMNHacDshkkG8OeFjQZj1zsxJ5f+2XbyAyWnK8Oo39XFAOD40jqUZoyV8cw9lMAA13Fh1xkGdU+7mYXGs0PZINQ/TQqQdrRgb5B2RCRDbX255rkfuS+du/Bgd8DbfvNRazbKWX5eQe8siEU/sr8zDr3XQTjxghcEbn/k4gYo3oVkL0rf9xMQ5XYIPev5JcNfOzo/F0PbB/LOv5QN7pzCYQ/U/tQI4jJfcgApJDLyILL7av5hQwSX8XVgsjfSyH5lyoVvNbyFtNSaZ22/DEqljWdlbX/vBfjnw1j+ycd6PzjEndtmt3wva3yN4Zup+WxxBeScLrMx9VK54/ly1jzeoPV61Wei6+YeR3zHsD2v9LbbGhDcm+b/mJOfayq/l4saG6WebsexPhX+vZYJorAmyG0v+eHx9hQMzynL8pG8pA8N+V5b+Qrh7mPxxA8PgLfi/pOyrZmtMgfqdtyOz+E5PYKKzun75nHxKjTIn0uF0/pNWn1mV/iWBxuufiSxXWv4csu1femdKhtPZeCvdb6lXd8LI+iJb4sPkImz+npYuo60AHGTI3vdFlqxLGizIS86u2rNQxzccQ3WfbikNVbnYzINgQ78RMRbZ7HqhO/7gCs8lN8lXUGFnkx87ZL2F4cFbM6pRazQ2/xtbhT7MLIQeXLVKaX779c9vqw8OpRl+ytPhGIzJZ1jBZ342L4hMsc6cvmEJ4zQTFb6huvO9QWX6pjbWX5S51tsyJ+3iscNpVuF64TARGeK+6pynaMdDU6ls9Yx7ZXjUqVFfMhuY1jcl1j9Cndwbm0bkDELR2lbXsdwreCDsnzEb8eecouPOfjYtbYx7CYnDMLmk+Oig41Kpcsv/e9GZFNq5HLbML9+8nyzuBlVlveWnWwxDGq6BRudHaullZVVsx81CM8xmhjNuF4yS+COn/Vzp/yc7H2OZX95qLoOWI3lrHt9Qh/qHg+VTlWRno18rhHArrMOm/fLh6QIT8XFP6X9Mhtu1zCd/6aSOsR0Ex5EX/bLefbRYc8bsXaX/KcrlJ/lfXxcJ3ca9VDtfSKc2JRnVXv4F9zHxVlC4SKv6sdYmx05deMlTDqrCJfi69X1etyrde9x9nDduJvUP/Jwq67bdu24dKlS2hvb9cpRET0qOTzeTz99NOQAQwOHjyoU4mIaHMkMNQwDPvtrfMY18OYmppCZ2cn7t+/r1NWh4+QERERERFtKBf6EwfQfbr8izRpbRjAEBERERFttNZ+pI+G0fIyg5iHxQCGiIiIiOgRMEYGO51CjzHcM60VAxgiIiIiokeltR/hYxs5QPXWxwCGiIiIiIjqBgMYIiIiIiKqGwxgiIiIiIiobjCAISIiqiH5j30IfV/z+9uJiGgTMIAhIqItqoC5iT60725Aw+529E3MyZQqfpxDbGIIJ10nEbqj0zRnlwezr7Vj6OucTiEios3GAIaIiLak1IQP7VMODH8jIOZGcWCqHb6JlJ5blMDIS70YensU49NZnWbxrBuBzwPAmW6M39JpRES0qRjAEBHR1lOIYfz0HHpO++BoltNP2eE924/c6RFEfzQXMbngT1zDtQ979XQV21zo/0c3xl4fR2X4Q0REjx4DGCIi2nJyX0YwlOlE236doOw6ALdtDNHEGh4H29+BngcDGP+K/WGIiDYbAxgiItpyUt+FgS477Hra1IKW3cDYjTk9vRp2HHgRGJqKV+9HQ0REjwwDGCIi2nIKDzL63fppeb4N+DSBtYQ/RES0fhjAEBERrYDtOQeQSSPNAcmIiDYVAxgiInqi2J5q1O9W6akm+V8auXvmJBERbQ4GMEREtOU49vcA11My3LBKI3Ud6Nxb3jNmdVrQvE2/JSKiTcEAhoiItpxmlwc9CCN2Qycot2YQk6kelxpXefUyqRnA1oKWta1ORETrhAEMERFtPc964L/gwNiFEFIP5HRuDuODQ7Bd8MPzrLlImXxe/pdDdon+Lekf4sBxFxx6moiINgcDGCIi2pLsx8YR/vUk2p9rQMOv+zB3ZBLjxyofH8sg9LKc7x6S72Po3Sffn0uYs8qkMPMV0H+kDWvsQUNEROuEAQwREW1RjXD+LojZtIC4OYnhY44qwYcN3styvrC83nLpeRY3Ihh7KgDfiwxfiIg2GwMYIiKiJaUQejuM7rd9FV+MSUREm4EBDBERUS2q78w/nET8eBD+/TqNiIg2FQMYIiKiGpIT42h6cxKjL/HeCxHR44IBDBERUQ3OU8Pw/pL9XoiIHicNQvVY3AC7d+9GY2Oj0SGSiIgerX/5l3/Bgwdq/GDgr//6r42fREREj4OGhgYUCgXcvHlTp6zOhgUw/+7f/Tts27YN7e3tOoWIiB6V+/fv4+rVq/jbv/1buFxVRtUiIiLaJP/0T/+Ef/7nf8Z//+//XaeszoYFMCp4uXTpEgMYIqJNkM/n8fTTT2N6ehoHDx7UqURERJtvamoKnZ2dxodta8E+MEREREREVDcYwBARERERUd1gAENERERERHWDAQwREW0pua9HMPRZRk/Vr8xnQxj5OqeniIioaOMDmDshdDY0GMOlLfl6OQT15yYz0bkobdWmh8z1zyV0wkbKIPSyzq98dU7U/x9NIqL1pAKKk66dxjWyZV87+ibmUNDz1lcBcx92ozPqgO8llF2bq7+GUPOvxK1xtDe0Y/yWnl6Dwvch9HlUuXei/Y0Q5u7pGVaFDJKfjaH3N3swNK3TNNvhDjR/1IbuT1M6hYiIlI0PYHZ4ERYC6VCHTgACCWF8P0zxZZ1nOzaGYJeeWKPElwPmm7Ox2n+c1o0N3gtBLJSgggzghhjUENETqvCXEQRuujF8fV5e77OIvd6MoNcN38T6N8pzV/vgu92Lybc9sD0lr82X5d+Y20H45LyOULrs7464G8fwEXO9alRQEZX/ItfXmM8fQjKImoTj/Izc3zxG902i/bUQyreWQeT1bvSdH8HY1TmdZrFNBmIfyfW+PIS+Lzcm5CMiqkePxSNktmNhxI/qCRkQ2Pfpt2vkOhww3wy68Ui+/WCHHQf023IZhE53Y0ZPERE9WXKIp9sQOOFE81NquhmOV8cx/jt5bTwfQdJYZp3ciyHw2wL6Xneh7Hvz5fXZrt+WedaF7uNA6o6etvoxgrGv2tAjA5zoe2vJZwGxD/yY+60MqPY2Gyn24wH0/+jHyFXrI2E2dHxwDdeuBGp/CCZz770wjNw/DCBW7Q4OEdETaJMDmARC+u6E65hXXsrXSWu/+QnbW5v75W2Jcy3ovqIniIieOM1wv1QRUMipAy7ZXM+s7x2F1JURjBz3wvOsTlhKJmLcGbcd64d3h06zSF0dB14NIPCqD7gxjPBXq8xrLobIOxl0vuDUCYodBw63YGwqLsO6VXrWA+9xWb4rfJSMiEjZ1AAmca4NYf1+KYv7xSQwZHmO2frc8NJ9aMrXW/L5Z6tF/XiWW8/cT9tZcyribTHWK+WzYnvW/CfOWfaj+vCUlu1E6E5lfxsZAFqmK5+fVsrqw1in8nG2Yp2o7eskIqINlL+Xg+2ECw49/fBSiE1E4f31nopgqbpcMo5Z/X6xJCIfOOE90ozmI1702zIY/zK+uj47t5Lyb1sH7BXBUYvNDvxjElUeFltGI/b82ovoRKziETQioifTpgQwAy6zMV1s4C9ncb8YF/pvV+93YjyONqgnyqiGehsG5FrB2+oZ6DgCcqptuYa7GhDguW5APz9tbluut+QAAzJ/xvZNxWev+1vlhApI5PYiXUGkZZrq/6Pqoxh8uN5KL5T122F0ngY6jX1GkLqjnule2G7EOwxcWOhDNOAqD6xU8NLijQCDcWP/ajkjmLIMbpCZGJalUSIIX2dfHSLaaDLY+KwZI791ryjYWJFMErEvgT3P1b6PX/wgSb22e0ZqBiSFr8KIvtwJt8pcYxvcJ2zIvBNC9Edz/oo8kFnSb9eL7bk9wJcxJHmZJiLanACm2Im/eqBRzcP3iyk11LvkHybjUzEX3Dow6P54+fswEe/4MnddVibxsQxe5M+Oo27jkTmb3ew9M/Blla1fOYC+y154T6hgbfGneR2hsaqPP5gSGFfBixQ4bD5KZ3uh0wz6zg6XgjbbsT4dEHWg84V1e4iPiKiqwpfyWnp8GN7ndcJ6yKQwV+UaaWXtxJ/93F8jeMoh+mkGPceLj341wv1yH5wYR/DLTY4cbHZZwjmkGMAQEW3uI2Sut+Lo1O83Vgaxz8zGfFXfpmp/WlbsTyN8SL288rtG1SUQq3isrMGlR0yrlocu3fnUGMktvESwUsV0TN9ZqUbdzdFvjbtFqnyr3D4R0Wr9EMLAX9oxeqxqt/q1KxRW1dG++bAHbv2+zI1xDH88js6/Me/UGC9nn7HtyKeTi0YQWzRM80qG/repsGgNjEEQkqqoRERPvE3uxO+C99jj/6m/2Y+kBanTq7lrtAz9WFfpdbnKIAb77Os3sAER0Wa6l8DQe0DPHyo79a+DxkYY90weGFPLa3TDt+hvTwGxy2F0Ji3XZf2a/8gDTI0hckMvupxfOtGD+KK7Jekf4sBRZ/VR0VbEqYpKRPTE2+QA5lGxwX20ssdMBqlv9dslAoVSPxIE4FZ9WB6KHfZS/5Yl7vqsh1Z3qa9MyZ2U8fiaelxs4VELduInog0mg5eRwRS8570LjfdMFEMfr9NAyjY7HOrO8sNcVH+MInTDh479etrC/pIPPiQxfNX6qK/+nhlrsFP8IKq5DZ5TQPgra/lSmPlKBnBH2mAOrLxKxvXbATs/1SIiehwDGEtgsYTM9bBujAMzK/irVerrcSWlHwOQP40hjjsQPFF7uOXULeujZzXyJv+wLPddL5mJkAwV5B+80zqsuNKNntKIYDKIsHSsL1kmyIncqhyPZqbs0TCf7txfrJ9MSudysK/0uBg78RPRhsrJ69tvOtD3bjd2/pXlcasWH+Ao9jUpIHF2J1rcY2sYoUuyOeE+DMzernINy6TNa/69vDFZVSGF0Oke4Hh79bsjz7rRIQOSzFk/BqZWcp1shueNETg+GEboBzWdw9yHAxiyjcD/UpXw5YGZt/Td2gMsZ27PAofdcDKAISKC+tRoQzzzzDPiiy++EOJ2UMhmtFC7Kn8FRFwva5UOdZQvN1hcKi5k07+U3jEYsGy3QwRv68Wk+KBO7wqKtE4zlW+jVh7KJAKW5TtEYNCSPyNvaRHsKs43X4GEuaq1LB0hS07KtqleC/ko5b34KitDlX3JerBOV5a5sj7L8mEo1kl5HRJRfbt//77xOz89Pa1TNkH2muhvXbj+lL/84lpeLyfyYuZtl7C9OCpmdcpqzX/kEThzTW6paPH1svp1ruLvwqK/G1W2s2iZ6vLJUeHda5Pr2IXnTFDM/qRnWCx9zS/Ki2tnIDwfzetpIqL6Fo1GRVNTk55avQb1n7xorrtt27bh0qVLaG9v1ymPjvouFaOzvRqquFrfEiKiLS6fz+Ppp5+GDGBw8OBBnbqF3Yuhb3cIbd9eRMdKvsyynvwYwcl9cXhvDsO9TacREdWxqakpdHZ24v79+zpldbZQHxizL4f6okb7rsr+LkREtKVtcyPwmR1jp0MVo4XVuwIS7w2j8YMBBi9ERNrW7sTPUbyIiJ4Yja39uHhkEu2vjGPunk6sZw8yiL7ZjsD2MQxX6ztDRPSE2kIBjNlpXX2/ijFqmHp87K3anfOJiGjrsR8LIv5KDpHN/uLJdZC5KgMxTxiTv3eu/9DTRER1bEvdgbEdCy8ezpKIiJ4ozX/vR//R+v8LYDvaD//f884LEVGlrf0IGRERERERbSkMYIiIiIiIqG4wgCEiIiIiorrBAIaIiOhxk4uib/dO9E3V/nb+epWZDmHIuwdD0zqBiGiVGMAQEdHWMj2EhoaG6q/dbTj0ci9GPksi90AvT4/OrXH0HPdjYGJOJxARrR4DGCIi2lpa+43RKGfedsqJfkz+pEenlK/8lyPw7pjDcMcBOP6fAcR+NFdZuRwi74aw4YM0N3swfHMew0e22Chku3wIfzWCtXzddO6zEYTu6AkieqIxgCEioi2p5Xm7/L8J2y3fYN/4vAu+C9cQj/Sg5ashHHptld/cfyeK4Df6PT1CGUQn4vo9ET3pGMAQEdETx350GMNnbMAVP8a/KpiJy0oh9KYfET1Fj05qwg//FT1BRE88BjBERPQEaoT7Nz75M4Px6YX+GIXvQ+j7zR60qP4yLXvQ/kZU36GRwcvLh9D9aUYGPd3m/JcXHiXLfDWCk66dRj+bln3t6JuYQ1lYdC+JMa/a7k6cnEgh9enAko9DLeronksh+n4v2l+R+7w3h9Ab7dgp97XTM4LEPb2MVvg+Yqxr5HG3zMvVintMOXP9PS2qX9BOtL0it2F9lC6TQOhcN/a8kwB+TGDE2FYLDp026yL39Qi697UY9dP9fnKhnJb1CjfGzGXk9tvfCGGuIo+LFTA30Yd2Yx1Vrj6Evje3nPq0E4e8qq4j6H5O5blzoe4yMYy80mbUhXm8Kvcl682oK5l/ma/cVwNlgwfkpvqws+UQxr7TCURUH8QGeeaZZ8QXX3yhp4iI6FG6f/++UJf46elpnfLkSYc6ZB0ERFxPL3I7KDpkHaErKNJqOjspemwQPZ9njdnZ6wHhkvOL00p80LK8Nh/yClvXqJi5q6byIh3tN9ZzXZgx5isz552iJ2JuJ38zKLy2DhG8bUwulhwVnr024/gFEiohKybPOIRd5fWwTwxHZkT2Z5U8Kfwyv07LftS67tYeEb6ZNybnP1J14BLDSWNSiJ/iItDqFP7P0zKn0t0ZcfG43JetR0wa+Z8Ro0ccwqb2dTwgJhPmctlYv3DCJrx/uCjC3+r6ueyT2/aIizfVVMV631jLCmE7c83cn6Lr3SybaeZCjxhN6nr+OS9mVb5tXhEu1lEiIPdVUWcpsx6L6+VvT4r+Vrn/1mGZG1M24hPu92Z0Wa/JspfvNxv1C7vNLUa/1QlE9EhEo1HR1NSkp1aPd2CIiIhKPHA6zI7zzX/vRrv8mb63xCNmhRjGT4fQ/aoPzmdVQiNsRwYwMuhE4vQYIsadjQxS3yaRzqShBkVu3OVFYFD1z6lhfw8mp6wd3ZvhOT+L4KB660b3USean1LvD+DAC0AyW8xfDpH3etH8+gA6djUaKfauAQwfySCry5C6EsDAL3rQ85JN5lR61gnf23JfmTEMfJyUCU70RGMY6ZJvd7vhaTWXa36xHZ2yHIV97ejYq+vH5ZZ5jCJjlFGtN4mRo/KtWu9X5jJGWd/2IPNuBLFaI0LnorIOx9Dr3G7cfWn4qybseSUiqy2EcKLWcAkFxD7wI3S8B779el87PBj4YwDO6T6MfWbuLPX9JLK3Zb2rEeeedcM/6DfSi5qPDGM+fQ09e3UCEdUFBjBERPRk+mHW6M9iczpgU9PNHoymJ+HbkUFiYgS9nm4MqPSl3EhgSLaxt//CDBhMjXC96JE/xzF3S03b0PaSF/HX9sAhA4De96NA1zC8O9S8dfB9Sj/KNoe5j2XQ8qxl5LJtTvij8wj8vcqfLNeU3HdzE5rMuaYdLnTKwCP5zZzezlrJrarAqoLd6ZbhTRhJoy6quJWUcwOI65HirK9gl3Fkqkgi8Y7M7S+azEBMa2yVwZP8Of6d+Vig43AvGt9tR4ujDSfPhZDcN4z+VmMWEdUxBjBERPQEKiD2+bj86UTfETXcsmL2wzj06x7E0Ab/5YuyWb0y+crvlHlKhQiy8a0b9LauIOa+DaN3Xwrh19ux09GN0A/mvPUWm7b0S6lG5jWv35p04NFoDQXW0bZmbJf1aTfuUFUh85ORNT7zvZ5ejZ/1Twuj5p8yy9L4q37E09cweng7Yme70dbShqHpJWuHiOoAAxgiInripCZ86H43A9vxAXTvN9NUh263twB/Ioz+Yy7Yt5Xdp6jul070yB/j0VhZ0FD4KStb0T649KNJiT+OILW3A/2hWaRlgzrgDKH704Q5c93YYe8Ckmf9CExlFvJTSGDoj2pfNjhcMlj7LIhY2d2QPPI5wPOi07wT9bB+ypfVRe7bBGL72+B4XidUMuowht4TvQjdsDxndmscQ1drPXfmgPOU/PHhJGJlFZ9HVpbC1+owJjMTI4g85UbPnyYxn51F8FQBAxciD3mniYg2GwMYIiLaktI/qDGzZIPWMipV4YcExk8fQps3hKauUUT/1FFqtBfuZWXDNo200aejgMzXMahvHsnJ9NRfkmb/lW0yALiZQvpBAYkPI0g1e+D/qAN4Z2AhaMjNYfzDILwXfHAXb2rc60PPm1Fk1ALPHoBjlwwYdiwRLsh9qv2l0sUGfAHZu/JHLisb6EUy8FB3fh7In8a0DR2nA3BBBiyeFjSp/iQNO7Hn135ABS6S89Vh9O+KYmBwHEk98ljm6hjGfgpgoKvYL0fuQ+32bnYhEJH5ScsfObn/Ep3HdKkPjvZZCMHvdL4zUQyfn4T3zW4U73OV1rurl2l2w/e2C5geQ3exH4x6vZCE06Ufh2tslOunkJKRR+HrcURuNcNz+iI6MCTLoutVbnXu4zEEj4/A92Kx4uPoOa3L2myHw7Edtl02FB+yK3w9wFHIiOqR2CAchYyIaPM80aOQGSNWofprl0u4TwREMGEdR0z7aUaMdtnlcjbhODYqZrJpMXnKJmwv+sVkSi+TCgvfLpSnibyYDflLI4fZW31iOFa+/fgnQTE7FxT+I3L7Nofwno8LPebWYhX57wj9vyLYZSmDMbJaXAQsy1hHW8teHxZeS14CkdmFEcCUu3ExfMJljmom8+I5I/NWykzFdtWIa8XR2oqvQbmnRXlU5U2b+XwrKCbPeIzt2/Z6RSA6b25aqbqekhUzH/UIj6xbo/5f8ovgnDXX8yJ8QtWdW/g/X9heXtXpS3r0M3lsfeevibQaoU1Lh4LiWlqW95haxm6W9Sc9U+IoZESb42FHIWtQ/8mLyLrbtm0bLl26hPZ2NYYLERE9Svl8Hk8//TRkAIODBw/qVKKNlEHo5RZ074tDvOXSaUREi01NTaGzsxP379/XKavDR8iIiIiIiKhuMIAhIiKidaD75Fj7zhARbQAGMERERPSQEhhq2ImTn8m377ej6eUQR/oiog3DAIaIiIgekgv91i+hvOxdnyGZiYiqYABDRERERER1gwEMERERERHVDQYwRERERERUNxjAEBERERFR3WAAQ0RERFtbJoHQuW7seSehE9bguzEc2n0IY9/paZJySE2NoddzEqE7OklZQV3lvo9i7LeH0D2xNcerm/vHQ9jpHsOcnn7Ult1/LoXo+71of6U+RwxkAENERER1RH3jfwMaGpZ+dZYaximMv9YN/9kQ5tT31NC6KXw5jEOv92JsKqtTVigTwUBXL3o/jPE7gzZFDtHBQ+h9fQzRezqpzjCAISIiojpig/eygEiH4ZNTHaH0wvDNxiuP+U+8aDQXluzwReIY6dKTa7W3B9duXkPPXj29rBwi727t78NpPBzA/KcBPWWxXF3ZOjD6bRBV1twyHKeuYT7WA4eeftSW3n8zPBfmERzUk3WIAQwRERHVH1uLDE2qaYT9eC/2/JDS05vkThTBb/R7IlpXDGCIiIho65gewtC0C/1/cOmEzZBC6E0/InqKiNYXAxgiIqK6V8DcRB/a97UY/T9a9rWj7+om34HYFAUkr0/q96uXuirrcLesP/cQEj/GMHCu2Om/emf1wo0xdKs63y3Tf5BBy1n1yJj8+fIhdH+aAa50o0X1yXm5+ChZ+XHa6elD6PtiLxDrPvRyMi8NuzsxdkMuc28OoTfasVOvF/1Br2ZY3fFPnLP2F+oslSkz0VmRtpbzqkbH/uK2VJlaDskgs0q/mR8TGHmlzShjQ8NOtL0yhmTNPhoJDJXKIF+lOrb2kZLH0UirYBnUQR3DTpmntneSModK7WO04nqr2kFephnHrwWH5H5zXw3IOtCz1lTPS2xvtR30y86tESTK6jyHxLsn0aaOm5rvOmmej9JCuc1Xaf/TQ6W0hb5o60xskGeeeUZ88cUXeoqIiB6l+/fvC3WJn56e1im0lWWjPcKGHjGZNaZEfNAlj39xequKi4A8x9V5XvkKJPQiJWkR7JLzBuN6uoq7YeE7PCpm8vL9z1lxTdWhXj4b9QvHLrXtDhG8bSRJM2J4f48I31Xv82L+E6+wdQXlnkzxQbm8ZVqZudAjRpP6oPycF7MfdQjYvCIst7mwD7fwfzApZtV2f54XF1W+j/jE8Adxkf5Zpv0k93sYwvaHa3KvpjUd/9RF0SHrqv+6ntbmLwfFjNqPtKLtJgJl9VK9rlTZXcJ2/KKYVevK+p35pEc45f47QsUamhWjrRDu92bNyVRQeG0Qzgsz5nQ12Vlx8bhN4O9H5doWt4Oio+uimNflKCfrr9UhyyXzeGZUxOXxmA95hf13k7KESx8jw7L1lhWTZxzCrrZvOf7ZiE+WbcY8ZneviYAsa/E8Xcvxq7296vuvxjhHD8tz6/KMyKq8Z6+J/v3ldT77nsyL/L2YVfPl+RhU9b1/WNaiKR3tFy65r57PrZnNy217RH+sdgGi0ahoamrSU6vHOzBERERbwREnHM3qTTNch9vlzzRydTrC0GqUd+LP4tpbslm8Fj/MYfJuCumcfP9UM9xnAvCbc9B8ZBizlZ3VMynM3EgjnVErqH43AQSeN2dVlYti/PQYep3bzU+n/6oJe16JyO2EEE5kLPtoxoEjHjielW+fsqP9qGwuT9nR9qoLtqdk2jYn2l6Qq93KQO25ZLXH//lu9PzBhuRN6yf9Kcxtc8Gp9lO0yu1Wras7IQROb0fgrM/clqxfZ1cH3OZcCxtce3XPpufdaJflTN4r3qGqotkB39kAPF8HEPxqYbnkxCgcp7pht5ajxAl/ImYO6vBjCxz7m2E/FsT8ex40L3OMDMvWWzM852cXdZBPfT+J7G1Zd2okvGfd8A8Wzy5tlfVce3vV919TsxvdXU40q7w378Ge3Yvr3PYrh1mX8nx0H2kDbhT03So578gAArI+xv4xLGtB+1HWY6IDvheNAm0IBjBERER1rvnIKNJRH1ruJBB6txftxwf0nCeNDDw8nfr9Ku31oLdxBO0t6tGlIYRu7MHwW0v0o7G1ofN4HL37HNjzGzWUMNB53iub4DXcSiKMAOJlI6aZr2BXzbVWZG3HvxFth32YeXMcMd0aLUwn0fjrhaER1uu8yiQmEUEb9uzSCUpjE7brtyYHehJpBF4oYG5qHH1e2Si/omctZVc3/GeAoXeDZgO6EEM40onOFxfGoavJ3iLPGIsVHaPl660ax+FeNL7bjhZHG06eCyG5bxj9rea8tdTzUtt7aOlsKTh2/C6O9NtuFL6XQckb3XCfruzZ1Qj3KzKInBrAuA4iU1fHgVc7awyysT4YwBAREdU79Qz76UM4cDoGvOBH+IOtPEDtMlr719aQa3Si/3oa197zYPv1AXS7WtB2LlH6pHkxGzo+mcNspBfOVBi9np1w/ENo4VPoSg9kQx4xzHyvp9fTGo9/44ud6LPJYG1KNVdziH4DHFB3forW67x6ULsWrXJfj6DT2YmRWy3wvTe5wqGvZQP6twsN6ML1KKIvu7Gm+3ArPEbL1lsVjb/qRzx9DaOHtyN2thttLW0Ymtb1soZ6XnJ7D+vH3MJ5r/olvbwHnRdSaHllDJPnO/QMi7IgMoXYhB0dG3j3RWEAQ0REVNdkA+pNN7of+DFzuR/eVrv6cJtujGHE8ljRsu6EMHJVNoZ/N4rJm1nMftKDwtlhRMo6olvJht27KTiO9iP4bRrpWAAHPu1GqNQxu8IvneiRjePeE70I3bA8/HVrHENXyx4GW6WHOf5OdLzuwfj5cSRvRZHe67HckVi/86r5WfVZfBjxG+Z0mQd58+d3Y/C8EIX7yjVc/J16hG4VOys1oEcwMjGHnpfW+Bjhio/RUvVWXWZiBJGn3Oj50yTms7MInipg4EJEBkxrq+fa21tPcxh7qQ3RF8O49kEPPL9sRlPVx/IWgsixc+MY/1UH3BsbvzCAISIiqm8FFHKy2ZKRjWj1PHwhg8RXcfkmh/y9FJJ/UQ2vAhJnd6LFPSabJFuELK9xt6PYALbI3RhHd1caTlfxMaIssqoa7i48GlNN/LUejBsN12bY9zmw3eaATX+yXsim5f8ppH80p5XCGz0YmMoYn1bb5PJ2eErLN26TjeibcvkHsu4/jCDV7IbvbRcwPYbuYh8L9XohKfNptvbMfeSQtfR9yOZUftKWtAKyd+WPnCyTnl7++Ndmf8kH3/Qwen4rg7FSfSkr224pz5bdVNZV4+FuDLcm0XdqANE7ZlCZuhqWoQIQeaMde95NyJVyco0s0kYnJLnFGzHEb8s3P+WR+0tymfNWNqC9fXDJBvQAfOi0PqpWVR55VaafzamSFRyjotr1puhjdFPWnZkgxdFzWgY8qk6a7XA4tsO2yybPtLUev1rbU6rtv5LlPFL7Neh6kb9T5m9VAbkf5DmYTsvcSD8mEUuoLWaRl++T1jtVuzrRcwoYORtF58tueUQ2mNggHIWMiGjzcBSyJ0s+OSo61MhPNofwvjcjsulJ0WOzCffvJ8W8uYSYedslbC9WjNZUl/SIYmqUpSVettKIYxWjldUamel2UARjaRE/7xUOG4T9iF8E58xxvtKhjrJtm6M9xUXwk1kxG/ILj6x7216vGL5uGXUpFRY+lf6iX0ymdJrIipmPeozlZcgjHC8tvQ9jlKhSmhrVq7LsAZmLlRz/pWTF5CkI5/nFo30tt91qea5eV1J2RoyecBmjY9n2+kQ4JY/LLo/wfxQXaaMK5sXk793G6GCq7sMpec5ecAns6hCjSbOOlpYW4eM20R9bblnL+SDL5ThReT7UPkblatVb9WOUDgXFtXRcDB9TI6DZhedMUMz+ZK6xluNXe3vV91+u2jKVo/qZ681/7hdu+fsAdawi8zKvw8Il99dRHAHN6puAcBy5uIJz7uFHIWtQ/8mMrrtt27bh0qVLaG9XIykQEdGjlM/n8fTTT0MGMDh48KBOJSLaogoxDLyYRGfCv7b+L/TQUh+3Y6g5iItHl39+bGpqCp2dnbh//75OWR0+QkZEREREdW3u4xEkf9vB4GWz5KIYe9sJ75EN7vyiMYAhIiIiorqTm+pFi+6nsueTNgx0beTAvbTYHMZcup/Qdh/Sgz64N7zzi4kBDBERERHVnca/sWOPDbAfCeDa1X64tukZ9IhsR4tDBo02B3wfxTB+7NEFkAxgiIiIiKjuNP7Kj2tpgfloP9zLfA8LbQQbOj6ah0jP4uIJx8aPPGbBAIaIiIiIiOoGAxgiIiIiIqobDGCIiIiIiKhuMIAhIiLaah7kMDc1hpPuboTu6LTHUOH7EPo8O41RjHZ6+hD63vyW9ppyKUTf70X7KyFkdBIRPXkYwBAREW0xmasD6Hy9F+NfLRMQbKYfQvC9mYXv83mI7Az82yIYuJLUM6spIHbhEHpfH0P0nk4ioicSAxgiIqItxnZ0FLOfBvTUauQQeffR3N1IfOpHyHkAjqfkRLMTPZfnMf+Wy5xZVSPcg/MIDupJqxsjGJnW79fVo6sPIlo5BjBERERkuhNF8Bv9fkNlkPp2vcKCAhJXg/L/DfDI6oOIVoMBDBEREUkphN70I6KnNlYa6Zv67UMqTI/Af3apR8/W6lHWBxGtBgMYIiKireDeHEJvtGNnQwNa3ENIZHW6hdFp/jd70CKXaWjZg/Y3orKZrsjG+suH0P1pBrjSbc5/eeHRqcxXIzjpMjvbt+xrR9/EXPkdj3tJjHnVdnfi5EQKqU8Hag4ekJnolNs5gL4bcuJsm7HNhnMJc+aPCYy80maUoUFuq+2VMSSX6O+S+2oI7UcHoNYecKl1GjBkPEpWwNxEH9r3tRhpRp6vmiU1ZBIInevGnnfkmmqfRt5bsOe3kRXUR/m2Fw0+sIq6IKK1YQBDRERU95IYOezG5O5hzAiB9GUPUlfDep6Wi6LvxW4UXo0jLZfJyoZ59t12jFzNyZl2eC/PI676l3QFjfnishc2OZma6IbzHxvRc3UeQuSRPO9EXDbQ3X9cuOuR/Ecf5rrUducx+usEBt6Y03MWsx0Ly+3EYfTQGYzL93JfRt+XOYy91IaocxzzKi0VgH2qF74Pa99daX6xH9e+CaJDvg8k5Dpyvf5WWdSpPri9BfRcT8u0LCIvZzHymxFEVVFlXY294oP/bAhzc2GEknb0hGaRnhuA/cPOZesj+cc+xBwDmPxWbvvnPCa7Uuh+0YeIDlJWUxdEtDYMYIiIiOpcZiKAvu0BBF51oFklPOtEx1G3Ma+cB06HsQSa/96NdvkzfW+J3iOFGMZPh9D9qg/OZ1VCI2xHBjAy6ETi9BgiP6o01Z8liXQmDdX0b9zlRWDQrmasgQ2uvXrd52X+XpABwVL5W8oRJ8yiNsN12CgpcsbdHCd6ojGMdMm3uzvhPWyTpZJ+eQBt8kc6V+XWVZEMAsdluXud2427Lw1/1YQ9r0RkFYQQTqj7M+tZF0RUCwMYIiKiupZBfEo2ol17YG0qN/5iu36nNXswmp6Eb0cGiYkR9Hq6MaBn1XQjgSHZLt/+C6OJrzXC9aJH/hzH3C01bUPbS17EX9sDx7529L4fBbqG4d2h5q2GAz2JNAIvFDA3NY4+rxv+K3rWKjUfGUU66kPLnQRC7/ai/fiyJS2J/FB8cK6KW0mEEUBc3ZGpeAW71P2Z9aoLIloKAxgiIqI6V1jRTQqz78ahX/cghjb4L180H+NagfwD/aboqSb5n2ywqyGQ1buuIOa+DaN3Xwrh19ux09GN0A/mvNXIfT2CTmcnRm61wPfepHmXZC1Uf6DTh3DgdAx4wY/wB2sZUroKWQ8ZWXsz3+vpKtarLoioNgYwREREda0Ztuflj0gcVXuL6OCj2C/Enwij/5gL9m0qCFnGL53okT/Go7GyTvuFn7Kype6Da685nfjjCFJ7O9Cv+pKkryHgDKH7U90xf6W+G4PnhSjcV67h4u88cDy7gvxVlUP0TTe6H/gxc7kf3lY7Gte6qUpGfcTQe6IXoRtGhxrTrXEMGX1n1qkuiGhJDGCIiIjqWqMMTIbhutGHnjejyKhI40EK0csx+SYC/0t7jC95LNzLIqOGLzb6rRSQ+TqGuHyXk+mpvyTNPhvbnMDNFNIPCkh8GEGq2QP/Rx3AOwMITGXMICY3h/EPg/Be8MFdfLLsnmXfzx6AYxfg2aEeqaqhkEde/cwb/5sKOaSQlY1+MxDI3ZD5uy3f/JRHTubP7ApfQPaumplFtnhXaFszWuSP1O2M8e3+41/9s9yUfJ+RZVXLFDJIfGWUFPl7KST/orYv11c/7mYXArMHi/O0uD7c8L3tAqbH0F3sB6NeLyThdJl9i5asi1shdLbsRN+UWUYiWiOxQZ555hnxxRdf6CkiInqU7t+/L9Qlfnp6WqfQVpf9ZlT4Wu3yuNuE49WwmL8eEPYjfnExkRZ5tcBPM2K0S88/NipmsmkxecombC/6xWTK2IQQqbDw7UJ5mlx7NuQXnr0245yyt/rEcCyt55ninwTF7FxQ+I/I7dscwns+LrJ6XqV0qMPYjvXVEVLbmxeTv3cL2dQ38h1O5cXMBZfArg4xmlQlSItgl3W9gIgbW8yL+NtqPbvoeG/GKGs+OSo6ZDmMvMi0bHpS9Nhswv37SbmXuAiUtiFfXUGRvh0UMkwrT1ObrlofWTHzUY/wqO2runzJL4JzRg0blqyL22HhtdmFP1qrdoieDNFoVDQ1Nemp1WtQ/8lf1nW3bds2XLp0Ce3tauQPIiJ6lPL5PJ5++mnIAAYHDx7UqURERJtvamoKnZ2duH//vk5ZHT5CRkREREREdYMBDBERERER1Q0GMEREREREVDcYwBARERERUd1gAENERERERHWDAQwREREREdUNBjBERERERFQ3GMAQERHVucx0CEPePRia1gm0iRIYamhA50RGT9OWcSeETnls+Xu2+RjAEBER1bMbY/C96sfAxJxO2OoyCL3cgAbZkDRfQzJkWErF8i+HZMoGMRq4bRjQk7SFqGP7XDcierLuqfKcs/zmVE4/5hjAEBER1bP9PZicGkGHntz6bPBeFhC3g7rMA4gt9Yn49Di6r6g3HQjelutd9sotbJAdXoRFHAE9+fhKYGgTGquZiSGE7uiJeqOObemcW8b00AbdpZHB+Ll1CMBVsHIaGHvLpRPk+VA2/fhjAENERET1Z4cdB7o6jAblwIXajbrElwPokMsBB2DfYaY98aZjm3CXKIPYZzP6/damzrkNcSeG8Lf6/UPIXA/jwGlLID+dgv3CBgb2G4ABDBEREdWpTvSFZHBypRvj1T7xvhPC8LdB9B3V0yQlMOTahPBlokffCdvipofQdla/X1cZhE6v3yNsAy7r45cpdD+npjvr5g4ZAxgiIqKt4kEOiXe7sadFNkZ2t6Pvs5SesXXZj/UZj2xVuwuT+Ljb+KTZrqcrJc7pfjH6VfbYj3rMppgmG6XFZap1zs9MdFbfRpHeVnGZpfvhmIMAGMsVH/Oyrm959MvIv7Etaz+fJfoEGdvRfXTOti3anrUc6rWoLMuWYyHvqp6Kj4ypfLZ4VdM7sqKGcvlxqVYeSx2pV2U+jONl7mPZY1Nh+X3XZuxLB4dmgGDdZ0WeS/VerY+WdVlVDjXdYgaAMlhvKS2nWc5P9VpuAAmb/p0pafUh2KXfF5XqsDx/i+twmWNh+T0q1u1KjsOyxAZ55plnxBdffKGniIjoUbp//75Ql/jp6WmdQlva7aDokMfbcyYsZrMqIStmP/AKG2zC/+e8scjWExeBrqBIy3fpUIdxvgcS5hyTnI+A/L8433xfFB+EgF5fLiFkA25hmUTA2J56dXTJdQfNNc3tdIjgbWPSUL4dPa3WC+kUfWxKedPbLs2vSudH79ekylNMK+ZX7btDbr+YJ+sytVTbts63Ja1Yp6sph9pGcf6iujKWL6+7xSrzpstjqV8zH9bt6GXKjrWalvUit1XMn3lcys+Bcua+refQonUq66CaassYadZ9Lz5OleeNUQ5ruSVjmYq0RcsVz90lz4GlldfhQl2bebTU/TLHwvp7FBgMyDox61iVMRqNiqamJmOtteAdGCIioi2iraMDjmb1rhmOV8cwdiKDkU+j5Z+IbkG2FzoX9YXJTAxjJuTDkt2S99n1c/82uI+qLWit/QuDBBwdg9Cdm232A8bPkjshDJ/tQNDSf8D1VrVO/B0L/W9a3evQyd8cyEA2KIErB9AnwvAa27fDXvlJ+koUy3FiobZsx8aMT+Uj3nHLXYilypFB6ltgJmUeAduxMNKhivpajjHgQgDxUmdyF3zqEUELdVctMtiny6u40J9QORnA8ETG2K9sOMvpCA6cFggfM4+MfVf5dhbRgz0U75yol/ko2DKDRKyAkWe5nTa93YbSXbBYqW5db5nHM+JtwdC5IbTc6lvBgBMJjHsjCFj7s8hz1zgvzg4veZdrKeV1WDy3iud2BN0fm7le7lhYf48G4EZ/q3neFo/Jw2AAQ0REtCU1w+lyA1/OIa1TtqwdXvQZjfkwYkajTTXsZMN+iYaSajCagYn5CIz5iNNiB+yV24ggpRuGqjO0bOItPTiAMTKZ2Qg0H2da52GWu2TQot+WfJtaVdBqlqNSMaibMcu7bDnM5VUD3Gikn0vIhnC/pXG7vExqZlF5jMZ0qSGfQKxa/xIdTEVuWR+ZtARbJbosVZj7DiIt5HlR8epv1QutiRnYdYTSi7YrRH9ZgO16K20EjQNnZ8qCyZpqDMbgOmwGH7XKunKVdagDZOP8Ws2xAAKHV1CeVWAAQ0REtEXl7mVla8YuQ5mtz3VCfdKrPx2WDbtl777owKWhIQa3bEymKz7pX0/Ffhg9GJON1noYZrm65cphBBvFO1dGH5s1dAovBaGb4EoKG9VrrLJBX53cvzHQgeortLr+N4+GDfZ98kfpzuXmYQBDRES0JaUw82USrhedNTuxbynFuzCq4eyaQecLSzWxVPDSJoMc9al4+afgq2E+Urb0I0aq0d/iPYC4DJLW49GZjWCWI4Lw9Sr3bbo64dZ3XZYrR+KcbHQbd2rU3YXyx41WopiP7tPlHcEXvj9G3wGwPHpl9TCf8hePZVtlx/3ph/1OF93oV+elZcAExagv/V6WEqGXh2FX31Vk1J3My6JBEirssJuPZ31ZtTbgfqg7R9WYd106dqkrysYdi5VgAENERFTvtjWjRbYpJ0MhzOVUQg5zHw5gqBDAyAmHsQhQQOLsTrS4x7AlvrP/jgzQ9Nsi8y6MVPZcftHix4cWPhVX31FSfIgqgcRKG6z6cZkB10JDVPW9UY/1GI9SlRqsln1bHvvJTCdqNFCLjd6FxmHinGX0sIqG8JoYjwHJRvOE3JbuN2H0vyiVvUr/imXLIRvdpby54JbbNBu7RfqxpulQ9TszxdGwiiNt6VfLZ3YjiFL14r2gjnF5496o864gfA/TYC+NxGXtqyJfsh1eGQgU+/ksxVjmjiynrM/SeVkc+U2/2uDWwbMKXnqAC8X+Ji70qztZqh4qj7W+S5SYkOWXweKYunMot7sw8pjc1oUBdCx7B3IlygNQ89wO6EczN/BYrITYIByFjIho83AUsifQ3bgYPeURsrkosMslfOevifTPep4hL2bedgnbi6NiVqfUJ8sIXPpVPhJW5ShJ5csWR2xaGGlJveQ6oeKISQERt4yepF5q++XLW/dZHHmpmB40pmvNx2CwlH9rvhcrXy+QsI5cVVkHatSniv2UjXpVoVQ+6whSqu6s65fPW0k54rLsaWvdlY2EZcnzkiNkVStbhcrjatle5XFSo4GVl2upUcSW2HeVc6KW0v4WjZ62sL41zwv5K+6vxrG0bMNahmplfmhGea2/F5Z8WC1RrqXq7GFHIWtQ/8mNrrtt27bh0qVLaG9v1ylERPSo5PN5PP3005ABDA4ePKhTiYiIVkB9D4xrBsHbC6OQraepqSl0dnbi/v37OmV1+AgZERERERHVDQYwRERERERUNxjAEBERERGRwRgu22UMRYHu5xoechS2jcEAhoiIiIiIDMb3+RhDYZuvh/siz43BAIaIiIiIiOoGAxgiIiIiIqobDGCIiIiIiKhuMIAhIiLaMgqYm+hD+271Td870f5GCHP39CzaknLfRzH220PoLn0T+3rLITU1hl7Pyerfnk+0CRjAEBERbRGpCR8Gcj5M3hTIfuNH42cDiHynZ9LWk4lgoKsXvR/GZOi6MQpfDuPQ670Ym8rqFHqk7oTQ2dCAhpdDMEPUBIbKpp9MDGCIiIi2hARCp0M44HQYU82/6kH45vxjOYLQI3VjBCPrOQzsem1vPbZj68Dot0EE9ORGaDwcwPynG7mHrUgGGecS+v1DupNCRP280o1xdb7I6Rnr9BOKAQwREdFWoBo2T/JHslUVkLgaXMe7E+u1vfXOFz1WpmNQ36KyLlr7zeGMEzqI3OFFWE6nQx3m9BOKAQwREdFW8GMaKf2WTIXpEfjPJvXUw1uv7a13vuhxksCQ8SWQ6yuTssNtuZuaunWgbPpJwwCGiIiormUQerkBDc4+qCbxgEt14F/49uzC9yH0/WYPWtRz8y170P5GVAc6+ln64qv0TL3eXlmalIlh5JU27Cxtp3yAgMx0CEPePXK/BSTf75TLtWHoL7XuMeSQeL9XDzbQgj3eMSQrBxtYcn/WjuWWgQt2t2NE7t9Y4qshtB8dkKWsrBO9/L4WI22npw+h7635TCH6RrvcbwsOvZOQ2xkw1qu9PenHRFleu9+V6+lZlZbcTm4OIbnvPS0qfSfaXhlB4kc9r8RS3pZDct3FfVNqH3PtXhJj8li1yH2cnEgh9enAqjvor+8+9DmnHruaHjLqxHhV9PNInNNpi/qF6HnF9RqGjPotU1zHeHWW5cX45vmK9IXtWZbV2zCOlyWfncUBFIz5bebdl7Nt5vzio2Rl+5evirItbE/tT9bHueJ8s2564IbLmDbzFjvcX5p+IokN8swzz4gvvvhCTxER0aN0//59oS7x09PTOoW2vETAOOaBhJ5WspOixwbR83nWnLweELLRU5pW5j/qkOv1i7ieNs2L8Ccz+r2UCgqvrUOMJs318rcnRX8rBFqHhbHUN8PCtddm7N//XlzMZOdF8Lhd9EQX9rMgKyZ/Zxee83GR/VlNXhP9+yFspyblHG2Z/WWjfuHYJafhFr4LYTFzVy0lt3tG5mG/zpNyOyg6Kupk5kJPabvi57yYVeW3eUX4tpmUjfiE+70ZkVcTd6+JgNxvaf0q2xN3J4X/D5Mibawg8yrXUeVxva23UU217fwUl/tyCv/nab3vGXHxuCyPrUdMGuUzzVxwCdvxi2JWFeHnrJj5pEc45bY6QmlzgRUc85nzTtET0XV706zroC5/Vca5ZVlmXfchyy3XVecOujpEx6A+E3UdwZhOi2BXcZmACAwGRdrIU0Cubc6z1mV8UC2r5mmV9a1/V8yXXq6yjFI6pH43dJplnQ6ZTzNfFcsYdF6L5VBq7L90zIw6KOZXr98ly2hMb03RaFQ0NTXpqdXjHRgiIqItzQOno9l41/z3brTLn+l7C3cc7Md60G9LYvaWTlBuzaHRJZvFhgJiH/gROt4D335zO407PBj4YwDO6T6MfZYDfuVHfGoEspGG3A4HnM12eD+Zx+gRc/kyN8YxcMWHgTMuND8lp5vd8J3tgT2Tg3kvYfn9NR8ZxqzRsbwZ7q4OOJ9VSzXjgLNNbj9bu29JLorx02PodW43P+3+qybseSUCZEIIJ8zPu1PfTyJ7O43cAznxrBv+Qb+RXkvy0wGMvNOOlibzk/WmvzmEoRtA4r0o5vQyK5G6EsDAL3rQ85INjSrhWSd8b8s6zYxh4GP9uNmdEAKntyNw1gfjkD7VDKcsv9uca7HUMc8g9W0S6Ywso5xq3OVFYNBuzlqV9dqHS4bPachGu9SJsbf0fYUdXoypfh5nhxG6Y4P3soAMTIArM7Cf8MJm9A3ph2t6HN1XFu5mqVfbWbWBAcT0na3M9TAiCCw8ctXqM/c3GDe3YaYuTe3vdtA4x3F0DELn02Y/YPxcXgfsO/TbVnf5wAtGx/wZpIw7Paqssj72GXOoBgYwREREW1WzB6PpSfh2ZJCYGEGvp3tx5+LGNrhPzGDgo+JQvAUkvm1E2y5jQkoi8Y5s3P+iyWxYa42yEeaRP8e/K2+m21uqBC0Wmbk4kvtsspm2wH50FPGIF2YTd3X7W2xONwSruJVEWDYd46pTdMUr2GXmyHG4F43vyoDE0YaT50Iyr8NLjOQmG+rJJDpC6UXbE+l+FEPA5cnjMxWVx6sJTTrFsMOFzqOyRr6Zk0vIpRKTsiHehj2lYyM1NmG7fmtY9pjb0PaSF/HX9sCxrx2978v9dg3DW2xcr8RG7WOfvey8MIODSPnx7OqE27KdTGpGpgWRrqx/+ap93GywqwDh25RRr6t1wG7NpVKRx0pGx/uwUX7zcTX9mFnRDjc6uyLofs4MwIamZRDzlgzS9GxajAEMERHRlmX2lzj06x7EZMPXf/lilSF3G+F+uQ8t74QQVf0tfoxiBgewKAz5Wf+0UI1t21PWMGOFvowisVSDT1nP/RU9UKFCDDPf6+kqGn/Vj3j6GkYPb0fsbDfaWtpkg7LmPR0U5KxIYqb2XZ/VkPnL67cmWWJ1l6pRl/nBSvay/DG3yQb/3Ldh9O5LIfx6O3Y6uhH6Qc9ckUexD2mHHR3WOxe1XEktOYCF7VifzN8Ahktf9pmQx1b+qAiYNlKxn00PxmRwFa+oL/MOU3FkMeNuUmUfGSrDAIaIiGiLyk31we0twJ8Io/+YC/ZtZZ/vL9jfgZ4j4xj+NInUVBqOske/HHCekj8+nETM2n4u5JGVDS9fq/m9MyulPlW3IQL/m+NIWjqoZyaGdGfp9d1fmV86ZQMyht4TvQjdsHSzvzWOoavmdGZiBJGn3Oj50yTms7MInipg4EKkRmPSBod61O59HzrfiSFTym8BsXNjxqAKK6O381kQMeujfDKcyctseV50yiWA5mfVPaow4jeMmeUemKHPSo554o8jSO3tQH9oFmkZrAWcIXR/uqjbe02PYh+K+ejXgSUDGPMuzQDaKjvuTw8tDI6gHlNLBBDxmgM3GHdA1ONjxcfVNpgKXlq8B4w7f+Fj1UIm83tjbMfC5t0jNWTyE/49L8thAENERLQFFH4yG7B5y0f4hXtZ2fBOI20ECgVkvo4hLt/lZHrqL0nLSFl2dL7qQ+J8D07ecaCt7CZHMzynL6IDQ7LRF9WN9BzmPh5D8PgIfC8W7w7o/au+I0tp9WLkuA2ZT0/iwN+Yj8y07NuDts/s+tGgle2vkE0b6VnL6GV5HUCU8rCtGS3yR+q2DD9+CGE82Qbf27LROj2G7mI/GPV6IQmnqxi0xdFzWgdXzXY4HNth22Uz70hVbu+rApxdA/DaMoi+eajUD6ahoQkD29pqP0JWbTuvDqN/V1SWeSGwy1wdw9hPAQx0mQ/XNR7uxnBrEn2nBhC9YxY2dTUsQzIgokYvezexsmN+rw89b+q6ffYAHLtkkLSj9r2IUl3rE2Yj9mEw+rvo97JRP+6NoCPkW7qPSrE/ixHEFOtfvuRKpT4vagSwL91lj5ctCl6Muz0RhK/rUFWu0yP3rx4P636ufNSyFTEeT8sgNFEMq4p9XCTL98RkphNyKemsutNnJOk+Miu481SiRxRcry/PrAfyIG4IjkJGRLR5OArZk8QyQlPppUdF+mlGjHbZ5bRNOI6NiplsWkyesgnbi34xmTLXLlEjS8EphpN6ukJ+Lij8LzmEbIIK7HIJ3/lrIq1GEVMsIzTZ9jqErzS6Ug0/zYrgGY+QzXIBm0N4To2KuGWkLWWp/ZkjP5n7Uy81upM58lR5mtyKiL/tltuwi47iyGIiK2Y+6hEeYxQzWS8v+UVwbmG8sHQoKK6l42L4mNq3XXjOBMXsT3pm1e1JqUkRMJaX2zTyGl8YUa2qGtu5K/d7wrVQL2rflRvKymOql7Ht9YlwKi4CuzzC/1HcHAltBcc8/oncrqrfI3I5uR/vEvmtVtfrvY/SOTwYLDuXF0bpqjzHLSOMGZaeX1mGhVe1Ucf0vK6giFtHGCsbuczMW+V2S/ktLVvcvmWkNfWylNNcJy6C8qf1HC6NWLYievvWkc8ecw87ClmD+k9W1Lrbtm0bLl26hPZ2NS4FERE9Svl8Hk8//TRkAIODBw/qVCKix5H6rpMWdO/bqMe61B2Kio7zRWoAgMvsMP+oTU1NobOzE/fv39cpq8NHyIiIiIho65qOyRjG8vhY6ZVG8Oij68hP64cBDBERERFtTar/i6vqvRczsHlhI+740EZjAENEREREm0Q93tVifBml6si+7sMHq+9gSQTKvuiy9PrSvrrvv6HHBgMYIiIiItok6pv4LY91bUR/FONb+y37KL4e0TDKtP4YwBARERERUd1gAENERERERHWDAQwREREREdUNBjBERERERFQ3GMAQEREREVHdYABDRERERER1gwEMERERERHVDQYwRERERERUNxjAEBERERFR3WAAQ0REREREdYMBDBERERER1Q0GMEREREREVDcYwBARERERUd1gAENERERERHWDAQwREREREdUNBjBERERERFQ3GoSk36+rv/3bv8Vrr72Gl19+WacQEdGjksvl8B//43/EH/7wB/yH//AfdCoREdHm+y//5b9gdHQU//N//k+dsjobFsBs27YNe/bswTfffKNTiIjoUXnmmWfwf//v/8Xf/d3f4X/8j/+hU4mIiDbfr371K+Nv0/3793XK6mxYAPPcc8/hP/2n/4Suri6dQkREj4q6A9Pe3o7//J//Mw4fPqxTiYiINl84HMaFCxdw+/ZtnbI6G3oH5tKlS8YfUCIierTy+TyefvppTE9P4+DBgzqViIho801NTaGzs3PNd2DYiZ+IiIiIiOoGAxgiIiIiIqobDGCIiIiIiKhuMIAhIiJ6XOVSiL7fi/ZXQsjoJKoTmQRC57qx552ETng85b6PYuy3h9A9sb5nWOGOKn8ndp57vMtP9YkBDBHRVjc9hIaGhmVeQzCbGRmEXq4yv9QIWTy/c0UNnxwS78rGXEsDWvZ1Y+TrnE4vl/s+Jhs9J9G2pgZ7AkOWfNV6DU3rxR97BcQuHELv62OI3tNJVCeSGHvFB//ZEOYe6KTHUSaCga5e9H4Yk2fbepLl71LljyClU4jWEwMYIqKtrrUfasDJmbedciKAuHyvpkuvu9cQaDUXBWzwXs4jm7wI3y4zxfPBPMRbLnPCmC8QH3TA9lIA127nET5m0/NqKSBxzgN/thux2wLp670onPHIQKKiyTQ9As/rQwj8aRyJNTXYXehX5fkmAKOkiYpy/pzFtcFiOepBI9yD8wgO6sknxY0RjKxnkLne21sRJ3qiMYw87t8kYevA6LdBeVVYb074E2ss/6YcL6o3DGCIiJ4QLc/b9bsKz7rhex1I3dHTsuHcvN+Hi18G4ZWxSfTsAEI/6FlSYXoI/mg3IqF+uHc06tQl3JINpLN70HfaA9tTcrrZBf/bboz+fgxJcwlTqx/xP1/D+Gt6eq1sdlQt6VPNcJ/olQXlw1iPLxnsXg2u492A9d4ebSweL1oZBjBERE+0DELnQsCxfnh36KSi570Yv9IPZyaE7jdC5qMgP4TgexMYmeqHa5ux1LKSV8cQ7XKj7VmdIDU629A5HUTshk54BDITQwjBi/5l7xjRZilMj8B/tiysfSjrvT3aWDxetFIMYIiInmR34ojf1O+raPz7AYypx66udKP3j+MYemUS7R/J4KVZL7CsDFJJ2SDZZ0dZ2NC8HS1IIj63urshuak+7Gw5hLHvdMJKPcggfn1WT2iWDvKpH6Loc7eg5R8iMsc5pKbG0Os5idAPcpnTh9DS0o1I8Q5Vbg6hN9qN/jwNDTvR9soIEj/qeYql83bhxhg6dzeg7Z1k9U+Vf0xg5JU27DT656htjSG5psfnckiossh9NTS0YI+3YjtL7admPZgK34fQ95s9aJHr7vT0IWK5G2dS/ZtOos3Yt1zGdRJjNyylXWF95L4aQvvRAaMv1oDL3JbZX6mAuYk+tO9rMbcv8xD63rL2vSTGvCp/O3FyIoXUpwMIyWNVe3vVWMug6s9yTK0DKdwzj72qx50eucwKj1Xu6xF0G/nfifY3IkhZ+8Usdw7UKJ9pmbqpSq+jyip/l4amszrdai3bLS/nySvVer/UPleWPF7L/c5JqatmmVrcQ3JeDAMcPGBrExvkmWeeEV988YWeIiKiR+n+/ftCXeKnp6d1ihDpUIeRtujVFRRpvUx18yJ43GYs2/N5VqetVFoEu+Q+BuN6uiguAnJ7HaHFe44P1s5TNuoXdptbjH6rE6q5HRQd1vKVXh0ieFsvI7cePuUQdpXeFRDhxLzIJgLC1Toq/nukRzh2mcsHLsfFfFbmtdVl7vMn9d4p/J+nRV5t5u6MuKjqxtYjJu+qhBkx3OoQMlgTODMq4smsmA95hf13k2Jxzc2K0VYI93uz5mQqKLw2COeFGXNaW6o+TFkx+Tu78JyPi+zPavKa6N8PYTtV3OdS+6ldD8bSt8NyWafo/7O5pex1Oa9Yn7uGZWnl1t9zCRyWy6t9/6zPlf3mvNXVh6SPXSChp6WZCz1iVK5n+DkvZj+S57HNK8L6WM6cd4qeiDk/f1OVzXKcq2xvMVl/Z/rF5G3jiMqNZMW1t5wCrQExI99PntH1c9gnhiMzuo4nhb/KsSqnz/0jfhH+VtfftxeNureduWaePys4B5Yq33J1U83MBZewHb8oZtVqP2fFzCc9winLZ/1dXMt2s5/3CFurrEdjM3mR/jwgPPI8tP7uL32uSNWO17K/cyotLHxyuzNqAVmma4NyP4uuOfQ4iUajoqmpSU+tHgMYIqItqHYAE5Chg0XqouhYNoCRIcwnOvgxGnU6cUXWN4BZkWqNINlYuthlDWBMxr6sDagi2YgHnGI4qae1+Y88sgF2UYZ0Fnp/zvPFregynwhXb6SXqMarTfTHihVava6WrY/ksHDayo/rvAzCXEeDOp/L76dWPSw+Z2SD/hSEy9LAVo1S2x+KDfJq66y0PqTKYycDhR513lV5eS+rGpEB2HF5Hv1ptrTt+Q/8qwtgVP1VbNt82UTgG3ORxcdAl+mt8mNVrvrxzEZ8ctsyGDA2ttyxWaJ8y9ZNFUZ9eMTFm3payV8TfrlO6XdxLdvNy9/n/dZyKPJ37rBcz1L+Zc+VKsdrRb9z3wSEbb9fB0+SKlNFvdPj5WEDGD5CRkT0JHu+HZ379PsaVKf9vh/6kP6zH7bpAfS8m1j0+E+1oZpXMlxxo+rU/yg8ZUf70QN6osLuFrTot+XsaLH021GPwyWmokBzE5p0imGHC51HgeQ3c6XHrgz2Fiz9pJ0DPYk0Ai8UMDc1jj6vG/4retYqZObiSO6zlT2iZz86injEqwczWOF+qtRD4zaVkkW+dMCbsV0mJRILZXX8Lo70224Uvo9i/I1uuE9H9JwKy9ZHFbeSCFcbOU++gl2qxDa0veRF/LU9cOxrR+/78vh0DS/uz7WEzM0ZJLuCkG3fin2k0f8rvVAt36fKj/kKNO9zwY0Y5ozHwJY7NkuUb9m6WSyTmEQEbdijRxg0NDZhu35rWMN28V0MozfkdndbB/WQvycVB3zF50rJCn/n9nrQ2ziC9hb1eNkQQjf2YLg0ciJtRQxgiIieaDZ43/KW90+x+iGE3g/sRmPAdjiAyFtOJM76MVI5BHJNNjhcTuBmuryhl0ljFk4c2F1zz+vOVm2ggrV4AOT1W5NsWqlArHEFI7JVUH0GOp2dGLnVAt97k2sfdvfLKBKlfhGLrXU/zYd9GH4xiLGP52B8c08mirBsc7pcjoVzRvXheHkPOi+k0PLKGCbPd+gZ60DWdUY29me+19NV2GTwMfdtGL37Ugi/3o6dju6yUfOW9UCey1fimFlT36M1uJeTIWEb7Do4Xu7Y1CzfCupmEVXW5axpu2qdFVjrubLc71yjE/3X07j2ngfbrw+g29WCtnNVPmihLYMBDBERSTlE39EjjRU9SCE0GIP7bPGT/Ea43hhDoDWBgVMVnbn1d81YX/36u2WcL3bD9WkUcUun28K3cYRau+HerxMeodzVIYRu6YlV0cHYZ0HEytbPIy9b954XnbUDwWq+G4PnhSjcV67h4u88cDxb9hnzitnsB+R+I/C/OY6kpY6NUddUUPMw+5ENw57BXmz/ZgAH1J21FwLIeeOI/l59044yh7GX2hB9MYxrH/TA88tmNK3nXbVfyv3LxnTviV6Ebli+/PTWOIaumtOJP44gtbcD/aFZpNPXEHCG0P3pyjtw2xxtMpQeg887hNidhSZv4cshjG3AKHmpZAzJVjecz8uJFRybmuVbQd1Uan5W/SaHEa9Wrgc6RFjDdvGsDW55Dsa+qTL/Z/1zTefKCn/n7oQwcrUR7t+NYvJmFrOf9KBwdnhh4A3achjAEBE9IdI/qPCk/HNMQyGD6JsejNlcZqDyoIDU9Dj6/p+TSL82Cq9qaBVtc8E/6AfUaFKHT2Lc2sCpZX8PRgZnMfyPidKn+IGzcQT+2GN84WSlvMpiLovsA3PaqvD1wPKjkGVSRiCWX7R+AZmpAXj+0QaXfoTG2NeiT3clY4ZUsQ3nq8Po3xXFwOBCsJC5OoaxnwIY6DLDPLU1Y9+lhlsNhZzMZ1Y2Ss06zN2IIX5bvvkpj9xfkrK5pxSQvatmVq8PQ6sXI8dtyHx6Egf+xnx8r2XfHrR9Zodb3XFawX5q1sOPUfR94sDwR2HMq8D0ZhwXz7gsj4IVkJOBbDadNo/tj0nEEmn5Jou8fJ80PsVfYX0o25qNx9hStzPG3b/xZBt8bzxq6gkAACnXSURBVLuA6TF0O7cvPKL4QhLO4lB49/rQ82YUGRV7PHsADnlsPTt0KFm5va+qfCa/vxsDqv6uDuDQc02lfTSdbUSbEWBbjoGaNOgyyUb/ojoraUSzTeYjGkToO133341j4O2CPPd9cKiElZwDtcrX7F6+bio0Hu7GcGsSfacGENXBWupqWIYrQESN8vWuDIzWsF3s6oT/lA3jr/WUrgm56TDCaoRDNQLdb9Wodis4V6ocr5X9zgHx0r6bYd/nwHabA7ayR0BpSxEbhJ34iYg2T1knfqND+uIOueWvYgd3s3O9dZ61Q23VkcxW1Fl2Xkye8RijOdn2esXw9SrduXXHXOu2KztfLz0K2eK8V3uZnZV1Z2kjzS4cexc6ElvLaN/rWNwB/G5cDJ9wmSNT2RzCcyZojuhksORBznOcWGowAlknv3cbI3TZ1UhVqbwxQhR2dYjRpOrmbM2jepV31C/z06wI6vo18nRqVMSLIzQtuZ8fataDkr7stex/4WXb6xPBm2ZX7PnP/cJtk+m7PMIfmRf55LCQobDoeG9G5FdVH4pc422V1+L6SlbMfNQjPMbIcDbheMkvgnMLncXjn8j6nwsK/xG7sQ+vGo1Nz6u+vSp+lnU06BUOVQ65rOvEsK6/aseg8jxb4rjInMTfK+bd3O61sgpY7hxYrnxL101V2Rkxqs9fdRzDKVkedew+iot0adU1bFfWYVieg0Ydyu0NJ+Q5eVzld1LM6nNx6XNFqXG8lvydk+S1IxhLi/h58xiqulw2v7SpHrYTf4P6T/4Crrtt27bh0qVLaG9v1ylERPSo5PN5PP3005ABDA4ePKhTiVZJfZ/GS+q7QvS01fEw0p90rO6xOSIiaWpqCp2dnbh//75OWR0+QkZERERVFW7NoeX9/KL+TSI/i4svNK9+VDEionXAAIaIiIgWy0XRdzSI9O0UMtYRugo5zN1I4cARN1Y/7hoR0cNjAENERESLNXswEOpGbsKHtl+YHblb9h3CyffjaPylB871GJKaiGgNGMAQERFRVbYXezB6OW6OQCZf6W+v4eIZD+x8doyINhEDGCIiIiIiqhsMYIiIiIiIqG4wgCEiIiIiorrBAIaIiJaQQ2pqDL2ekwjd0UmrpUaz2r0TfVPmN3QTbTnfjeFQSxtGbuhpWlZmOoQh757q3zFEZVhXizGAISJ6kkwPGaNJLf0aQkIvXvhyGIde78XYVFanENFGyUx0ljVSF6YTGKr6u1r+qpsG7q1x9Bz3Y2BiTidQTTfG4HuVdVWJAQwR0ZOktd8YTWrmbaecCCBe/GLC4uvuNQRazUWVxsMBzH8a0FNr1OzB8M15DB9Z6dBVOUTeDSGjp2h1cp+NrP1uGa3N3h5cS8fh36+n10AFKz0YQ3/x9296yDLtQr/6/UyYv4uBRMXvrXzFB41Z9WGXD+GvRtChJ7eGJEb+WPzoZx3t78Hk1Farq4fHAIaI6AnU8rxdv6vwrBu+14HUZjaA70QR/Ea/p1XKIDoR1++pfmQQ++wA+o7Z9DSQSNkxZpk27LDXbMi6TgTlLy7D/s1SmJbXLesXvtKGYgBDRERaBqFzIeBYP7yb9iWFKYTe9COip2h1UhN++K/oCaozA2hTj4Kd05/i3+pGi5p+efm7kZmJIYTgRX9lwEOPxr0ERn4/gKSepI3HAIaIiEx34ojf1O9XKXW1D+27G9DiHkLixxgGio0wqVoH1MKNMXTva0HD7pMI/SCDlrOqkSZ/vnwI3Z/K5tqVysZbAXMTch9qHZm+09OH0PcFY075QAN6OZmXht2dGLshl7k3h9Ab7dip14v+oFczlG+3ZV87+q6m9LzqrOXJfT1ilqPlkF4vh8S73djTorbVbe5fsfQ9KtaDemSoMs2ktnESbaoMDS3Y4x2RdapnSdXrTh6DTztxyKveR9D9nFq3U9aHpW7kstHTh9DS0o2IcYdtdWVfyK/arpmWOGfm35pWvX724OSVJeo1k5DBs6y3d+R586NsDMr1W2TZD52OyrOifDvd7ydlzq3Wcm60Y2TauhVZN8Y5Ivcp85D7aqD8fP0+hL7fqDzJdWUe2t8w81VUvZP1UvmqZIP3dPmjmuqOysoeG1J3b2b0e+1OCJ1ynyo/xWNk5i0jf8fktPr9LJ6Tlt/Vyj5ynRMVoZMxXx1rvR3Lca+0XJ2tjPxdeL/XPGbG78IYkpV3OTIxjLzSZvx+m/sJYa60zEqPv6TOO8t2ut+V54GeZZDzx14zryNl52EuhqHfdGBA1e/ZNrPudJ0uWQc5ec6psr0SQuqHKPrcLWj5h4i+3tXwYOH6osrQ91l5jS5X57WuHabVnK+PAbFBnnnmGfHFF1/oKSIiepTu378v1CV+enpap5RLhzqM+YteXUGR1suUJAJyXocI3tbTle6Ghe/wqJjJy/c/Z8W1QZfAYNyclxwVnr02Y9uBhJkkxIwY3t8jwnfV+7yY/8QrbJb9xgcX52PmQo8YTWbNiZ/zYvYjmX+bV4RlnrJRv3DsUvl3C/8Hk2JWbffneXGxS6Yd8YnhD+Ii/bNM+0nu9zCE7Q/X5F5N2WiPsKFHTBqbzsp9y7yXpquwlMc7OCnit9WWZJnfchr56f8gLGb1tsKvqv1fFPNqUpkbFe6yepBi/RV1kxWTZ/rFpLFdKa+33Row63eZuqs8VulIj66bDhG4HBfz2bgItLrE6LdrKLuUl+tUngvz6lgU06z1cyYorulyzP7Js8S2Z8ToEYfMi8zn8YCYTKSN45OVdeOETXj/cFGEvzVXzF72ye14xMWbxqRhpeeG70JYzBj1pupY5nH/sNyzKRvxCfd7M+Z5cfearCPLMclOih4bRM/nOg/XA8Il81qcrn6OL52vNbsdFDKoMfZV/rIcE+McMNMDgwGZp7QIyt+FjtBVIUMkc55Kl7+jxnVAnz/W94bidvTv8sI1Q55Lcv3gbXkuqX1Yz+ei5epM0WWpur5BHqff2YXnfFxk1e9v9pro3y9/f09NyjlaKii8to5SPedvT4p+eezQah7blR5/cXdS+P8wKdLFXzt5Dqh9ud4unhOyPLs8Yjihy6PPzYXymHVcuu4pS9ZBWoRPOYRd1WdXQIQT8yIr69vVOipmjaUr6LrynFm4vsx+IH/3ZR78f9aZXrbOl752bMj5uoRoNCqampr01OoxgCEi2oJWFsAEhOXPrWwMXBQdFYGDYbkA5puAsO33i8niivlrwm/9Q17ZUEmHhVdub1Q3SmUTWFyUjd3i6osCGPWHWf2hr/LyXtZLVcljtTJWbttoxFuDjOXKqlRreK1k/zXXs6Qlh2XDaHE5IRsqgW/k/GXqrmr+jTSnGE7qaW1NZa9ZTkvaUvWT0tOLVGkAyppTDeSOUKl0i7f9UOdGf+nYzLxtE84zsgGrGspS/s/+8n3YrEHTOuVrLarVrVF3FcdNL1den4qu58rffV2m8u3q3xdr3Rl1WVH2atZSZ5XU74KtPJ/zMiB3HQ3qczYvrv1BBiJnFj6QUPIyj+p3yBfRvyMrOf4XnEa5Fr3k/lWQM3PeKWxldTkvAxCX6Pik+NtTK4BZug6M+rUGUrVUrausCJ+Q6x8Pm7//y+1vqWvHRp2vS3jYAIaPkBERken5dnTu0+9XY68HvY0jaG/ZibZXhhC6sQfDb7n0zCpsbeg8HkfvPgf2/EYN0Qx0nvei5tP7t5IIVxsxTb6CXQ/3zH/zkVGkoz603Ekg9G4v2o8P6DmbI3NzBsmuIGSToaKsafT/Si6w2rorsaPlWf1We/Rlj6x/H/OHOjfmSoNVOA73ovHddrQ42nDyXAjJfcMLo4E1ezCanoRvRwaJiRH0erqxbE1t4Dm7mA3uowf0+3KBwzV+DwfdKJszHataJtdh2QRWx63sMbEOdL6wTBnWUmcVMnNxeRxsZee2/ego4hGvPJuVJBLvyBPqF01oNKZNja1ueOTP8e+WG3a4ePwzSCWTkA39RcdKpPvhlPPnvklij60sJ+j4Uxzh4zUGQ1FWWge7W9Ci365OM5wuN/DlHNLG5DL7W+ra8UjP1/XBAIaIiDQbvG+tpDFcodGJ/utpXHvPg+3XB9DtakHbuURFPwUrGzo+mcNspBfOVFj+od0Jxz+Eaj8f/0A1MWKY+V5PryfVP+b0IRw4HQNe8CP8gWqwbaIHstauxDFTczSjVdbdUh63sq/FOp0bjb/qRzx9DaOHtyN2thttLW0YKvWRMPsGHPp1j9xTG/yXL8qm3jI28pytwrapA29Us4Y6q+bLKBI1+tiU/Kx/WjTJl+0pa1iztII81JHEzBLXLCD2ZUIe09VYpzpYQu5eVkaZdhnKKMvtb4lrxyM+X9cDAxgiIqqQQ/SdVTSK74QwcrUR7t+NYvJmFrOf9KBwdlh3FK8mgZF3U3Ac7Ufw2zTSsQAOfNqNUFkHaItfOqH+JPee6EXohqVb7a1xDF19mG/3l+V8043uB37MXJYNwFY7GlXLZ4PlZWOhFpujDU6MwecdQuzOQnOq8OUQxoxveV9l3dX0kGVfogyP1DqdG5mJEUSecqPnT5OYz84ieKqAgQtmh+rcVB/c3gL8iTD6j7lg37aCitqwc3ZpxmhkyzX4q9HDMw/IRvpiAbgt3w21Emuqswo2+wHZ5I7A/+Y4kpZBLBbK6IDzlPzx4SRi1sijkEdWrulrdeiE5djgcDmB933ofCeGTGlbBcTOjSEp59v32YArfvg/TCJXOvfNURtrBTXrUQdLS2HmyyRcLzqNO1LL72+Ja8cmna8PgwEMEdETKP2DCk/y5oRVISMbth6M2eQfwGJSVj2gkEN2ib9j8dd6MG784WuWf+wd2G5zwFZ8ZOle1hjNJ5Ve2EDhjR4MTGWMTzxtcnk7PKXlG7fJxsTNFNIPCkh8GEGq2Q3f2y5gegzdzu3mKD/q9UISTpf+7LGYR8udi2xO7S9tSSsge1f+yGVlA8ecLuRk8yMj/5irRokse+Ir9R0qOeTvpZD8S40C6/Kks5YAYyX73+HAAdkOiv45ZqyvRt4a/yRmzBp9tQ0jqiGxvxsDx23IXB3AoeeaSmVtOtuINv0liUvVHRobZQCUMh7VKnw9jsgtmZbXx7ks6Fhj2Z93wCsbleGvzPA2910E48bIZREMdJ1ERI3wVqV+inkoZmUxeUzUSnezRrkMcjtGrcrjVVK57TWeG3m9+kIwGUfPad1QbrbD4dgO2y6b8cl2Qe4zI3OSNhrRBWS+jsml5RZleuovskGrkiutIF9rcicla7qG6SG0fGaHey13YnZ4MRaSIczZNsvIY7KBfmEAHSFf+eNmK7CiOisey7tVaxBo9WJE/S58ehIH/sasv5Z9e9BWKmMzPKcvysBrCAODUR145DD38RiCx0fge9G8A7OS4+/sGoDXpq59h9DSpI9VQxMGtqkPFACX3J6aH/rtAWz/KzWvBXv2tSG8yy3DG6URzep3MJVG5kEKoY9j+OcV1IHx+yDzUPPXomhbM1rkjiZDIcwZ1SXL+eEAhgoBjJwwA7WV1HnNa8dGna8bSWwQduInIto8NTvx6064S78WOryanV0X5lXtcHs7KIKxtIif9wqHDcJ+xC+Cc7pbbcX+zA6lcRH8ZFbMhvzCswvCttcrhq8XO5ZKqbDwqfQX/WKy1Ok7K2Y+6jGWl396heOlhX1Uy6PZ+bj4UuUpdl4uvszOwfnkqOhQ27Q5hPe9GZFNq46wNuH+/eRC53arKuVZ2f7N1bN/Dphl2OUR/tCs0eHYfqRHjMr6K3VE/nleTA6adQnYhevEsIgbIwcpy9Sd6lx8wi7L4xb+z+fL8mbf6yg7fqsuu0GNTuQz8lbc93xI5vVYQITVCEYrqJ9Sp+ISs7NxaRk1yEKxE3rxpTpHVz2XlIc5N8y0dCgorqXjYviYGg3NLjxngmL2J2MTxuh1o12yTtW2j42KmWxaTJ6ylZ+fNTpZ18rX6lXUUY2XUSc166lKPes5RdXqq2ipeYssV2c181jhp1kRPOMxR+uS56nn1Kjld8GUnwsK/0t6FLtdLuE7f600GMNKj78hNSkCxvGX6cZ24vIILjD2c0SVSZ37HtHzXsV8WSa3uv51yfKqc2fJOrBej+zCsbdyUIUq7sbF6CldFxXlNCx7ni537VjP83V5D9uJv0H9Jytw3W3btg2XLl1Ce3u7TiEiokcln8/j6aefhgxgcPDgQZ1KRBtCfe/Kc904kBALnf+JqKapqSl0dnbi/v37OmV1+AgZERER0UNzLzzKR0QbigEMERER0SqpTtM7d3di7EYByKSQPt6D9l16JhFtKAYwRERERKvU7GiDGxH0Oveg/bId43/q0B26iWijMYAhIiIiWq3nO3Dxpvqyv3lMnvfCsU2nE9GGYwBDRERERER1gwEMERERERHVDQYwRERERERUNxjAEBERERFR3WAAQ0T0JHqQw9zUGE66uxG6o9PWy/QQGho613+7RERE0sYHMOrbaRsa5B+zZV4vh5DRq9Ql4w92Azon6roURPSEyFwdQOfrvRj/qqBT1kdmohMNrgE9tZkyCL2s/r4sBFKJc+XTRERUnzY+gNnhRVgIpEMdOgEIJNSwgwuv+KCeUccSX5p/sCOfxeo7ECOiJ4Lt6ChmPw3oqfVjOxaGSKxluzLgOLeeH2SlkLqifkbQ/XFC/swg9a11moiI6tVj8QiZ6600gvv0RJ1yHTb/YHccdfOLrIiIVutODGEjwFgvLvQbH5LFYV6dbfBeltO3g1j4OI2IiOrR5gYw00MYmlZv5B+Wt7z13fBv7TfuJoWPMXwhIlqdDEKnuxHRU+vqTgr2wy49IcnpA9ZpIiKqO5sYwMg/WBeqPSedwJClb0znRKhsurKvjPlMc/G1+Nlm43ns0vwhufWi8v0Myf0s9NWxLldUvrw1H2X7WDJ/cj9GwKbpfjPmS+7TOl2tT1BFf6KybUmV+2o4Zymtnsc+OkRPsHtzCL3Rjp3yWtDiltecrE4vk0Pi3ZNo262uGS3Y4x1B4kc9q6ZifxP1qnb9lCr7Q5aucera2oJu9bjXlW60lM2Tyq6T1a5hC9dmNS8zMVT6O2Bcm08D7lZz2tjWl270F6eJiKg+iQ3yzDPPiC+++EJPCZEOdQi1u8pXIKEXKJMWwa7iMgERV0mJwKJl44PmMh2htBC3g6LDurxU3Kcxv7TNhfkL68hXV1AuYcmnnjbFRcBYrkMEb1uWGSztaSG/lvXK8ldlWimrF2N7xX2VL1fKa0U+S3Ui62fRdDF/VcpJRFvb/fv3jd/56elpnTIjhlttwvvBrMiqybszInjKKZcxr2umrJg80y8mb+fNyXxWXHtLLtMaEDM6aTHzmrVwvSq/Xhr0NajyemW9xhnXx4rrk3Gds6bp9RauveZ6xe2a10VreYiI6HEUjUZFU1OTnlq9TbkDI//YyMApDdnor8EG74Xic8oDaFOfrlV+anYnhOGz6k0HOl+wATvc6CzbXgLjXvVAgp4vt2k3+tkMIFZx50IJnDYfYbO90Gnu90o3xvVymYlhuZbU1Qn3DssyJcVtW1TmTyr2k4l4x6t8QhlA/K3ajzUkPjYfryj2sbHZDxjpA1+Wb2nApT/9VI+0Fbe3w4s+PVAC++gQPZkyEwH0bQ8g8KoDzSrhWadxPShzYxwD7w6h/bkm845H03YcOpcEpkcR/U4vU8G4PnYFMVZ6fNaF/qqd+Dtgl9dPQ6tb90tZinkNL16bDfK6JgMW4OywvstidsyfSZl3ZdQAAumQeW0kIqKtaxMfIZNByukl/oTJRvdYaeSyDgRPlDfuM9fDFc9L6w6aol/++ZSmY2bQoUacec58vKDNCCgW/thVtcOO4p8/c7kMYp9VPJmtR1YrBQhVLM6f1QxSqxrGM4GYznvE22I2LIrDlH6bMh+1aPXpgFAHfJbHxxTXW6pu2EeH6MmUQXxKXpFce2DXKUrjL7brd6bMzRkkZTCSNjq/W19p9P9KL1RGXx/32Zf+YMS4ZobhlQGM+chtm74+L6F0DS9nfhAU0ddQG9xHOxaui/K6ZzvWb+yHiIi2rs3txN/aX3ZXJTFd3ui2HevTn9I93LCX5h2fhVddN+IH42VlEZeLn06aAVy6GPSdbavej4aInkiFlXzdywO50JU4Zu7p6XVU7CvYgzF57SqODPbwjGGbiyOLqesev+eFiGjL29wAxupOCLGU9bNBaTqGma6FBrm103rxESoV3ISvV2mm77CXHvNa8o5LpTspzOi3B+wqNLA8HnYljNgK/zAufsxM/gFPlba88CjFithhLz4eV7zjUoPxx7z4eJ4lv+zET/Qka4btefkjEkfSTCj3wPxhc7TBKQMMn3dIXjsWIp7Cl0MYu6Enyujr49lYlcdiF6jgpcV7APHVfICkr+GVj8maAqWO+YlzQ0gU74obgRG/54WIaKvblABmUUChRoZ5rlu20xf+sBmf1n3pRvjyWKmvzIDL8sla6ZEp9VhVj2XUGT0CjaXfh3X+wtDN5QYumHcrSo9+dQXh038gXSeK/XHkH8bTxbsa1i9dK35BmkVp/8VHHYDULfOhso6Qz3zMrczix8oit1L6neVxuyvd6CkFIQkMFR8VU3VYemzMfKyiFCiV+uPIbfKLNomeQI1we4fhutGHnjejyKjY5EEK0csx+SYC/0t7MKKui/u7MXDcZnxL/6FiPxj5ajrbiLb9ajuLmY90DaCtdP0pjjBpPr67cL21XOMsj4dlphML16QrKairXmJCXlvlNdR4jPhsm+WDF3Pb5ddQ675dcMvrbseuig/DatIjmJXWJyKiuiA2SGkUMusIWEu+9MgxZcvLtJAedaZyOYN1tDLzVTZyl1Qc+av0soxeY91XIGTdr2WksqJF5VjIR9lIYupVMUKOdV5pFB6lOKJO8dUVEIGK8iy5vDWfcl5g0Dq/fCSeYj4q64eItqbFo5AJkf1mVPha7TLdJhyvhsX89YCwH/GLi4m0KA0y9vO8mBz0CodNXTPswnViWMTv6nm1lF2bitdt6zVoYXRF4zUYLF27S9ck6/XYct2rvL6WXROluLx2p637t17jl6Xztap1iIjoYT3sKGQN6j950V9327Ztw6VLl9De3q5THkPqewmeM0f3Uv1k+N0ARLRV5PN5PP3005ABDA4ePKhTiYiINt/U1BQ6Oztx//59nbI6j08fGCIiIiIiomUwgNFW1dGfiIiIiIg2xRMcwCQwpB8fU4zvEWBHTiIiIiKix9oTHMC40F/8LpXia4kvpiQiIiIios3HR8iIiIiIiKhuMIAhIiIiIqK6wQCGiIiIiIjqBgMYIiIiIiKqGwxgiIiIiIiobjCAISIiIiKiusEAhoiIiIiI6gYDGCIiIiIiqhsMYIiIiIiIqG4wgCEiIiIiorrBAIaIiIiIiOoGAxgiIiIiIqobDGCIiIiIiKhuMIAhIiIiIqK6wQCGiIiIiIjqBgMYIiIiIiKqGwxgiIiIiIiobjCAISIiIiKiusEAhoiIiIiI6kaDkPT7dbV79240NjZigzZPRERL+Jd/+Rc8ePDAeP/Xf/3Xxk8iIqLHQUNDAwqFAm7evKlTVmfDAph//+//PZ555hm0t7frFCIielTu37+PL774As899xxcLpdOJSIi2nz/9E//hP/zf/4P/tt/+286ZXU2LIDZtm0bLl26xACGiGgT5PN5PP3005iensbBgwd1KhER0eabmppCZ2en8WHbWrAPDBERERER1Q0GMEREREREVDcYwBARERERUd1gAENERLQJCncSCJ3rxM5zCZ1CREQrsfEBzJ0QOhsajOHSqr+G8ERcuqeHyso9NK3TDRmEXl59XSTOqXU6EbqjE4iIqipeY5Z5vRySS9KjkcRYlw/+sxGkdAoREa3MxgcwO7wIC4F0qEMnBBCX00KkEexS0wNok384yxv06yNx7jEKjlr7IW4HUayFMndiCF9RbwYQW3E9JBA7q35GEL7OJgcRLaPRi+DNvPHdXKXr72BcTwtkv70Ib6O56HrIfTbyWH24sv75SWLkjw/zF8YJfyKGEePvIBERrcYmPkJmg/fCQoN+4MI6f/I3PYQ2o4FfB3a40Wn8EQvA3WqkrIAL7kH1swOdL9iMFCKi6vLIv9AL767aEUrzXh96X5DL6emHk0F0Iq7fPw7WPz+F6SiC9/QEERE9UpvbB2aHHQf0W1xJrd9tdPXYmmtAT9QDGcxdVp+C9suwZOVcb6l1wvDu0AlERFXZ4Xt1+auL61WfXPLhpSb88Bt3lR8P656fewmM/H4AST1JRESP1uYGMHdSmNFv0WUv+8Np9u9YeFU+YpaZ6CybX3x220h/rhsRYynz8bSy57or++Qs6jyZwJB1fkW/lLL9yu0mrNOLtlX+3PnQdZ1cpnx/ZeWsmdfy7XZOWO9drWf+K45DxfPxtY6BqZgP9tEhqk85JN49ibbd6ve4BXu8I0j8qGdJhRtj6N7XgobdJxH6IYXQWfP3P/VpJw551fsIup9b7hog9/F+L9pL+xhDsuKuRuarEZx07TSuMS372tE3MYeCnqfWT02Nodcj83CngLmJPnNbu9sxMm0utWR+fpSByCtt2KmuVS170P1uQm5xQeqqub0Wt7yO/hjDgLpG5mIY+k0HBtS1+mybka/itbPwfQh9v9mDFr299jeiiz6Yy309YtZbw06cvFLjY7tMrCxf7W+EMMe7PUREC9Q38W+EZ555RnzxxRd6Soh0qEN94798BUTcTBHBLjWtXh0ieNtINMQHzfSOULrqtLgdFB2V011BuUXT4n1per1i+qLtytSAMb+Yn8ppU3G90rql7UIEEnohS/kqy1G+nJQILE5fLq+WfW5M/heWM9P0tor1rNcpy0/VY2DNHxE9Kvfv3zd+/6anp3WKlb4+DZZdIS2yYvJMv5i8nTcn81lx7S2nQGtAzBhJM2J4f48I3zVmivlPvMJm+f03r2nl153F5D5+Zxee83GR/VlNXhP9+yFspyblHNN8SG13VMzo/aSj/cIly+S6MGPMz0b9wrFLXWfcwnchrJdTebcJ7B+WudSq5efupPD/YVKki0W8a+7f9faM3JN0Nyx8h+W+1cTPsvyDLkt9Vam/7KTosUH0fG7mPns9YOS1OK1kP+8RtlZZr0ZFyfJ8HhAeuc+y7aSCwmvrEKNJc7387UnR3yqXabWUh4iozkWjUdHU1KSnVm8T7sDouyINLehWt/S7gkhbH4O6E8Kw0XdloW+H67BsOksR73jZ3YSIt8f8JE0NFHDZi+V6giQ+1ndmBt3Go1rF7RZlJoZl7qSuTriN/BT7mUTQ/fHiuxMq72PHauy11DHfUo4TNTrx77AvSl8ur2WP32nrm//icSj2y7HDrvrpXAkjZvk0tdYxsB3rk2sq7KNDVHdujGPg3SG0P9dk3mFo2o5D55LA9Cii38n5mRRmbqSRzqj7FY2wHw8g8Lyx5sqpfVzxYeCMC81PyelmN3xne2CX28yq+YUYxk+H0P2qD85nVUIjbEcGMDLoROL0GCI/ylWODGP2U3WlaYa7q0Mv14wDzja5/azlTs1iyU/ltt5pR0uT+nvUgKa/OYShG/La+14Uc2qBH+YweTeFtCriU3L7ZwLwq/QleeB0NBvvmv/ejXb5M31P56KQwNjZMHxvD8BjXBJleV7youNvjLlaAbEP/Agd74Fvv7mdxh0eDPwxAOd0H8Y+s94fIiJ6cm1CAFMchUy/KgKPzPWw2XCvagYp3VjuKzbMn5N/fCoebaquOGqXhRoZTOYhbDTiM4h9VnvP+Da1gn0sWLocy1kur9VsVP4rAk6ZurJj4EK/cYzZR4eo3mRuziBpfLhkuVYbrzT6fyUXsLWh83gcvfsc2PObXoxNAZ3nl/8QySozF0dyn61sHfvRUcQjXvNx4hsJDMmLyvZfWAceaITrRY/8OY65W2ZKbXPmtaqqDFLJJDpC6YryyVe6H061yF4PehtH0N6yE22vDCF0Yw+G31qiH1GzB6PpSfh2ZJCYGEGvp9v8QKnouxhGb7Rhz25reZrQZMYpWhKJd2Shf9EkS7qgsdUtQyNZ6u+M0IqI6Im3uX1gHoLRgT2h70pc6UbLk/J9Mo9cB4K3y//A9+uR0ngMiLaoBwX5Ox3HTM1+FzZ0fDKH2UgvnKmwbKzvhOMfQqsfiOXLKBI1gwxT/oF+U/RUk/xPhj3qrs1DKMgiRhIzte/SNDrRfz2Na+95sP36ALpdLWg7l1jiro7ZB+fQr3sQQxv8ly/qu9CaLMeKP0T6Wf+0MEr91DqOc01EVMceuwDG9kLnosepMqliV/8DsFs/zdd3JeLGnYDlvkNFPwKlnI1VaWjb4D66aM9Ifavf7rOv6tNFm73yAa/VWC6v1WxU/vUdl1pqHgN24ieqVzZHG5wYg887hNidhSZ74cshjN1Q7xIYeTcFx9F+BL9NIx0L4MCn3QgteQ0up64xNnl98b85jqRlcIDMxJB5zfilEz3yx3g0VhY0FH7KypV9cO3VCWtig8PlBN73ofOdGDKlHRQQOzdmji52J4SRq41w/24UkzezmP2kB4Wzw4jUuJ7lpvrg9hbgT4TRf8wF+zYVclg8K6/Rsryxb6o8BlYKWBxwnpI/PpxErKzQeWRlnn2tDp1ARPRk24QARj8GVovl0aTicqlb5sNMHSH5R0u9UaNzWR5ZMvuHdJQHNyUJhIxRumzwni5+HjZgfJJmkg1t/b7Ub6M0pLP8qfuxBE9UeXSgytDPMymdq1af/qLOhS+aLPVrkQZclob9nVQp3bR8XstGcNM2Jv8qrwt3VkqNi2WOQak/jqX8RPSYeJBFVrWj72bLRt0q2d+NgeM2ZK4O4FCxH4zqJ3K2EW37zUUKb/RgYCpjBBe2fQ7Y4YHN6IMiNTbKAEheX+SvfuHrcUSqPe7V6sWI2senJ3Hgb8ztt+zbg7bP7GYfvmYP/B91AO8MIKD3g9wcxj8MwnvBB7e+GVHIptUMZC13i/K68V+6e1MlP86uAXhtGUTfPFTqB9PQ0ISBbSp4M8Vf68H4DVVDzbDLMm63OXQZG9GsfqbSyDxIIfRxDP98LyuvhzKYM4KxAjJfx6C+eSYn01N/SSK3qxP+UzaMl7Yp502HEb4p35zrxp7fRuT6zfCcviivpEMYGIzqwCqHuY/HEDw+At+LvANDRGQQG6Q0CpllhKuyl3XEmiqsI2WpV9moXXKbgcFA2XbL5pdG31KvipHILCN+VZ1ftu7i+dbRtYyXzEf58taRbsq3FQhVjNxlqNyfZf2aebWO4Ga+Fsq/nvlfvB/rqGMrOwbLjURERBuh1ihki64B8lX+u6v9PC8mB73CYVPL2IXrxLCIG6N8KXER/GRWzIb8wrMLwrbXK4avL4y2JcS8CJ+wC9jcwv/5vE6r4qdZETzjEXaVD5tDeE6NWvah5M197LUZ+bS3+sRwbOH6WVkWVY7qfztq5Cc1KQLHHMKmlt3lEj41Ipqepa5xQbmv+HmzDuxH/CI4p4csk/Ly+uxW6WqUtJ9kwk8zYrRL7gM24Tgm07JpMXnKJmwv+sVkylxH1WlYlteo010eMZyQ5T/uEN7zk2LWUu78XFD4X7Lm65pIq5HaiIi2iIcdhaxB/Scv8utu27ZtuHTpEtrb1TgsRET0KOXzeTz99NOQAQwOHjyoU4mIiDbf1NQUOjs7cf/+fZ2yOnXbiZ+IiIiIiJ48DGCIiIiIiKhuMIAhIiIiIqK6wQCGiIiIiIjqBgMYIiIiIiKqGwxgiIiIiIiobjCAISIiIiKiusEAhoiIiIiI6gYDGCIiIiIiqhsMYIiIiIiIqG4wgCEiIiIiorrBAIaIiIiIiOoGAxgiIiIiIqobDGCIiIiIiKhuMIAhIiIiIqK6wQCGiIiIiIjqBgMYIiIiIiKqGwxgiIiIiIiobjCAISIiIiKiusEAhoiIiIiI6gYDGCIiIiIiqhsNQtLv19W//bf/Ftu2bcPhw4d1ChERPSqFQgE3b97EU089BYfDoVOJiIg233/9r/8VP/30E/7X//pfOmV1NiyAee655/Cv//W/xt/93d/pFCIielT+5V/+Bf/qX/0r/O///b/xb/7Nv9GpREREm29ubg65XA63b9/WKauzYQEMERERERHRemMfGCIiIiIiqhsMYIiIiIiIqG4wgCEiIiIiorrBAIaIiIiIiOoGO/ETPUL/995P+h0RET1Jntn2C/2OiB4W78AQEREREVHd4B0YokeId2Dq1//3//eefldf/tP/53X9jog2E+/AEK0fBjBEjxADmPqkgpf+/n49VV+GhoYYxBA9BhjAEK0fPkJGRERERER1Avj/AysrEtSh7cJaAAAAAElFTkSuQmCC;" parent="1" vertex="1">
          <mxGeometry x="1310" y="149.63" width="608.05" height="500" as="geometry" />
        </mxCell>
        <mxCell id="IsnAvOgHkMtuy9CUKKlC-4" value="" style="endArrow=none;dashed=1;html=1;dashPattern=1 3;strokeWidth=2;rounded=0;startArrow=none;" parent="1" edge="1">
          <mxGeometry width="50" height="50" relative="1" as="geometry">
            <mxPoint x="1070.0021912350599" y="771.7599999999998" as="sourcePoint" />
            <mxPoint x="1070.0499999999988" y="773.7600000000002" as="targetPoint" />
          </mxGeometry>
        </mxCell>
        <mxCell id="IsnAvOgHkMtuy9CUKKlC-5" style="edgeStyle=none;rounded=0;orthogonalLoop=1;jettySize=auto;html=1;exitX=1;exitY=0.5;exitDx=0;exitDy=0;" parent="1" edge="1">
          <mxGeometry relative="1" as="geometry">
            <mxPoint x="1111.0500000000006" y="753.2600000000002" as="sourcePoint" />
            <mxPoint x="1111.0500000000006" y="753.2600000000002" as="targetPoint" />
          </mxGeometry>
        </mxCell>
        <mxCell id="IsnAvOgHkMtuy9CUKKlC-6" value="" style="endArrow=none;dashed=1;html=1;dashPattern=1 3;strokeWidth=2;rounded=0;" parent="1" edge="1">
          <mxGeometry width="50" height="50" relative="1" as="geometry">
            <mxPoint x="1495.9999999999995" y="1457.38" as="sourcePoint" />
            <mxPoint x="1495.5499999999988" y="804.0100000000002" as="targetPoint" />
          </mxGeometry>
        </mxCell>
        <mxCell id="IsnAvOgHkMtuy9CUKKlC-7" value="Donador" style="shape=umlActor;verticalLabelPosition=bottom;verticalAlign=top;html=1;outlineConnect=0;" parent="1" vertex="1">
          <mxGeometry x="1076.0499999999997" y="689.01" width="40" height="90" as="geometry" />
        </mxCell>
        <mxCell id="IsnAvOgHkMtuy9CUKKlC-8" value="" style="endArrow=none;dashed=1;html=1;dashPattern=1 3;strokeWidth=2;rounded=0;startArrow=none;" parent="1" edge="1">
          <mxGeometry width="50" height="50" relative="1" as="geometry">
            <mxPoint x="2105.81" y="1540.37" as="sourcePoint" />
            <mxPoint x="2105.549999999999" y="858.6300000000002" as="targetPoint" />
          </mxGeometry>
        </mxCell>
        <mxCell id="IsnAvOgHkMtuy9CUKKlC-9" value="" style="endArrow=none;dashed=1;html=1;dashPattern=1 3;strokeWidth=2;rounded=0;" parent="1" edge="1">
          <mxGeometry width="50" height="50" relative="1" as="geometry">
            <mxPoint x="2309.9999999999995" y="1552" as="sourcePoint" />
            <mxPoint x="2305.549999999999" y="843.6300000000002" as="targetPoint" />
          </mxGeometry>
        </mxCell>
        <mxCell id="IsnAvOgHkMtuy9CUKKlC-10" value="" style="endArrow=none;dashed=1;html=1;dashPattern=1 3;strokeWidth=2;rounded=0;startArrow=none;" parent="1" edge="1">
          <mxGeometry width="50" height="50" relative="1" as="geometry">
            <mxPoint x="1670.000515463918" y="803.0099999999998" as="sourcePoint" />
            <mxPoint x="1670.0499999999988" y="805.0100000000002" as="targetPoint" />
          </mxGeometry>
        </mxCell>
        <mxCell id="IsnAvOgHkMtuy9CUKKlC-11" value="" style="rounded=0;whiteSpace=wrap;html=1;" parent="1" vertex="1">
          <mxGeometry x="1286.0499999999997" y="799.01" width="20" height="633" as="geometry" />
        </mxCell>
        <mxCell id="IsnAvOgHkMtuy9CUKKlC-13" value="" style="rounded=0;whiteSpace=wrap;html=1;" parent="1" vertex="1">
          <mxGeometry x="1086.0499999999997" y="804.01" width="20" height="681.74" as="geometry" />
        </mxCell>
        <mxCell id="IsnAvOgHkMtuy9CUKKlC-14" value="" style="rounded=0;whiteSpace=wrap;html=1;" parent="1" vertex="1">
          <mxGeometry x="1486.0499999999997" y="797.51" width="20" height="529.87" as="geometry" />
        </mxCell>
        <mxCell id="IsnAvOgHkMtuy9CUKKlC-15" value="&lt;u&gt;:pantallaDeRegistro&lt;/u&gt;" style="text;html=1;align=center;verticalAlign=middle;resizable=0;points=[];autosize=1;strokeColor=none;fillColor=none;fontSize=11;" parent="1" vertex="1">
          <mxGeometry x="1241.0499999999997" y="779.01" width="110" height="20" as="geometry" />
        </mxCell>
        <mxCell id="IsnAvOgHkMtuy9CUKKlC-16" value="" style="html=1;verticalAlign=bottom;endArrow=block;rounded=0;fontSize=11;" parent="1" edge="1">
          <mxGeometry width="80" relative="1" as="geometry">
            <mxPoint x="1306.0499999999988" y="926.4799999999999" as="sourcePoint" />
            <mxPoint x="1486.0499999999988" y="926.9799999999999" as="targetPoint" />
          </mxGeometry>
        </mxCell>
        <mxCell id="IsnAvOgHkMtuy9CUKKlC-17" value="click en &quot;registrarme&quot;" style="text;html=1;strokeColor=none;fillColor=none;align=center;verticalAlign=middle;whiteSpace=wrap;rounded=0;fontSize=11;" parent="1" vertex="1">
          <mxGeometry x="1336.0499999999997" y="892.01" width="130" height="30" as="geometry" />
        </mxCell>
        <mxCell id="IsnAvOgHkMtuy9CUKKlC-18" value="" style="shape=umlBoundary;whiteSpace=wrap;html=1;fontSize=11;" parent="1" vertex="1">
          <mxGeometry x="1246.0499999999997" y="697.51" width="100" height="80" as="geometry" />
        </mxCell>
        <mxCell id="IsnAvOgHkMtuy9CUKKlC-19" value="&lt;u&gt;:pantallaFormulario&lt;/u&gt;" style="text;html=1;align=center;verticalAlign=middle;resizable=0;points=[];autosize=1;strokeColor=none;fillColor=none;fontSize=11;" parent="1" vertex="1">
          <mxGeometry x="1762.85" y="780.75" width="110" height="20" as="geometry" />
        </mxCell>
        <mxCell id="IsnAvOgHkMtuy9CUKKlC-20" value="" style="html=1;verticalAlign=bottom;endArrow=block;rounded=0;fontSize=11;" parent="1" edge="1">
          <mxGeometry width="80" relative="1" as="geometry">
            <mxPoint x="1509.9999999999995" y="967.38" as="sourcePoint" />
            <mxPoint x="1649.9999999999995" y="967.38" as="targetPoint" />
          </mxGeometry>
        </mxCell>
        <mxCell id="IsnAvOgHkMtuy9CUKKlC-21" value="Conexión_exitosa" style="text;html=1;strokeColor=none;fillColor=none;align=center;verticalAlign=middle;whiteSpace=wrap;rounded=0;fontSize=11;" parent="1" vertex="1">
          <mxGeometry x="1516.8799999999997" y="937.5100000000001" width="130" height="30" as="geometry" />
        </mxCell>
        <mxCell id="IsnAvOgHkMtuy9CUKKlC-23" value="&lt;u&gt;:validandoRegistro&lt;/u&gt;" style="text;html=1;align=center;verticalAlign=middle;resizable=0;points=[];autosize=1;strokeColor=none;fillColor=none;fontSize=11;" parent="1" vertex="1">
          <mxGeometry x="1441.0499999999997" y="778.88" width="110" height="20" as="geometry" />
        </mxCell>
        <mxCell id="IsnAvOgHkMtuy9CUKKlC-24" value="" style="endArrow=none;dashed=1;html=1;dashPattern=1 3;strokeWidth=2;rounded=0;startArrow=none;" parent="1" source="IsnAvOgHkMtuy9CUKKlC-25" edge="1">
          <mxGeometry width="50" height="50" relative="1" as="geometry">
            <mxPoint x="1651.3799999999997" y="1566.0100000000002" as="sourcePoint" />
            <mxPoint x="1650.8800000000006" y="806.0099999999998" as="targetPoint" />
          </mxGeometry>
        </mxCell>
        <mxCell id="IsnAvOgHkMtuy9CUKKlC-25" value="" style="rounded=0;whiteSpace=wrap;html=1;" parent="1" vertex="1">
          <mxGeometry x="1646.88" y="804.01" width="20" height="421.74" as="geometry" />
        </mxCell>
        <mxCell id="IsnAvOgHkMtuy9CUKKlC-26" value="" style="endArrow=none;dashed=1;html=1;dashPattern=1 3;strokeWidth=2;rounded=0;" parent="1" target="IsnAvOgHkMtuy9CUKKlC-25" edge="1">
          <mxGeometry width="50" height="50" relative="1" as="geometry">
            <mxPoint x="1656.8299999999995" y="1426.2600000000002" as="sourcePoint" />
            <mxPoint x="1650.8799999999997" y="806.01" as="targetPoint" />
          </mxGeometry>
        </mxCell>
        <mxCell id="IsnAvOgHkMtuy9CUKKlC-27" value="Ingresa a la pantalla de registro" style="text;html=1;align=center;verticalAlign=middle;resizable=0;points=[];autosize=1;strokeColor=none;fillColor=none;fontSize=11;" parent="1" vertex="1">
          <mxGeometry x="1101.0499999999997" y="862.01" width="170" height="20" as="geometry" />
        </mxCell>
        <mxCell id="IsnAvOgHkMtuy9CUKKlC-28" value="" style="html=1;verticalAlign=bottom;endArrow=block;rounded=0;fontSize=11;" parent="1" edge="1">
          <mxGeometry width="80" relative="1" as="geometry">
            <mxPoint x="1106.0499999999988" y="882.0100000000002" as="sourcePoint" />
            <mxPoint x="1286.0499999999988" y="882.5100000000002" as="targetPoint" />
          </mxGeometry>
        </mxCell>
        <mxCell id="IsnAvOgHkMtuy9CUKKlC-29" value="" style="shape=umlBoundary;whiteSpace=wrap;html=1;fontSize=11;" parent="1" vertex="1">
          <mxGeometry x="1767.1799999999998" y="692.38" width="100" height="80" as="geometry" />
        </mxCell>
        <mxCell id="IsnAvOgHkMtuy9CUKKlC-30" value="" style="ellipse;shape=umlEntity;whiteSpace=wrap;html=1;" parent="1" vertex="1">
          <mxGeometry x="1611.6299999999997" y="681.88" width="90" height="87.25" as="geometry" />
        </mxCell>
        <mxCell id="IsnAvOgHkMtuy9CUKKlC-31" value="&lt;u&gt;:bdUsuarios&lt;/u&gt;" style="text;html=1;align=center;verticalAlign=middle;resizable=0;points=[];autosize=1;strokeColor=none;fillColor=none;fontSize=11;" parent="1" vertex="1">
          <mxGeometry x="1621.8799999999997" y="776.13" width="70" height="20" as="geometry" />
        </mxCell>
        <mxCell id="IsnAvOgHkMtuy9CUKKlC-32" value="" style="rounded=0;whiteSpace=wrap;html=1;" parent="1" vertex="1">
          <mxGeometry x="1807.1799999999998" y="806.26" width="20" height="599.49" as="geometry" />
        </mxCell>
        <mxCell id="IsnAvOgHkMtuy9CUKKlC-33" value="" style="endArrow=none;dashed=1;html=1;dashPattern=1 3;strokeWidth=2;rounded=0;" parent="1" edge="1">
          <mxGeometry width="50" height="50" relative="1" as="geometry">
            <mxPoint x="1816.9999999999995" y="1467.38" as="sourcePoint" />
            <mxPoint x="1816.6799999999998" y="1397.38" as="targetPoint" />
          </mxGeometry>
        </mxCell>
        <mxCell id="IsnAvOgHkMtuy9CUKKlC-34" value="" style="html=1;verticalAlign=bottom;endArrow=block;rounded=0;fontSize=11;exitX=1.021;exitY=0.335;exitDx=0;exitDy=0;exitPerimeter=0;" parent="1" edge="1">
          <mxGeometry width="80" relative="1" as="geometry">
            <mxPoint x="1670.4099999999994" y="1042.0875" as="sourcePoint" />
            <mxPoint x="1809.9999999999995" y="1041.75" as="targetPoint" />
          </mxGeometry>
        </mxCell>
        <mxCell id="IsnAvOgHkMtuy9CUKKlC-35" value="Accede al formulario por primera vez." style="text;html=1;strokeColor=none;fillColor=none;align=center;verticalAlign=middle;whiteSpace=wrap;rounded=0;fontSize=11;" parent="1" vertex="1">
          <mxGeometry x="1677.1799999999998" y="997.7499999999999" width="130" height="30" as="geometry" />
        </mxCell>
        <mxCell id="IsnAvOgHkMtuy9CUKKlC-36" value="" style="ellipse;shape=umlControl;whiteSpace=wrap;html=1;" parent="1" vertex="1">
          <mxGeometry x="1451.0499999999997" y="679.63" width="90" height="100" as="geometry" />
        </mxCell>
        <mxCell id="IsnAvOgHkMtuy9CUKKlC-37" value="" style="ellipse;shape=umlControl;whiteSpace=wrap;html=1;" parent="1" vertex="1">
          <mxGeometry x="1944.9999999999995" y="684.01" width="90" height="100" as="geometry" />
        </mxCell>
        <mxCell id="IsnAvOgHkMtuy9CUKKlC-38" value="&lt;u&gt;:envioDeFormulario&lt;/u&gt;" style="text;html=1;align=center;verticalAlign=middle;resizable=0;points=[];autosize=1;strokeColor=none;fillColor=none;fontSize=11;" parent="1" vertex="1">
          <mxGeometry x="1944.9999999999995" y="786.5" width="110" height="20" as="geometry" />
        </mxCell>
        <mxCell id="IsnAvOgHkMtuy9CUKKlC-40" value="" style="endArrow=none;dashed=1;html=1;dashPattern=1 3;strokeWidth=2;rounded=0;" parent="1" edge="1">
          <mxGeometry width="50" height="50" relative="1" as="geometry">
            <mxPoint x="1999.6499999999992" y="1467.7500000000005" as="sourcePoint" />
            <mxPoint x="1999.3299999999995" y="1397.75" as="targetPoint" />
          </mxGeometry>
        </mxCell>
        <mxCell id="IsnAvOgHkMtuy9CUKKlC-39" value="" style="rounded=0;whiteSpace=wrap;html=1;" parent="1" vertex="1">
          <mxGeometry x="1990" y="809.75" width="20" height="609.88" as="geometry" />
        </mxCell>
        <mxCell id="IsnAvOgHkMtuy9CUKKlC-41" value="" style="html=1;verticalAlign=bottom;endArrow=block;rounded=0;fontSize=11;" parent="1" edge="1">
          <mxGeometry width="80" relative="1" as="geometry">
            <mxPoint x="1829.9999999999995" y="1097.75" as="sourcePoint" />
            <mxPoint x="1989.9999999999995" y="1097.75" as="targetPoint" />
          </mxGeometry>
        </mxCell>
        <mxCell id="IsnAvOgHkMtuy9CUKKlC-42" value="click &quot;enviar&quot;" style="text;html=1;strokeColor=none;fillColor=none;align=center;verticalAlign=middle;whiteSpace=wrap;rounded=0;fontSize=11;" parent="1" vertex="1">
          <mxGeometry x="1837.85" y="1057.38" width="130" height="30" as="geometry" />
        </mxCell>
        <mxCell id="IsnAvOgHkMtuy9CUKKlC-43" value="Actualizar información" style="html=1;verticalAlign=bottom;endArrow=open;dashed=1;endSize=8;rounded=0;fontSize=11;" parent="1" edge="1">
          <mxGeometry x="-0.0353" relative="1" as="geometry">
            <mxPoint x="1799.9999999999995" y="1395.75" as="sourcePoint" />
            <mxPoint x="1312.9999999999995" y="1395.75" as="targetPoint" />
            <Array as="points" />
            <mxPoint as="offset" />
          </mxGeometry>
        </mxCell>
        <mxCell id="IsnAvOgHkMtuy9CUKKlC-44" value="Datos añadidos correctamente" style="html=1;verticalAlign=bottom;endArrow=open;dashed=1;endSize=8;rounded=0;fontSize=11;exitX=-0.141;exitY=0.974;exitDx=0;exitDy=0;exitPerimeter=0;" parent="1" edge="1">
          <mxGeometry x="-0.0039" y="-9" relative="1" as="geometry">
            <mxPoint x="1993.0499999999997" y="1399.6305000000004" as="sourcePoint" />
            <mxPoint x="1828.0500000000002" y="1399.8300000000002" as="targetPoint" />
            <Array as="points">
              <mxPoint x="1958.0500000000002" y="1399.8300000000004" />
              <mxPoint x="1918.0500000000002" y="1399.8300000000004" />
            </Array>
            <mxPoint as="offset" />
          </mxGeometry>
        </mxCell>
        <mxCell id="IsnAvOgHkMtuy9CUKKlC-46" value="" style="html=1;verticalAlign=bottom;endArrow=block;rounded=0;fontSize=11;entryX=1;entryY=1;entryDx=0;entryDy=0;" parent="1" target="IsnAvOgHkMtuy9CUKKlC-47" edge="1">
          <mxGeometry width="80" relative="1" as="geometry">
            <mxPoint x="2010" y="1149.63" as="sourcePoint" />
            <mxPoint x="2159.9999999999995" y="1149.63" as="targetPoint" />
          </mxGeometry>
        </mxCell>
        <mxCell id="IsnAvOgHkMtuy9CUKKlC-47" value="Validando datos()" style="text;html=1;strokeColor=none;fillColor=none;align=center;verticalAlign=middle;whiteSpace=wrap;rounded=0;fontSize=11;" parent="1" vertex="1">
          <mxGeometry x="2020" y="1119.63" width="130" height="30" as="geometry" />
        </mxCell>
        <mxCell id="IsnAvOgHkMtuy9CUKKlC-50" value="Manda toast &quot;rellene todos los campos&quot;" style="text;html=1;strokeColor=none;fillColor=none;align=center;verticalAlign=middle;whiteSpace=wrap;rounded=0;fontSize=11;" parent="1" vertex="1">
          <mxGeometry x="1850" y="1195.75" width="125.81" height="33.88" as="geometry" />
        </mxCell>
        <mxCell id="IsnAvOgHkMtuy9CUKKlC-58" value="" style="ellipse;shape=umlControl;whiteSpace=wrap;html=1;" parent="1" vertex="1">
          <mxGeometry x="2129.9999999999995" y="678.88" width="90" height="100" as="geometry" />
        </mxCell>
        <mxCell id="IsnAvOgHkMtuy9CUKKlC-59" value="&lt;u&gt;:validaFormulario&lt;/u&gt;" style="text;html=1;align=center;verticalAlign=middle;resizable=0;points=[];autosize=1;strokeColor=none;fillColor=none;fontSize=11;" parent="1" vertex="1">
          <mxGeometry x="2119.9999999999995" y="779.63" width="110" height="30" as="geometry" />
        </mxCell>
        <mxCell id="IsnAvOgHkMtuy9CUKKlC-60" value="" style="ellipse;shape=umlEntity;whiteSpace=wrap;html=1;" parent="1" vertex="1">
          <mxGeometry x="2289.9999999999995" y="692.38" width="90" height="87.25" as="geometry" />
        </mxCell>
        <mxCell id="IsnAvOgHkMtuy9CUKKlC-61" value="&lt;u&gt;:bdTest&lt;/u&gt;" style="text;html=1;align=center;verticalAlign=middle;resizable=0;points=[];autosize=1;strokeColor=none;fillColor=none;fontSize=11;" parent="1" vertex="1">
          <mxGeometry x="2304.9999999999995" y="778.88" width="60" height="30" as="geometry" />
        </mxCell>
        <mxCell id="IsnAvOgHkMtuy9CUKKlC-62" value="" style="endArrow=none;dashed=1;html=1;dashPattern=1 3;strokeWidth=2;rounded=0;startArrow=none;" parent="1" source="IsnAvOgHkMtuy9CUKKlC-64" edge="1">
          <mxGeometry width="50" height="50" relative="1" as="geometry">
            <mxPoint x="2180" y="1449.63" as="sourcePoint" />
            <mxPoint x="2174.3799999999997" y="808.8799999999999" as="targetPoint" />
          </mxGeometry>
        </mxCell>
        <mxCell id="IsnAvOgHkMtuy9CUKKlC-63" value="" style="endArrow=none;dashed=1;html=1;dashPattern=1 3;strokeWidth=2;rounded=0;startArrow=none;" parent="1" source="IsnAvOgHkMtuy9CUKKlC-66" edge="1">
          <mxGeometry width="50" height="50" relative="1" as="geometry">
            <mxPoint x="2337.81" y="1447.0100000000002" as="sourcePoint" />
            <mxPoint x="2332.1899999999996" y="806.26" as="targetPoint" />
          </mxGeometry>
        </mxCell>
        <mxCell id="IsnAvOgHkMtuy9CUKKlC-64" value="" style="rounded=0;whiteSpace=wrap;html=1;" parent="1" vertex="1">
          <mxGeometry x="2165" y="814.63" width="20" height="525" as="geometry" />
        </mxCell>
        <mxCell id="IsnAvOgHkMtuy9CUKKlC-65" value="" style="endArrow=none;dashed=1;html=1;dashPattern=1 3;strokeWidth=2;rounded=0;" parent="1" target="IsnAvOgHkMtuy9CUKKlC-64" edge="1">
          <mxGeometry width="50" height="50" relative="1" as="geometry">
            <mxPoint x="2180" y="1449.63" as="sourcePoint" />
            <mxPoint x="2174.3799999999997" y="808.88" as="targetPoint" />
          </mxGeometry>
        </mxCell>
        <mxCell id="IsnAvOgHkMtuy9CUKKlC-66" value="" style="rounded=0;whiteSpace=wrap;html=1;" parent="1" vertex="1">
          <mxGeometry x="2325" y="882.01" width="20" height="517.62" as="geometry" />
        </mxCell>
        <mxCell id="IsnAvOgHkMtuy9CUKKlC-67" value="" style="endArrow=none;dashed=1;html=1;dashPattern=1 3;strokeWidth=2;rounded=0;" parent="1" target="IsnAvOgHkMtuy9CUKKlC-66" edge="1">
          <mxGeometry width="50" height="50" relative="1" as="geometry">
            <mxPoint x="2337.81" y="1447.0100000000002" as="sourcePoint" />
            <mxPoint x="2332.1899999999996" y="806.2600000000001" as="targetPoint" />
          </mxGeometry>
        </mxCell>
        <mxCell id="IsnAvOgHkMtuy9CUKKlC-68" value="Alt&lt;br&gt;&lt;span style=&quot;color: rgb(32, 33, 36); font-family: Roboto, arial, sans-serif; text-align: left; background-color: rgb(255, 255, 255);&quot;&gt;&lt;font style=&quot;font-size: 9px;&quot;&gt;validandoDatos == incompletos&lt;/font&gt;&lt;/span&gt;" style="shape=umlFrame;whiteSpace=wrap;html=1;width=165;height=30;" parent="1" vertex="1">
          <mxGeometry x="1807.1800000000003" y="1169.63" width="370" height="103.88" as="geometry" />
        </mxCell>
        <mxCell id="IsnAvOgHkMtuy9CUKKlC-69" value="" style="html=1;verticalAlign=bottom;endArrow=block;rounded=0;fontSize=11;startArrow=none;entryX=0.008;entryY=0.803;entryDx=0;entryDy=0;entryPerimeter=0;exitX=0;exitY=1;exitDx=0;exitDy=0;" parent="1" source="IsnAvOgHkMtuy9CUKKlC-70" target="IsnAvOgHkMtuy9CUKKlC-66" edge="1">
          <mxGeometry width="80" relative="1" as="geometry">
            <mxPoint x="2280" y="1299.63" as="sourcePoint" />
            <mxPoint x="2330" y="1279.63" as="targetPoint" />
          </mxGeometry>
        </mxCell>
        <mxCell id="IsnAvOgHkMtuy9CUKKlC-70" value="&lt;font style=&quot;font-size: 9px;&quot;&gt;Guarda la información en la BD&lt;/font&gt;" style="text;html=1;strokeColor=none;fillColor=none;align=center;verticalAlign=middle;whiteSpace=wrap;rounded=0;fontSize=11;" parent="1" vertex="1">
          <mxGeometry x="2185" y="1269.63" width="130" height="30" as="geometry" />
        </mxCell>
        <mxCell id="IsnAvOgHkMtuy9CUKKlC-73" value="Break" style="shape=umlFrame;whiteSpace=wrap;html=1;width=83;height=20;" parent="1" vertex="1">
          <mxGeometry x="1818.5900000000001" y="1302.63" width="531.41" height="60" as="geometry" />
        </mxCell>
        <mxCell id="IsnAvOgHkMtuy9CUKKlC-76" value="Muestra un mensaje &quot;erros al conectar la BD&quot;" style="text;align=center;fontStyle=1;verticalAlign=middle;spacingLeft=3;spacingRight=3;strokeColor=none;rotatable=0;points=[[0,0.5],[1,0.5]];portConstraint=eastwest;fontSize=9;" parent="1" vertex="1">
          <mxGeometry x="1994.29" y="1313.63" width="180" height="26" as="geometry" />
        </mxCell>
        <mxCell id="IsnAvOgHkMtuy9CUKKlC-78" value="" style="endArrow=block;dashed=1;endFill=0;endSize=12;html=1;rounded=0;fontSize=9;exitX=0.342;exitY=0.905;exitDx=0;exitDy=0;exitPerimeter=0;" parent="1" source="IsnAvOgHkMtuy9CUKKlC-66" edge="1">
          <mxGeometry width="160" relative="1" as="geometry">
            <mxPoint x="1830" y="1349.63" as="sourcePoint" />
            <mxPoint x="1830" y="1349.63" as="targetPoint" />
          </mxGeometry>
        </mxCell>
        <mxCell id="IsnAvOgHkMtuy9CUKKlC-79" value="" style="html=1;verticalAlign=bottom;endArrow=open;dashed=1;endSize=8;rounded=0;fontSize=11;exitX=-0.141;exitY=0.974;exitDx=0;exitDy=0;exitPerimeter=0;" parent="1" edge="1">
          <mxGeometry x="-0.0039" y="-9" relative="1" as="geometry">
            <mxPoint x="1994.29" y="1239.6305000000007" as="sourcePoint" />
            <mxPoint x="1829.29" y="1239.8300000000002" as="targetPoint" />
            <Array as="points">
              <mxPoint x="1959.29" y="1239.8300000000004" />
              <mxPoint x="1919.29" y="1239.8300000000004" />
            </Array>
            <mxPoint as="offset" />
          </mxGeometry>
        </mxCell>
        <mxCell id="IsnAvOgHkMtuy9CUKKlC-80" value="" style="endArrow=none;dashed=1;html=1;dashPattern=1 3;strokeWidth=2;rounded=0;startArrow=none;" parent="1" edge="1">
          <mxGeometry width="50" height="50" relative="1" as="geometry">
            <mxPoint x="-165.11290322580635" y="1285.5" as="sourcePoint" />
            <mxPoint x="-165.5" y="925.5" as="targetPoint" />
          </mxGeometry>
        </mxCell>
        <mxCell id="IsnAvOgHkMtuy9CUKKlC-81" value="" style="endArrow=none;dashed=1;html=1;dashPattern=1 3;strokeWidth=2;rounded=0;" parent="1" edge="1">
          <mxGeometry width="50" height="50" relative="1" as="geometry">
            <mxPoint x="-330" y="1638" as="sourcePoint" />
            <mxPoint x="-330.5" y="922" as="targetPoint" />
          </mxGeometry>
        </mxCell>
        <mxCell id="IsnAvOgHkMtuy9CUKKlC-82" value="Paciente" style="shape=umlActor;verticalLabelPosition=bottom;verticalAlign=top;html=1;outlineConnect=0;" parent="1" vertex="1">
          <mxGeometry x="-940" y="794.87" width="40" height="90" as="geometry" />
        </mxCell>
        <mxCell id="IsnAvOgHkMtuy9CUKKlC-84" value="&lt;u&gt;:validandoFormulario&lt;/u&gt;" style="text;html=1;strokeColor=none;fillColor=none;align=center;verticalAlign=middle;whiteSpace=wrap;rounded=0;" parent="1" vertex="1">
          <mxGeometry x="-40" y="893.5" width="100" height="25" as="geometry" />
        </mxCell>
        <mxCell id="IsnAvOgHkMtuy9CUKKlC-85" value="" style="endArrow=none;dashed=1;html=1;dashPattern=1 3;strokeWidth=2;rounded=0;startArrow=none;" parent="1" source="IsnAvOgHkMtuy9CUKKlC-130" edge="1">
          <mxGeometry width="50" height="50" relative="1" as="geometry">
            <mxPoint x="-730.5" y="1332" as="sourcePoint" />
            <mxPoint x="-730.5" y="932" as="targetPoint" />
          </mxGeometry>
        </mxCell>
        <mxCell id="IsnAvOgHkMtuy9CUKKlC-86" value="" style="endArrow=none;dashed=1;html=1;dashPattern=1 3;strokeWidth=2;rounded=0;" parent="1" edge="1">
          <mxGeometry width="50" height="50" relative="1" as="geometry">
            <mxPoint x="-530" y="1675.5" as="sourcePoint" />
            <mxPoint x="-530.5" y="917" as="targetPoint" />
          </mxGeometry>
        </mxCell>
        <mxCell id="IsnAvOgHkMtuy9CUKKlC-87" value="" style="endArrow=none;dashed=1;html=1;dashPattern=1 3;strokeWidth=2;rounded=0;startArrow=none;" parent="1" source="IsnAvOgHkMtuy9CUKKlC-96" edge="1">
          <mxGeometry width="50" height="50" relative="1" as="geometry">
            <mxPoint x="4.5" y="1691.5" as="sourcePoint" />
            <mxPoint x="4" y="931.5" as="targetPoint" />
          </mxGeometry>
        </mxCell>
        <mxCell id="IsnAvOgHkMtuy9CUKKlC-88" value="" style="rounded=0;whiteSpace=wrap;html=1;" parent="1" vertex="1">
          <mxGeometry x="-540" y="908" width="20" height="644" as="geometry" />
        </mxCell>
        <mxCell id="IsnAvOgHkMtuy9CUKKlC-89" value="" style="endArrow=none;dashed=1;html=1;dashPattern=1 3;strokeWidth=2;rounded=0;startArrow=none;" parent="1" edge="1">
          <mxGeometry width="50" height="50" relative="1" as="geometry">
            <mxPoint x="-730.803370786517" y="1502" as="sourcePoint" />
            <mxPoint x="-730.5" y="1515.5" as="targetPoint" />
          </mxGeometry>
        </mxCell>
        <mxCell id="IsnAvOgHkMtuy9CUKKlC-90" value="" style="endArrow=none;dashed=1;html=1;dashPattern=1 3;strokeWidth=2;rounded=0;startArrow=none;" parent="1" edge="1">
          <mxGeometry width="50" height="50" relative="1" as="geometry">
            <mxPoint x="-730" y="1502" as="sourcePoint" />
            <mxPoint x="-730" y="1332" as="targetPoint" />
            <Array as="points" />
          </mxGeometry>
        </mxCell>
        <mxCell id="IsnAvOgHkMtuy9CUKKlC-91" style="edgeStyle=none;rounded=0;orthogonalLoop=1;jettySize=auto;html=1;exitX=1;exitY=0.5;exitDx=0;exitDy=0;" parent="1" edge="1">
          <mxGeometry relative="1" as="geometry">
            <mxPoint x="45" y="911" as="sourcePoint" />
            <mxPoint x="45" y="911" as="targetPoint" />
          </mxGeometry>
        </mxCell>
        <mxCell id="IsnAvOgHkMtuy9CUKKlC-93" value="" style="ellipse;shape=umlControl;whiteSpace=wrap;html=1;" parent="1" vertex="1">
          <mxGeometry x="-570" y="794.12" width="80" height="85" as="geometry" />
        </mxCell>
        <mxCell id="IsnAvOgHkMtuy9CUKKlC-94" value="" style="rounded=0;whiteSpace=wrap;html=1;" parent="1" vertex="1">
          <mxGeometry x="-340" y="915.5" width="20" height="722.5" as="geometry" />
        </mxCell>
        <mxCell id="IsnAvOgHkMtuy9CUKKlC-95" value="&lt;u&gt;:GenerarCampaña&lt;/u&gt;" style="text;html=1;align=center;verticalAlign=middle;resizable=0;points=[];autosize=1;strokeColor=none;fillColor=none;fontSize=11;" parent="1" vertex="1">
          <mxGeometry x="-585" y="882.25" width="110" height="20" as="geometry" />
        </mxCell>
        <mxCell id="IsnAvOgHkMtuy9CUKKlC-96" value="" style="rounded=0;whiteSpace=wrap;html=1;" parent="1" vertex="1">
          <mxGeometry y="929.5" width="20" height="598.5" as="geometry" />
        </mxCell>
        <mxCell id="IsnAvOgHkMtuy9CUKKlC-97" value="" style="endArrow=none;dashed=1;html=1;dashPattern=1 3;strokeWidth=2;rounded=0;" parent="1" target="IsnAvOgHkMtuy9CUKKlC-96" edge="1">
          <mxGeometry width="50" height="50" relative="1" as="geometry">
            <mxPoint x="10" y="1648" as="sourcePoint" />
            <mxPoint x="4" y="931.5" as="targetPoint" />
          </mxGeometry>
        </mxCell>
        <mxCell id="IsnAvOgHkMtuy9CUKKlC-99" value="&lt;u&gt;:PublicarCampañas&lt;/u&gt;" style="text;html=1;align=center;verticalAlign=middle;resizable=0;points=[];autosize=1;strokeColor=none;fillColor=none;fontSize=11;" parent="1" vertex="1">
          <mxGeometry x="-217.5" y="897" width="110" height="20" as="geometry" />
        </mxCell>
        <mxCell id="IsnAvOgHkMtuy9CUKKlC-100" value="" style="ellipse;shape=umlControl;whiteSpace=wrap;html=1;" parent="1" vertex="1">
          <mxGeometry x="-205" y="804.25" width="80" height="83.5" as="geometry" />
        </mxCell>
        <mxCell id="IsnAvOgHkMtuy9CUKKlC-101" value="" style="html=1;verticalAlign=bottom;endArrow=block;rounded=0;fontSize=11;entryX=0.064;entryY=0.187;entryDx=0;entryDy=0;entryPerimeter=0;" parent="1" target="IsnAvOgHkMtuy9CUKKlC-88" edge="1">
          <mxGeometry width="80" relative="1" as="geometry">
            <mxPoint x="-720" y="1028" as="sourcePoint" />
            <mxPoint x="-560" y="1235.5" as="targetPoint" />
          </mxGeometry>
        </mxCell>
        <mxCell id="IsnAvOgHkMtuy9CUKKlC-102" value="" style="html=1;verticalAlign=bottom;endArrow=block;rounded=0;fontSize=11;entryX=-0.2;entryY=0.139;entryDx=0;entryDy=0;entryPerimeter=0;" parent="1" edge="1">
          <mxGeometry width="80" relative="1" as="geometry">
            <mxPoint x="-516" y="1085.73" as="sourcePoint" />
            <mxPoint x="-340" y="1085.4950000000001" as="targetPoint" />
          </mxGeometry>
        </mxCell>
        <mxCell id="IsnAvOgHkMtuy9CUKKlC-103" value="Clic en botón &quot;crear campaña&quot;" style="text;html=1;strokeColor=none;fillColor=none;align=center;verticalAlign=middle;whiteSpace=wrap;rounded=0;fontSize=11;" parent="1" vertex="1">
          <mxGeometry x="-690" y="998" width="130" height="30" as="geometry" />
        </mxCell>
        <mxCell id="IsnAvOgHkMtuy9CUKKlC-104" value="Rellenar datos de su campaña" style="text;html=1;strokeColor=none;fillColor=none;align=center;verticalAlign=middle;whiteSpace=wrap;rounded=0;fontSize=11;" parent="1" vertex="1">
          <mxGeometry x="-490" y="1045.5" width="130" height="30" as="geometry" />
        </mxCell>
        <mxCell id="IsnAvOgHkMtuy9CUKKlC-105" value="" style="shape=umlBoundary;whiteSpace=wrap;html=1;fontSize=11;" parent="1" vertex="1">
          <mxGeometry x="-386" y="799.87" width="100" height="80" as="geometry" />
        </mxCell>
        <mxCell id="IsnAvOgHkMtuy9CUKKlC-106" value="&lt;u&gt;:FormularioCrearCampañas&lt;/u&gt;" style="text;html=1;align=center;verticalAlign=middle;resizable=0;points=[];autosize=1;strokeColor=none;fillColor=none;fontSize=11;" parent="1" vertex="1">
          <mxGeometry x="-405" y="882.25" width="150" height="20" as="geometry" />
        </mxCell>
        <mxCell id="IsnAvOgHkMtuy9CUKKlC-107" value="" style="html=1;verticalAlign=bottom;endArrow=block;rounded=0;fontSize=11;" parent="1" edge="1">
          <mxGeometry width="80" relative="1" as="geometry">
            <mxPoint x="-320" y="1145.5" as="sourcePoint" />
            <mxPoint x="-180" y="1145.5" as="targetPoint" />
          </mxGeometry>
        </mxCell>
        <mxCell id="IsnAvOgHkMtuy9CUKKlC-108" value="Clic en &quot;guardar&quot;" style="text;html=1;strokeColor=none;fillColor=none;align=center;verticalAlign=middle;whiteSpace=wrap;rounded=0;fontSize=11;" parent="1" vertex="1">
          <mxGeometry x="-320" y="1118" width="130" height="30" as="geometry" />
        </mxCell>
        <mxCell id="IsnAvOgHkMtuy9CUKKlC-111" value="" style="html=1;verticalAlign=bottom;endArrow=block;rounded=0;fontSize=11;" parent="1" edge="1">
          <mxGeometry width="80" relative="1" as="geometry">
            <mxPoint x="20" y="1318" as="sourcePoint" />
            <mxPoint x="170" y="1318" as="targetPoint" />
            <Array as="points" />
          </mxGeometry>
        </mxCell>
        <mxCell id="IsnAvOgHkMtuy9CUKKlC-115" value="" style="html=1;verticalAlign=bottom;endArrow=block;rounded=0;fontSize=11;entryX=-0.1;entryY=0.525;entryDx=0;entryDy=0;entryPerimeter=0;" parent="1" target="IsnAvOgHkMtuy9CUKKlC-96" edge="1">
          <mxGeometry width="80" relative="1" as="geometry">
            <mxPoint x="-150" y="1242.42" as="sourcePoint" />
            <mxPoint x="-14" y="1242.42" as="targetPoint" />
          </mxGeometry>
        </mxCell>
        <mxCell id="IsnAvOgHkMtuy9CUKKlC-116" value="Validando datos()" style="text;html=1;strokeColor=none;fillColor=none;align=center;verticalAlign=middle;whiteSpace=wrap;rounded=0;fontSize=11;" parent="1" vertex="1">
          <mxGeometry x="-140" y="1211.75" width="130" height="27.5" as="geometry" />
        </mxCell>
        <mxCell id="IsnAvOgHkMtuy9CUKKlC-118" value="" style="endArrow=none;dashed=1;html=1;dashPattern=1 3;strokeWidth=2;rounded=0;" parent="1" edge="1">
          <mxGeometry width="50" height="50" relative="1" as="geometry">
            <mxPoint x="-165" y="1638" as="sourcePoint" />
            <mxPoint x="-165" y="1495.5" as="targetPoint" />
          </mxGeometry>
        </mxCell>
        <UserObject label="CU-03 Generar Campañas" lucidchartObjectId="etU_sflz~3_a" id="IsnAvOgHkMtuy9CUKKlC-125">
          <mxCell style="html=1;overflow=block;blockSpacing=1;whiteSpace=wrap;fontSize=22.7;fontFamily=Liberation Serif;fontColor=default;align=center;spacing=0;fillColor=#ffffff;strokeWidth=1.5;strokeColor=none;" parent="1" vertex="1">
            <mxGeometry x="-520" y="647" width="334" height="68" as="geometry" />
          </mxCell>
        </UserObject>
        <mxCell id="IsnAvOgHkMtuy9CUKKlC-126" value="" style="shape=umlBoundary;whiteSpace=wrap;html=1;fontSize=9;" parent="1" vertex="1">
          <mxGeometry x="-780" y="799.12" width="100" height="80" as="geometry" />
        </mxCell>
        <mxCell id="IsnAvOgHkMtuy9CUKKlC-127" value="&lt;u&gt;:PantallaInicio&lt;/u&gt;" style="text;html=1;align=center;verticalAlign=middle;resizable=0;points=[];autosize=1;strokeColor=none;fillColor=none;fontSize=11;" parent="1" vertex="1">
          <mxGeometry x="-770" y="874.5" width="90" height="30" as="geometry" />
        </mxCell>
        <mxCell id="IsnAvOgHkMtuy9CUKKlC-130" value="" style="rounded=0;whiteSpace=wrap;html=1;" parent="1" vertex="1">
          <mxGeometry x="-740" y="908" width="20" height="740" as="geometry" />
        </mxCell>
        <mxCell id="IsnAvOgHkMtuy9CUKKlC-132" value="Ingresa con su usuario y contraseña" style="text;html=1;strokeColor=none;fillColor=none;align=center;verticalAlign=middle;whiteSpace=wrap;rounded=0;fontSize=11;" parent="1" vertex="1">
          <mxGeometry x="-890" y="950.38" width="130" height="30" as="geometry" />
        </mxCell>
        <mxCell id="IsnAvOgHkMtuy9CUKKlC-133" value="" style="html=1;verticalAlign=bottom;endArrow=block;rounded=0;fontSize=11;" parent="1" edge="1">
          <mxGeometry width="80" relative="1" as="geometry">
            <mxPoint x="-910" y="980" as="sourcePoint" />
            <mxPoint x="-740" y="980" as="targetPoint" />
          </mxGeometry>
        </mxCell>
        <mxCell id="IsnAvOgHkMtuy9CUKKlC-92" value="" style="rounded=0;whiteSpace=wrap;html=1;" parent="1" vertex="1">
          <mxGeometry x="-930" y="915.5" width="20" height="696" as="geometry" />
        </mxCell>
        <mxCell id="IsnAvOgHkMtuy9CUKKlC-140" value="" style="ellipse;shape=umlControl;whiteSpace=wrap;html=1;" parent="1" vertex="1">
          <mxGeometry x="-30" y="804.25" width="80" height="83.5" as="geometry" />
        </mxCell>
        <mxCell id="IsnAvOgHkMtuy9CUKKlC-141" value="" style="ellipse;shape=umlEntity;whiteSpace=wrap;html=1;" parent="1" vertex="1">
          <mxGeometry x="119.99999999999955" y="804.25" width="90" height="87.25" as="geometry" />
        </mxCell>
        <mxCell id="IsnAvOgHkMtuy9CUKKlC-142" value="&lt;u&gt;:BDcampaña&lt;/u&gt;" style="text;html=1;strokeColor=none;fillColor=none;align=center;verticalAlign=middle;whiteSpace=wrap;rounded=0;" parent="1" vertex="1">
          <mxGeometry x="120" y="893.5" width="100" height="25" as="geometry" />
        </mxCell>
        <mxCell id="IsnAvOgHkMtuy9CUKKlC-143" value="" style="endArrow=none;dashed=1;html=1;dashPattern=1 3;strokeWidth=2;rounded=0;" parent="1" edge="1">
          <mxGeometry width="50" height="50" relative="1" as="geometry">
            <mxPoint x="180" y="1648" as="sourcePoint" />
            <mxPoint x="180" y="938" as="targetPoint" />
          </mxGeometry>
        </mxCell>
        <mxCell id="IsnAvOgHkMtuy9CUKKlC-144" value="" style="rounded=0;whiteSpace=wrap;html=1;" parent="1" vertex="1">
          <mxGeometry x="170" y="939.5" width="20" height="718.5" as="geometry" />
        </mxCell>
        <mxCell id="IsnAvOgHkMtuy9CUKKlC-146" value="&lt;font style=&quot;font-size: 6px;&quot;&gt;Manda toast &quot;porfavor conteste todos los campos&quot;&lt;/font&gt;" style="html=1;verticalAlign=bottom;endArrow=open;dashed=1;endSize=8;rounded=0;fontSize=11;entryX=1.08;entryY=0.801;entryDx=0;entryDy=0;entryPerimeter=0;exitX=-0.15;exitY=0.985;exitDx=0;exitDy=0;exitPerimeter=0;" parent="1" edge="1">
          <mxGeometry x="-0.1034" relative="1" as="geometry">
            <mxPoint x="-175" y="1328" as="sourcePoint" />
            <mxPoint x="-320" y="1328.0285000000003" as="targetPoint" />
            <Array as="points" />
            <mxPoint x="1" as="offset" />
          </mxGeometry>
        </mxCell>
        <mxCell id="IsnAvOgHkMtuy9CUKKlC-98" value="" style="rounded=0;whiteSpace=wrap;html=1;" parent="1" vertex="1">
          <mxGeometry x="-175" y="927" width="25" height="621" as="geometry" />
        </mxCell>
        <mxCell id="IsnAvOgHkMtuy9CUKKlC-156" value="&lt;font style=&quot;font-size: 9px;&quot;&gt;Se muestra &quot;error al conectar con la BD&quot;&lt;/font&gt;" style="html=1;verticalAlign=bottom;endArrow=open;dashed=1;endSize=8;rounded=0;fontSize=11;startArrow=none;" parent="1" edge="1">
          <mxGeometry x="-0.0207" y="-7" relative="1" as="geometry">
            <mxPoint x="170" y="1463" as="sourcePoint" />
            <mxPoint x="-320" y="1463" as="targetPoint" />
            <Array as="points" />
            <mxPoint as="offset" />
          </mxGeometry>
        </mxCell>
        <mxCell id="IsnAvOgHkMtuy9CUKKlC-157" value="Break" style="shape=umlFrame;whiteSpace=wrap;html=1;width=83;height=20;" parent="1" vertex="1">
          <mxGeometry x="-340.0000000000001" y="1425.75" width="531.41" height="60" as="geometry" />
        </mxCell>
        <mxCell id="IsnAvOgHkMtuy9CUKKlC-147" value="Alt&lt;br&gt;&lt;span style=&quot;color: rgb(32, 33, 36); font-family: Roboto, arial, sans-serif; text-align: left; background-color: rgb(255, 255, 255);&quot;&gt;&lt;font style=&quot;font-size: 9px;&quot;&gt;validandoDatos == incompletos&lt;/font&gt;&lt;/span&gt;" style="shape=umlFrame;whiteSpace=wrap;html=1;width=140;height=34;" parent="1" vertex="1">
          <mxGeometry x="-340" y="1259.12" width="360" height="103.88" as="geometry" />
        </mxCell>
        <mxCell id="IsnAvOgHkMtuy9CUKKlC-160" value="muestra mensaje&lt;br&gt;&quot;Datos completos&quot;" style="html=1;verticalAlign=bottom;endArrow=open;dashed=1;endSize=8;rounded=0;fontSize=11;startArrow=none;exitX=-0.011;exitY=0.959;exitDx=0;exitDy=0;exitPerimeter=0;" parent="1" source="IsnAvOgHkMtuy9CUKKlC-144" edge="1">
          <mxGeometry x="-0.8409" y="-310" relative="1" as="geometry">
            <mxPoint x="160" y="1638" as="sourcePoint" />
            <mxPoint x="-710" y="1628" as="targetPoint" />
            <Array as="points" />
            <mxPoint as="offset" />
          </mxGeometry>
        </mxCell>
        <mxCell id="IsnAvOgHkMtuy9CUKKlC-153" value="Mensaje &quot;no se puede agregar tu campaña al inicio&quot;" style="text;html=1;strokeColor=none;fillColor=none;align=center;verticalAlign=middle;whiteSpace=wrap;rounded=0;fontSize=9;" parent="1" vertex="1">
          <mxGeometry x="-180" y="1598" width="240" height="36" as="geometry" />
        </mxCell>
        <mxCell id="IsnAvOgHkMtuy9CUKKlC-164" value="Break" style="shape=umlFrame;whiteSpace=wrap;html=1;width=83;height=20;" parent="1" vertex="1">
          <mxGeometry x="-740" y="1584.12" width="930" height="60" as="geometry" />
        </mxCell>
        <mxCell id="IsnAvOgHkMtuy9CUKKlC-173" value="&lt;h2 style=&quot;margin-left:35.4pt&quot;&gt;&lt;p style=&quot;&quot;&gt;&lt;/p&gt;&lt;/h2&gt;&lt;p style=&quot;text-align: left;&quot;&gt;&lt;/p&gt;&lt;p&gt;&lt;span style=&quot;background-color: initial; font-weight: normal; font-size: 12pt; line-height: 107%;&quot;&gt;Flujo&amp;nbsp;&lt;/span&gt;&lt;span style=&quot;background-color: initial; transform-origin: 0px 0px; transform: scaleX(1.04029); cursor: text;&quot;&gt;&lt;span style=&quot;font-size: 16px;&quot;&gt;Normal&lt;/span&gt;&lt;font color=&quot;rgba(0, 0, 0, 0)&quot;&gt;:&lt;/font&gt;&lt;/span&gt;&lt;/p&gt;&lt;span style=&quot;background-color: initial; font-weight: normal; font-size: 10pt; line-height: 107%;&quot;&gt;&lt;div style=&quot;text-align: left;&quot;&gt;&lt;span style=&quot;background-color: initial; font-size: 10pt; line-height: 107%;&quot;&gt;FN-01.&lt;/span&gt;&lt;span style=&quot;background-color: initial; font-size: 10px; transform-origin: 0px 0px; transform: scaleX(1.00627); cursor: text;&quot;&gt; El&lt;/span&gt;&lt;span style=&quot;font-size: 10px; background: rgb(250, 249, 248);&quot;&gt;&lt;span style=&quot;color: transparent; transform-origin: 0px 0px; transform: scaleX(0.887057); cursor: text;&quot;&gt; &lt;/span&gt;paciente ingresa al sistema y visualiza la&lt;/span&gt;&lt;span style=&quot;background-color: initial; font-size: 10px; transform-origin: 0px 0px; transform: scaleX(0.899146); cursor: text;&quot;&gt; pantalla&lt;/span&gt;&lt;span style=&quot;background-color: initial; font-size: 10px; transform-origin: 0px 0px; transform: scaleX(0.808245); cursor: text;&quot;&gt; de&lt;/span&gt;&lt;span style=&quot;background-color: initial; font-size: 10px; transform-origin: 0px 0px; transform: scaleX(0.987357); cursor: text;&quot;&gt; inicio.&lt;/span&gt;&lt;/div&gt;&lt;/span&gt;&lt;span style=&quot;background-color: initial; font-weight: normal; font-size: 10pt; line-height: 107%;&quot;&gt;&lt;div style=&quot;text-align: left;&quot;&gt;&lt;span style=&quot;background-color: initial; font-size: 10pt; line-height: 107%;&quot;&gt;FN-02.&lt;/span&gt;&lt;span style=&quot;background-color: initial; font-size: 10px; transform-origin: 0px 0px; transform: scaleX(0.886743); cursor: text;&quot;&gt; Presiona el&lt;/span&gt;&lt;span style=&quot;background-color: initial; font-size: 10px; transform-origin: 0px 0px; transform: scaleX(0.908787); cursor: text;&quot;&gt; botón&lt;/span&gt;&lt;span style=&quot;background-color: initial; font-size: 10px; transform-origin: 0px 0px; transform: scaleX(0.849131); cursor: text;&quot;&gt; de&lt;/span&gt;&lt;span style=&quot;background-color: initial; font-size: 10px; transform-origin: 0px 0px; transform: scaleX(0.884007); cursor: text;&quot;&gt; crear&lt;/span&gt;&lt;span style=&quot;background-color: initial; font-size: 10px; transform-origin: 0px 0px; transform: scaleX(0.864865); cursor: text;&quot;&gt; campaña&lt;/span&gt;&lt;/div&gt;&lt;/span&gt;&lt;span style=&quot;background-color: initial; font-weight: normal; font-size: 10pt; line-height: 107%;&quot;&gt;&lt;div style=&quot;text-align: left;&quot;&gt;&lt;span style=&quot;background-color: initial; font-size: 10pt; line-height: 107%;&quot;&gt;FN-03.&lt;/span&gt;&lt;span style=&quot;background-color: initial; font-size: 10px; transform-origin: 0px 0px; transform: scaleX(0.910533); cursor: text;&quot;&gt; Se dirige a&lt;span style=&quot;background: rgb(250, 249, 248);&quot;&gt; &lt;/span&gt;un formulario de crear&lt;/span&gt;&lt;span style=&quot;background-color: initial; font-size: 10px; transform-origin: 0px 0px; transform: scaleX(0.87475); cursor: text;&quot;&gt; campaña, en donde debe rellenar sus&lt;/span&gt;&lt;span style=&quot;background-color: initial; font-size: 10px; transform-origin: 0px 0px; transform: scaleX(0.865435); cursor: text;&quot;&gt; datos para generar&lt;/span&gt;&lt;span style=&quot;background-color: initial; font-size: 10px; transform-origin: 0px 0px; transform: scaleX(0.837178); cursor: text;&quot;&gt; su&lt;/span&gt;&lt;span style=&quot;background-color: initial; font-size: 10px; transform-origin: 0px 0px; transform: scaleX(0.869384); cursor: text;&quot;&gt; campaña.&lt;/span&gt;&lt;/div&gt;&lt;/span&gt;&lt;span style=&quot;background-color: initial; font-weight: normal; font-size: 10pt; line-height: 107%;&quot;&gt;&lt;div style=&quot;text-align: left;&quot;&gt;&lt;span style=&quot;background-color: initial; font-size: 10pt; line-height: 107%;&quot;&gt;FN-04.&amp;nbsp;&lt;/span&gt;&lt;span style=&quot;background-color: initial; font-size: 10pt; line-height: 107%;&quot;&gt;El paciente&lt;/span&gt;&lt;span style=&quot;background-color: initial; font-size: 10px; transform-origin: 0px 0px; transform: scaleX(0.914567); cursor: text;&quot;&gt; le&lt;/span&gt;&lt;span style=&quot;background-color: initial; font-size: 10px; transform-origin: 0px 0px; transform: scaleX(0.849131); cursor: text;&quot;&gt; da&lt;/span&gt;&lt;span style=&quot;background-color: initial; font-size: 10px; transform-origin: 0px 0px; transform: scaleX(1.00029); cursor: text;&quot;&gt; clic&lt;/span&gt;&lt;span style=&quot;background-color: initial; font-size: 10px; transform-origin: 0px 0px; transform: scaleX(0.868103); cursor: text;&quot;&gt; en&lt;/span&gt;&lt;span style=&quot;background-color: initial; font-size: 10px; transform-origin: 0px 0px; transform: scaleX(0.904154); cursor: text;&quot;&gt; guardar. (FA&lt;/span&gt;&lt;span style=&quot;background-color: initial; font-size: 10px; transform-origin: 0px 0px; cursor: text;&quot;&gt;-&lt;/span&gt;&lt;span style=&quot;background-color: initial; font-size: 10px; transform-origin: 0px 0px; transform: scaleX(0.922774); cursor: text;&quot;&gt;01)&lt;/span&gt;&lt;/div&gt;&lt;/span&gt;&lt;span style=&quot;background-color: initial; font-weight: normal; font-size: 10pt; line-height: 107%;&quot;&gt;FN-05.&amp;nbsp;&lt;/span&gt;&lt;span style=&quot;background-color: initial; font-weight: normal; font-size: 10pt; line-height: 107%;&quot;&gt;El sistema &lt;/span&gt;&lt;span style=&quot;background-color: initial; font-size: 10px; font-weight: normal; transform-origin: 0px 0px; transform: scaleX(0.902371); cursor: text;&quot;&gt;valida y revisa los datos, muestra un mensaje “datos completos”&lt;/span&gt;&lt;font style=&quot;font-size: 10px;&quot;&gt;&lt;span style=&quot;background-color: initial; font-weight: normal; transform-origin: 0px 0px; transform: scaleX(0.902371); cursor: text;&quot;&gt; &lt;/span&gt;&lt;span style=&quot;background-color: initial; font-weight: normal; transform-origin: 0px 0px; transform: scaleX(0.902371); cursor: text;&quot;&gt;&amp;nbsp;y&amp;nbsp;&lt;/span&gt;&lt;span style=&quot;background-color: initial; font-weight: normal; line-height: 107%;&quot;&gt;los&amp;nbsp;&lt;/span&gt;&lt;span style=&quot;background-color: initial; font-weight: normal; line-height: 107%;&quot;&gt;almacena en la base de&lt;/span&gt;&lt;/font&gt;&lt;span style=&quot;background-color: initial; font-weight: normal; transform-origin: 0px 0px; transform: scaleX(0.868991); cursor: text;&quot;&gt;&lt;font style=&quot;font-size: 10px;&quot;&gt; dato&lt;/font&gt;s.&lt;br&gt;&lt;div style=&quot;text-align: left;&quot;&gt;&lt;span style=&quot;background-color: initial; font-size: 10pt; line-height: 14.2667px;&quot;&gt;FN-06.&lt;/span&gt;&lt;span style=&quot;background-color: initial; transform-origin: 0px 0px; transform: scaleX(0.893975); cursor: text;&quot;&gt;&amp;nbsp;Aparece un mensaje&lt;span style=&quot;background: rgb(250, 249, 248);&quot;&gt;&amp;nbsp;&lt;/span&gt;el cual dice&lt;/span&gt;&lt;span style=&quot;background-color: initial; transform-origin: 0px 0px; transform: scaleX(0.902247); cursor: text;&quot;&gt;&amp;nbsp;“campaña&lt;/span&gt;&lt;span style=&quot;background-color: initial; transform-origin: 0px 0px; transform: scaleX(0.851106); cursor: text;&quot;&gt;&amp;nbsp;creada&lt;/span&gt;&lt;span style=&quot;background-color: initial; transform-origin: 0px 0px; transform: scaleX(0.907738); cursor: text;&quot;&gt;&amp;nbsp;correctamente”&lt;/span&gt;&lt;/div&gt;&lt;div style=&quot;text-align: left;&quot;&gt;&lt;span style=&quot;background-color: initial; text-align: center; font-size: 10pt; line-height: 14.2667px;&quot;&gt;FN-07.&lt;/span&gt;&lt;span style=&quot;background-color: initial; text-align: center; transform-origin: 0px 0px; transform: scaleX(1.00409); cursor: text;&quot;&gt;&amp;nbsp;Lo&lt;/span&gt;&lt;span style=&quot;text-align: center; background: rgb(250, 249, 248);&quot;&gt;&lt;span style=&quot;color: transparent; transform-origin: 0px 0px; transform: scaleX(0.937232); cursor: text;&quot;&gt;&amp;nbsp;&lt;/span&gt;redirige&lt;/span&gt;&lt;span style=&quot;background-color: initial; text-align: center; transform-origin: 0px 0px; cursor: text;&quot;&gt;&amp;nbsp;a&lt;/span&gt;&lt;span style=&quot;background-color: initial; text-align: center; transform-origin: 0px 0px; transform: scaleX(0.927241); cursor: text;&quot;&gt;&amp;nbsp;la pantalla de inicio actualizada&lt;/span&gt;&lt;span style=&quot;background-color: initial; text-align: center; transform-origin: 0px 0px; transform: scaleX(0.869095); cursor: text;&quot;&gt;&amp;nbsp;con su campaña&lt;/span&gt;&lt;span style=&quot;background-color: initial; text-align: center; transform-origin: 0px 0px; transform: scaleX(0.857704); cursor: text;&quot;&gt;&amp;nbsp;agregada&lt;span style=&quot;background: rgb(250, 249, 248);&quot;&gt;.&lt;/span&gt;&lt;/span&gt;&lt;/div&gt;&lt;/span&gt;&lt;p&gt;&lt;/p&gt;&lt;p&gt;&lt;/p&gt;&lt;p&gt;&lt;/p&gt;&lt;p style=&quot;&quot;&gt;&lt;/p&gt;&lt;div style=&quot;&quot;&gt;&lt;span style=&quot;background-color: initial; font-size: 12pt;&quot;&gt;Flujo alterno:&lt;/span&gt;&lt;/div&gt;&lt;span style=&quot;background-color: initial; color: rgb(0, 0, 0); font-size: 12pt; line-height: 107%;&quot;&gt;&lt;div style=&quot;font-weight: normal; text-align: left;&quot;&gt;&lt;span style=&quot;background-color: initial; font-size: 12pt; line-height: 107%;&quot;&gt;&amp;nbsp;&amp;nbsp;&lt;/span&gt;&lt;span style=&quot;background-color: initial; font-size: 10px;&quot;&gt;5.1 Datos incompletos en crear campaña&lt;/span&gt;&lt;/div&gt;&lt;div style=&quot;font-weight: normal; text-align: left;&quot;&gt;&lt;span style=&quot;background-color: initial; text-indent: 35.4pt; font-size: 10px;&quot;&gt;&lt;span style=&quot;white-space: pre;&quot;&gt; &lt;/span&gt;5.1.1 Manda un toast con el texto “por favor&amp;nbsp;&lt;/span&gt;&lt;span style=&quot;background-color: initial; text-indent: 35.4pt; font-size: 10px;&quot;&gt;conteste todos los campos”.&lt;/span&gt;&lt;/div&gt;&lt;div style=&quot;font-weight: normal; text-align: left;&quot;&gt;&lt;span style=&quot;background-color: initial; font-size: 9pt; text-indent: 35.4pt;&quot;&gt;&lt;span style=&quot;white-space: pre;&quot;&gt; &lt;/span&gt;5.1.2. Regresa al FN-03&lt;/span&gt;&lt;/div&gt;&lt;div style=&quot;&quot;&gt;&lt;span style=&quot;font-size: 14px; background-color: initial;&quot;&gt;&lt;b&gt;Excepciones:&lt;/b&gt;&lt;/span&gt;&lt;/div&gt;&lt;/span&gt;&lt;span style=&quot;transform-origin: 0px 0px; transform: scaleX(0.899768); cursor: text;&quot;&gt;&lt;h1 style=&quot;text-align: left;&quot;&gt;&lt;font style=&quot;font-size: 10px; font-weight: normal;&quot;&gt;&lt;span style=&quot;line-height: 107%;&quot;&gt;EX-5.2 Error al conectarse con la BD&lt;br&gt;&lt;/span&gt;&lt;span style=&quot;white-space: pre;&quot;&gt; &lt;/span&gt;5.2.1 El sistema muestra un mensaje “error&amp;nbsp;&lt;span style=&quot;background-color: initial; text-indent: 35.4pt;&quot;&gt;al conectar con la BD”.&lt;/span&gt;&lt;/font&gt;&lt;/h1&gt;&lt;h1 style=&quot;text-align: left;&quot;&gt;&lt;font style=&quot;font-weight: normal; font-size: 10px;&quot;&gt;&lt;span style=&quot;line-height: 107%;&quot;&gt;EX-07.1 Error con al actualizar la BD&lt;/span&gt;&lt;/font&gt;&lt;/h1&gt;&lt;h1 style=&quot;text-align: left;&quot;&gt;&lt;font style=&quot;font-weight: normal; font-size: 10px;&quot;&gt;7.1.1 El sistema muestra un mensaje “no&amp;nbsp;&lt;span style=&quot;background-color: initial; text-indent: 35.4pt;&quot;&gt;se puedo agregar tu campa&lt;/span&gt;&lt;span style=&quot;background-color: initial; text-indent: 35.4pt;&quot;&gt;ña al inicio”&lt;/span&gt;&lt;/font&gt;&lt;/h1&gt;&lt;/span&gt;" style="text;html=1;align=center;verticalAlign=middle;resizable=0;points=[];autosize=1;strokeColor=none;fillColor=none;fontSize=10;fontFamily=Times New Roman;" parent="1" vertex="1">
          <mxGeometry x="-540" y="177.88" width="520" height="420" as="geometry" />
        </mxCell>
        <mxCell id="IsnAvOgHkMtuy9CUKKlC-185" value="Accede a la B D de usuarios" style="html=1;align=center;verticalAlign=middle;rounded=0;absoluteArcSize=1;arcSize=10;dashed=0;fontFamily=Times New Roman;fontSize=11;" parent="1" vertex="1">
          <mxGeometry x="618" y="500" width="140" height="60" as="geometry" />
        </mxCell>
        <mxCell id="C7uovflBLvXJzVc5lwu3-3" value="" style="edgeStyle=none;curved=1;rounded=0;orthogonalLoop=1;jettySize=auto;html=1;endArrow=open;startSize=14;endSize=14;sourcePerimeterSpacing=8;targetPerimeterSpacing=8;exitX=0.5;exitY=1;exitDx=0;exitDy=0;" parent="1" source="IsnAvOgHkMtuy9CUKKlC-182" edge="1">
          <mxGeometry relative="1" as="geometry">
            <mxPoint x="446" y="320" as="targetPoint" />
          </mxGeometry>
        </mxCell>
        <mxCell id="IsnAvOgHkMtuy9CUKKlC-182" value="&lt;font style=&quot;font-size: 9px;&quot;&gt;Ingresa al sistema y&amp;nbsp; se encuentra en pantalla de inicio&lt;/font&gt;" style="html=1;align=center;verticalAlign=top;rounded=1;absoluteArcSize=1;arcSize=10;dashed=0;fontFamily=Times New Roman;fontSize=14;" parent="1" vertex="1">
          <mxGeometry x="343" y="210" width="205" height="40" as="geometry" />
        </mxCell>
        <mxCell id="C7uovflBLvXJzVc5lwu3-4" value="" style="edgeStyle=none;curved=1;rounded=0;orthogonalLoop=1;jettySize=auto;html=1;endArrow=open;startSize=14;endSize=14;sourcePerimeterSpacing=8;targetPerimeterSpacing=8;exitX=0.5;exitY=1;exitDx=0;exitDy=0;entryX=0.5;entryY=0;entryDx=0;entryDy=0;" parent="1" target="IsnAvOgHkMtuy9CUKKlC-182" edge="1">
          <mxGeometry relative="1" as="geometry">
            <mxPoint x="445.5050000000001" y="160" as="sourcePoint" />
            <mxPoint x="397.99999999999955" y="200" as="targetPoint" />
          </mxGeometry>
        </mxCell>
        <mxCell id="C7uovflBLvXJzVc5lwu3-5" value="" style="edgeStyle=none;curved=1;rounded=0;orthogonalLoop=1;jettySize=auto;html=1;endArrow=open;startSize=14;endSize=14;sourcePerimeterSpacing=8;targetPerimeterSpacing=8;exitX=1;exitY=0.5;exitDx=0;exitDy=0;" parent="1" source="C7uovflBLvXJzVc5lwu3-13" edge="1">
          <mxGeometry relative="1" as="geometry">
            <mxPoint x="548" y="530" as="sourcePoint" />
            <mxPoint x="618" y="530" as="targetPoint" />
            <Array as="points">
              <mxPoint x="568" y="530" />
            </Array>
          </mxGeometry>
        </mxCell>
        <mxCell id="C7uovflBLvXJzVc5lwu3-6" value="&lt;font style=&quot;font-size: 13px;&quot;&gt;Presiona el botón de crear campaña&lt;/font&gt;" style="html=1;align=center;verticalAlign=top;rounded=1;absoluteArcSize=1;arcSize=10;dashed=0;fontFamily=Times New Roman;fontSize=14;" parent="1" vertex="1">
          <mxGeometry x="348" y="320" width="195" height="40" as="geometry" />
        </mxCell>
        <mxCell id="C7uovflBLvXJzVc5lwu3-7" value="" style="edgeStyle=none;curved=1;rounded=0;orthogonalLoop=1;jettySize=auto;html=1;endArrow=open;startSize=14;endSize=14;sourcePerimeterSpacing=8;targetPerimeterSpacing=8;exitX=0.5;exitY=0;exitDx=0;exitDy=0;entryX=0.5;entryY=0;entryDx=0;entryDy=0;" parent="1" source="C7uovflBLvXJzVc5lwu3-19" target="C7uovflBLvXJzVc5lwu3-22" edge="1">
          <mxGeometry relative="1" as="geometry">
            <mxPoint x="445" y="360" as="sourcePoint" />
            <mxPoint x="446" y="420" as="targetPoint" />
          </mxGeometry>
        </mxCell>
        <mxCell id="C7uovflBLvXJzVc5lwu3-9" value="&lt;font style=&quot;font-size: 11px;&quot;&gt;Rellenar el formulario de crear campaña&lt;/font&gt;" style="html=1;align=center;verticalAlign=top;rounded=1;absoluteArcSize=1;arcSize=10;dashed=0;fontFamily=Times New Roman;fontSize=14;" parent="1" vertex="1">
          <mxGeometry x="348" y="430" width="195" height="40" as="geometry" />
        </mxCell>
        <mxCell id="C7uovflBLvXJzVc5lwu3-12" value="" style="edgeStyle=none;curved=1;rounded=0;orthogonalLoop=1;jettySize=auto;html=1;endArrow=open;startSize=14;endSize=14;sourcePerimeterSpacing=8;targetPerimeterSpacing=8;exitX=0.5;exitY=1;exitDx=0;exitDy=0;" parent="1" edge="1">
          <mxGeometry relative="1" as="geometry">
            <mxPoint x="445.0100000000002" y="548.25" as="sourcePoint" />
            <mxPoint x="446.0100000000002" y="608.25" as="targetPoint" />
          </mxGeometry>
        </mxCell>
        <mxCell id="C7uovflBLvXJzVc5lwu3-13" value="&lt;font style=&quot;font-size: 11px;&quot;&gt;Guarda la campaña&lt;/font&gt;" style="html=1;align=center;verticalAlign=top;rounded=1;absoluteArcSize=1;arcSize=10;dashed=0;fontFamily=Times New Roman;fontSize=14;" parent="1" vertex="1">
          <mxGeometry x="378" y="511.75" width="150" height="36.5" as="geometry" />
        </mxCell>
        <mxCell id="C7uovflBLvXJzVc5lwu3-19" value="" style="html=1;rounded=0;hachureGap=4;fontSize=11;" parent="1" vertex="1">
          <mxGeometry x="438" y="360" width="20" height="10" as="geometry" />
        </mxCell>
        <mxCell id="C7uovflBLvXJzVc5lwu3-22" value="" style="html=1;rounded=0;hachureGap=4;fontSize=11;" parent="1" vertex="1">
          <mxGeometry x="438" y="420" width="20" height="10" as="geometry" />
        </mxCell>
        <mxCell id="C7uovflBLvXJzVc5lwu3-25" value="" style="ellipse;fillColor=#000000;strokeColor=none;hachureGap=4;fontSize=11;" parent="1" vertex="1">
          <mxGeometry x="430.5" y="130" width="30" height="30" as="geometry" />
        </mxCell>
        <mxCell id="C7uovflBLvXJzVc5lwu3-27" value="" style="html=1;points=[];perimeter=orthogonalPerimeter;fillColor=#000000;strokeColor=none;hachureGap=4;fontSize=11;rotation=90;" parent="1" vertex="1">
          <mxGeometry x="450.5" y="548.25" width="5" height="130" as="geometry" />
        </mxCell>
      </root>
    </mxGraphModel>
  </diagram>
</mxfile>
